<svg xmlns="http://www.w3.org/2000/svg" xmlns:xlink="http://www.w3.org/1999/xlink" width="500" zoomAndPan="magnify" viewBox="0 0 375 374.999991" height="500" preserveAspectRatio="xMidYMid meet" version="1.0"><defs><clipPath id="7c15becbcc"><path d="M 187.5 0 C 181.359375 0 175.234375 0.300781 169.121094 0.902344 C 163.011719 1.503906 156.945312 2.40625 150.921875 3.601562 C 144.898438 4.800781 138.949219 6.292969 133.070312 8.074219 C 127.195312 9.855469 121.421875 11.921875 115.746094 14.273438 C 110.074219 16.621094 104.527344 19.246094 99.113281 22.140625 C 93.699219 25.035156 88.4375 28.1875 83.332031 31.597656 C 78.226562 35.011719 73.296875 38.664062 68.550781 42.558594 C 63.804688 46.457031 59.257812 50.574219 54.917969 54.917969 C 50.574219 59.257812 46.457031 63.804688 42.558594 68.550781 C 38.664062 73.296875 35.011719 78.226562 31.597656 83.332031 C 28.1875 88.4375 25.035156 93.699219 22.140625 99.113281 C 19.246094 104.527344 16.621094 110.074219 14.273438 115.746094 C 11.921875 121.421875 9.855469 127.195312 8.074219 133.070312 C 6.292969 138.949219 4.800781 144.898438 3.601562 150.921875 C 2.40625 156.945312 1.503906 163.011719 0.902344 169.121094 C 0.300781 175.234375 0 181.359375 0 187.5 C 0 193.640625 0.300781 199.765625 0.902344 205.878906 C 1.503906 211.988281 2.40625 218.054688 3.601562 224.078125 C 4.800781 230.101562 6.292969 236.050781 8.074219 241.929688 C 9.855469 247.804688 11.921875 253.578125 14.273438 259.253906 C 16.621094 264.925781 19.246094 270.472656 22.140625 275.886719 C 25.035156 281.300781 28.1875 286.5625 31.597656 291.667969 C 35.011719 296.773438 38.664062 301.703125 42.558594 306.449219 C 46.457031 311.195312 50.574219 315.742188 54.917969 320.082031 C 59.257812 324.425781 63.804688 328.542969 68.550781 332.4375 C 73.296875 336.335938 78.226562 339.988281 83.332031 343.402344 C 88.4375 346.8125 93.699219 349.964844 99.113281 352.859375 C 104.527344 355.753906 110.074219 358.378906 115.746094 360.726562 C 121.421875 363.078125 127.195312 365.144531 133.070312 366.925781 C 138.949219 368.707031 144.898438 370.199219 150.921875 371.398438 C 156.945312 372.59375 163.011719 373.496094 169.121094 374.097656 C 175.234375 374.699219 181.359375 375 187.5 375 C 193.640625 375 199.765625 374.699219 205.878906 374.097656 C 211.988281 373.496094 218.054688 372.59375 224.078125 371.398438 C 230.101562 370.199219 236.050781 368.707031 241.929688 366.925781 C 247.804688 365.144531 253.578125 363.078125 259.253906 360.726562 C 264.925781 358.378906 270.472656 355.753906 275.886719 352.859375 C 281.300781 349.964844 286.5625 346.8125 291.667969 343.402344 C 296.773438 339.988281 301.703125 336.335938 306.449219 332.4375 C 311.195312 328.542969 315.742188 324.425781 320.082031 320.082031 C 324.425781 315.742188 328.542969 311.195312 332.4375 306.449219 C 336.335938 301.703125 339.988281 296.773438 343.402344 291.667969 C 346.8125 286.5625 349.964844 281.300781 352.859375 275.886719 C 355.753906 270.472656 358.378906 264.925781 360.726562 259.253906 C 363.078125 253.578125 365.144531 247.804688 366.925781 241.929688 C 368.707031 236.050781 370.199219 230.101562 371.398438 224.078125 C 372.59375 218.054688 373.496094 211.988281 374.097656 205.878906 C 374.699219 199.765625 375 193.640625 375 187.5 C 375 181.359375 374.699219 175.234375 374.097656 169.121094 C 373.496094 163.011719 372.59375 156.945312 371.398438 150.921875 C 370.199219 144.898438 368.707031 138.949219 366.925781 133.070312 C 365.144531 127.195312 363.078125 121.421875 360.726562 115.746094 C 358.378906 110.074219 355.753906 104.527344 352.859375 99.113281 C 349.964844 93.699219 346.8125 88.4375 343.402344 83.332031 C 339.988281 78.226562 336.335938 73.296875 332.4375 68.550781 C 328.542969 63.804688 324.425781 59.257812 320.082031 54.917969 C 315.742188 50.574219 311.195312 46.457031 306.449219 42.558594 C 301.703125 38.664062 296.773438 35.011719 291.667969 31.597656 C 286.5625 28.1875 281.300781 25.035156 275.886719 22.140625 C 270.472656 19.246094 264.925781 16.621094 259.253906 14.273438 C 253.578125 11.921875 247.804688 9.855469 241.929688 8.074219 C 236.050781 6.292969 230.101562 4.800781 224.078125 3.601562 C 218.054688 2.40625 211.988281 1.503906 205.878906 0.902344 C 199.765625 0.300781 193.640625 0 187.5 0 Z M 187.5 0 " clip-rule="nonzero"/></clipPath><linearGradient x1="0.000000000000061391" gradientTransform="matrix(0.347222, 0, 0, 0.347222, 0.0000045, -0)" y1="0" x2="1079.999964" gradientUnits="userSpaceOnUse" y2="0" id="7310f89044"><stop stop-opacity="1" stop-color="rgb(48.599243%, 16.499329%, 90.99884%)" offset="0"/><stop stop-opacity="1" stop-color="rgb(48.605347%, 16.445923%, 90.652466%)" offset="0.00390625"/><stop stop-opacity="1" stop-color="rgb(48.61145%, 16.394043%, 90.307617%)" offset="0.0078125"/><stop stop-opacity="1" stop-color="rgb(48.617554%, 16.342163%, 89.961243%)" offset="0.0117188"/><stop stop-opacity="1" stop-color="rgb(48.623657%, 16.290283%, 89.614868%)" offset="0.015625"/><stop stop-opacity="1" stop-color="rgb(48.629761%, 16.236877%, 89.268494%)" offset="0.0195312"/><stop stop-opacity="1" stop-color="rgb(48.63739%, 16.184998%, 88.922119%)" offset="0.0234375"/><stop stop-opacity="1" stop-color="rgb(48.643494%, 16.133118%, 88.575745%)" offset="0.0273438"/><stop stop-opacity="1" stop-color="rgb(48.649597%, 16.081238%, 88.230896%)" offset="0.03125"/><stop stop-opacity="1" stop-color="rgb(48.655701%, 16.027832%, 87.884521%)" offset="0.0351562"/><stop stop-opacity="1" stop-color="rgb(48.661804%, 15.975952%, 87.538147%)" offset="0.0390625"/><stop stop-opacity="1" stop-color="rgb(48.667908%, 15.922546%, 87.191772%)" offset="0.0429688"/><stop stop-opacity="1" stop-color="rgb(48.674011%, 15.870667%, 86.845398%)" offset="0.046875"/><stop stop-opacity="1" stop-color="rgb(48.680115%, 15.818787%, 86.499023%)" offset="0.0507813"/><stop stop-opacity="1" stop-color="rgb(48.686218%, 15.766907%, 86.154175%)" offset="0.0546875"/><stop stop-opacity="1" stop-color="rgb(48.692322%, 15.713501%, 85.8078%)" offset="0.0585938"/><stop stop-opacity="1" stop-color="rgb(48.699951%, 15.661621%, 85.461426%)" offset="0.0625"/><stop stop-opacity="1" stop-color="rgb(48.706055%, 15.608215%, 85.115051%)" offset="0.0664062"/><stop stop-opacity="1" stop-color="rgb(48.712158%, 15.556335%, 84.770203%)" offset="0.0703125"/><stop stop-opacity="1" stop-color="rgb(48.718262%, 15.504456%, 84.423828%)" offset="0.0742188"/><stop stop-opacity="1" stop-color="rgb(48.724365%, 15.452576%, 84.077454%)" offset="0.078125"/><stop stop-opacity="1" stop-color="rgb(48.730469%, 15.39917%, 83.731079%)" offset="0.0820312"/><stop stop-opacity="1" stop-color="rgb(48.736572%, 15.34729%, 83.384705%)" offset="0.0859375"/><stop stop-opacity="1" stop-color="rgb(48.742676%, 15.29541%, 83.03833%)" offset="0.0898438"/><stop stop-opacity="1" stop-color="rgb(48.748779%, 15.24353%, 82.693481%)" offset="0.09375"/><stop stop-opacity="1" stop-color="rgb(48.754883%, 15.190125%, 82.347107%)" offset="0.0976563"/><stop stop-opacity="1" stop-color="rgb(48.760986%, 15.138245%, 82.000732%)" offset="0.101563"/><stop stop-opacity="1" stop-color="rgb(48.76709%, 15.084839%, 81.654358%)" offset="0.105469"/><stop stop-opacity="1" stop-color="rgb(48.774719%, 15.032959%, 81.307983%)" offset="0.109375"/><stop stop-opacity="1" stop-color="rgb(48.780823%, 14.981079%, 80.961609%)" offset="0.113281"/><stop stop-opacity="1" stop-color="rgb(48.786926%, 14.929199%, 80.61676%)" offset="0.117188"/><stop stop-opacity="1" stop-color="rgb(48.79303%, 14.875793%, 80.270386%)" offset="0.121094"/><stop stop-opacity="1" stop-color="rgb(48.799133%, 14.823914%, 79.924011%)" offset="0.125"/><stop stop-opacity="1" stop-color="rgb(48.805237%, 14.772034%, 79.577637%)" offset="0.128906"/><stop stop-opacity="1" stop-color="rgb(48.81134%, 14.720154%, 79.232788%)" offset="0.132812"/><stop stop-opacity="1" stop-color="rgb(48.817444%, 14.666748%, 78.886414%)" offset="0.136719"/><stop stop-opacity="1" stop-color="rgb(48.823547%, 14.614868%, 78.540039%)" offset="0.140625"/><stop stop-opacity="1" stop-color="rgb(48.829651%, 14.561462%, 78.193665%)" offset="0.144531"/><stop stop-opacity="1" stop-color="rgb(48.83728%, 14.509583%, 77.84729%)" offset="0.148438"/><stop stop-opacity="1" stop-color="rgb(48.843384%, 14.457703%, 77.500916%)" offset="0.152344"/><stop stop-opacity="1" stop-color="rgb(48.849487%, 14.405823%, 77.156067%)" offset="0.15625"/><stop stop-opacity="1" stop-color="rgb(48.855591%, 14.352417%, 76.809692%)" offset="0.160156"/><stop stop-opacity="1" stop-color="rgb(48.861694%, 14.300537%, 76.463318%)" offset="0.164062"/><stop stop-opacity="1" stop-color="rgb(48.867798%, 14.248657%, 76.116943%)" offset="0.167969"/><stop stop-opacity="1" stop-color="rgb(48.873901%, 14.196777%, 75.770569%)" offset="0.171875"/><stop stop-opacity="1" stop-color="rgb(48.880005%, 14.143372%, 75.424194%)" offset="0.175781"/><stop stop-opacity="1" stop-color="rgb(48.886108%, 14.091492%, 75.079346%)" offset="0.179688"/><stop stop-opacity="1" stop-color="rgb(48.892212%, 14.038086%, 74.732971%)" offset="0.183594"/><stop stop-opacity="1" stop-color="rgb(48.899841%, 13.986206%, 74.386597%)" offset="0.1875"/><stop stop-opacity="1" stop-color="rgb(48.905945%, 13.934326%, 74.040222%)" offset="0.191406"/><stop stop-opacity="1" stop-color="rgb(48.912048%, 13.882446%, 73.693848%)" offset="0.195313"/><stop stop-opacity="1" stop-color="rgb(48.918152%, 13.829041%, 73.347473%)" offset="0.199219"/><stop stop-opacity="1" stop-color="rgb(48.924255%, 13.777161%, 73.002625%)" offset="0.203125"/><stop stop-opacity="1" stop-color="rgb(48.930359%, 13.725281%, 72.65625%)" offset="0.207031"/><stop stop-opacity="1" stop-color="rgb(48.936462%, 13.673401%, 72.309875%)" offset="0.210938"/><stop stop-opacity="1" stop-color="rgb(48.942566%, 13.619995%, 71.963501%)" offset="0.214844"/><stop stop-opacity="1" stop-color="rgb(48.948669%, 13.568115%, 71.618652%)" offset="0.21875"/><stop stop-opacity="1" stop-color="rgb(48.954773%, 13.514709%, 71.272278%)" offset="0.222656"/><stop stop-opacity="1" stop-color="rgb(48.962402%, 13.46283%, 70.925903%)" offset="0.226563"/><stop stop-opacity="1" stop-color="rgb(48.968506%, 13.41095%, 70.579529%)" offset="0.230469"/><stop stop-opacity="1" stop-color="rgb(48.974609%, 13.35907%, 70.233154%)" offset="0.234375"/><stop stop-opacity="1" stop-color="rgb(48.980713%, 13.305664%, 69.88678%)" offset="0.238281"/><stop stop-opacity="1" stop-color="rgb(48.986816%, 13.253784%, 69.541931%)" offset="0.242188"/><stop stop-opacity="1" stop-color="rgb(48.99292%, 13.200378%, 69.195557%)" offset="0.246094"/><stop stop-opacity="1" stop-color="rgb(48.999023%, 13.148499%, 68.849182%)" offset="0.25"/><stop stop-opacity="1" stop-color="rgb(49.005127%, 13.096619%, 68.502808%)" offset="0.253906"/><stop stop-opacity="1" stop-color="rgb(49.01123%, 13.044739%, 68.156433%)" offset="0.257812"/><stop stop-opacity="1" stop-color="rgb(49.017334%, 12.991333%, 67.810059%)" offset="0.261719"/><stop stop-opacity="1" stop-color="rgb(49.024963%, 12.939453%, 67.46521%)" offset="0.265625"/><stop stop-opacity="1" stop-color="rgb(49.031067%, 12.887573%, 67.118835%)" offset="0.269531"/><stop stop-opacity="1" stop-color="rgb(49.03717%, 12.835693%, 66.772461%)" offset="0.273438"/><stop stop-opacity="1" stop-color="rgb(49.043274%, 12.782288%, 66.426086%)" offset="0.277344"/><stop stop-opacity="1" stop-color="rgb(49.049377%, 12.730408%, 66.081238%)" offset="0.28125"/><stop stop-opacity="1" stop-color="rgb(49.055481%, 12.677002%, 65.734863%)" offset="0.285156"/><stop stop-opacity="1" stop-color="rgb(49.061584%, 12.625122%, 65.388489%)" offset="0.289063"/><stop stop-opacity="1" stop-color="rgb(49.067688%, 12.573242%, 65.042114%)" offset="0.292969"/><stop stop-opacity="1" stop-color="rgb(49.073792%, 12.521362%, 64.69574%)" offset="0.296875"/><stop stop-opacity="1" stop-color="rgb(49.079895%, 12.467957%, 64.349365%)" offset="0.300781"/><stop stop-opacity="1" stop-color="rgb(49.085999%, 12.416077%, 64.004517%)" offset="0.304688"/><stop stop-opacity="1" stop-color="rgb(49.092102%, 12.364197%, 63.658142%)" offset="0.308594"/><stop stop-opacity="1" stop-color="rgb(49.099731%, 12.312317%, 63.311768%)" offset="0.3125"/><stop stop-opacity="1" stop-color="rgb(49.105835%, 12.258911%, 62.965393%)" offset="0.316406"/><stop stop-opacity="1" stop-color="rgb(49.111938%, 12.207031%, 62.619019%)" offset="0.320313"/><stop stop-opacity="1" stop-color="rgb(49.118042%, 12.153625%, 62.272644%)" offset="0.324219"/><stop stop-opacity="1" stop-color="rgb(49.124146%, 12.101746%, 61.927795%)" offset="0.328125"/><stop stop-opacity="1" stop-color="rgb(49.130249%, 12.049866%, 61.581421%)" offset="0.332031"/><stop stop-opacity="1" stop-color="rgb(49.136353%, 11.997986%, 61.235046%)" offset="0.335938"/><stop stop-opacity="1" stop-color="rgb(49.142456%, 11.94458%, 60.888672%)" offset="0.339844"/><stop stop-opacity="1" stop-color="rgb(49.14856%, 11.8927%, 60.542297%)" offset="0.34375"/><stop stop-opacity="1" stop-color="rgb(49.154663%, 11.84082%, 60.195923%)" offset="0.347656"/><stop stop-opacity="1" stop-color="rgb(49.162292%, 11.78894%, 59.851074%)" offset="0.351563"/><stop stop-opacity="1" stop-color="rgb(49.168396%, 11.735535%, 59.5047%)" offset="0.355469"/><stop stop-opacity="1" stop-color="rgb(49.1745%, 11.683655%, 59.158325%)" offset="0.359375"/><stop stop-opacity="1" stop-color="rgb(49.180603%, 11.630249%, 58.811951%)" offset="0.363281"/><stop stop-opacity="1" stop-color="rgb(49.186707%, 11.578369%, 58.467102%)" offset="0.367188"/><stop stop-opacity="1" stop-color="rgb(49.19281%, 11.526489%, 58.120728%)" offset="0.371094"/><stop stop-opacity="1" stop-color="rgb(49.198914%, 11.474609%, 57.774353%)" offset="0.375"/><stop stop-opacity="1" stop-color="rgb(49.205017%, 11.421204%, 57.427979%)" offset="0.378906"/><stop stop-opacity="1" stop-color="rgb(49.211121%, 11.369324%, 57.081604%)" offset="0.382813"/><stop stop-opacity="1" stop-color="rgb(49.217224%, 11.317444%, 56.735229%)" offset="0.386719"/><stop stop-opacity="1" stop-color="rgb(49.224854%, 11.265564%, 56.390381%)" offset="0.390625"/><stop stop-opacity="1" stop-color="rgb(49.230957%, 11.212158%, 56.044006%)" offset="0.394531"/><stop stop-opacity="1" stop-color="rgb(49.237061%, 11.160278%, 55.697632%)" offset="0.398438"/><stop stop-opacity="1" stop-color="rgb(49.243164%, 11.106873%, 55.351257%)" offset="0.402344"/><stop stop-opacity="1" stop-color="rgb(49.249268%, 11.054993%, 55.004883%)" offset="0.40625"/><stop stop-opacity="1" stop-color="rgb(49.255371%, 11.003113%, 54.658508%)" offset="0.410156"/><stop stop-opacity="1" stop-color="rgb(49.261475%, 10.951233%, 54.31366%)" offset="0.414063"/><stop stop-opacity="1" stop-color="rgb(49.267578%, 10.897827%, 53.967285%)" offset="0.417969"/><stop stop-opacity="1" stop-color="rgb(49.273682%, 10.845947%, 53.620911%)" offset="0.421875"/><stop stop-opacity="1" stop-color="rgb(49.279785%, 10.794067%, 53.274536%)" offset="0.425781"/><stop stop-opacity="1" stop-color="rgb(49.287415%, 10.742188%, 52.929688%)" offset="0.429688"/><stop stop-opacity="1" stop-color="rgb(49.293518%, 10.688782%, 52.583313%)" offset="0.433594"/><stop stop-opacity="1" stop-color="rgb(49.299622%, 10.636902%, 52.236938%)" offset="0.4375"/><stop stop-opacity="1" stop-color="rgb(49.305725%, 10.583496%, 51.890564%)" offset="0.441406"/><stop stop-opacity="1" stop-color="rgb(49.311829%, 10.531616%, 51.544189%)" offset="0.445312"/><stop stop-opacity="1" stop-color="rgb(49.317932%, 10.479736%, 51.197815%)" offset="0.449219"/><stop stop-opacity="1" stop-color="rgb(49.324036%, 10.427856%, 50.852966%)" offset="0.453125"/><stop stop-opacity="1" stop-color="rgb(49.330139%, 10.374451%, 50.506592%)" offset="0.457031"/><stop stop-opacity="1" stop-color="rgb(49.336243%, 10.322571%, 50.160217%)" offset="0.460938"/><stop stop-opacity="1" stop-color="rgb(49.342346%, 10.269165%, 49.813843%)" offset="0.464844"/><stop stop-opacity="1" stop-color="rgb(49.349976%, 10.217285%, 49.467468%)" offset="0.46875"/><stop stop-opacity="1" stop-color="rgb(49.356079%, 10.165405%, 49.121094%)" offset="0.472656"/><stop stop-opacity="1" stop-color="rgb(49.362183%, 10.113525%, 48.776245%)" offset="0.476562"/><stop stop-opacity="1" stop-color="rgb(49.368286%, 10.06012%, 48.429871%)" offset="0.480469"/><stop stop-opacity="1" stop-color="rgb(49.37439%, 10.00824%, 48.083496%)" offset="0.484375"/><stop stop-opacity="1" stop-color="rgb(49.380493%, 9.95636%, 47.737122%)" offset="0.488281"/><stop stop-opacity="1" stop-color="rgb(49.386597%, 9.90448%, 47.390747%)" offset="0.492188"/><stop stop-opacity="1" stop-color="rgb(49.3927%, 9.851074%, 47.044373%)" offset="0.496094"/><stop stop-opacity="1" stop-color="rgb(49.398804%, 9.799194%, 46.699524%)" offset="0.5"/><stop stop-opacity="1" stop-color="rgb(49.404907%, 9.745789%, 46.353149%)" offset="0.503906"/><stop stop-opacity="1" stop-color="rgb(49.411011%, 9.693909%, 46.006775%)" offset="0.507812"/><stop stop-opacity="1" stop-color="rgb(49.417114%, 9.642029%, 45.6604%)" offset="0.511719"/><stop stop-opacity="1" stop-color="rgb(49.424744%, 9.590149%, 45.315552%)" offset="0.515625"/><stop stop-opacity="1" stop-color="rgb(49.430847%, 9.536743%, 44.969177%)" offset="0.519531"/><stop stop-opacity="1" stop-color="rgb(49.436951%, 9.484863%, 44.622803%)" offset="0.523438"/><stop stop-opacity="1" stop-color="rgb(49.443054%, 9.432983%, 44.276428%)" offset="0.527344"/><stop stop-opacity="1" stop-color="rgb(49.449158%, 9.381104%, 43.930054%)" offset="0.53125"/><stop stop-opacity="1" stop-color="rgb(49.455261%, 9.327698%, 43.583679%)" offset="0.535156"/><stop stop-opacity="1" stop-color="rgb(49.461365%, 9.275818%, 43.238831%)" offset="0.539063"/><stop stop-opacity="1" stop-color="rgb(49.467468%, 9.222412%, 42.892456%)" offset="0.542969"/><stop stop-opacity="1" stop-color="rgb(49.473572%, 9.170532%, 42.546082%)" offset="0.546875"/><stop stop-opacity="1" stop-color="rgb(49.479675%, 9.118652%, 42.199707%)" offset="0.550781"/><stop stop-opacity="1" stop-color="rgb(49.487305%, 9.066772%, 41.853333%)" offset="0.554688"/><stop stop-opacity="1" stop-color="rgb(49.493408%, 9.013367%, 41.506958%)" offset="0.558594"/><stop stop-opacity="1" stop-color="rgb(49.499512%, 8.961487%, 41.162109%)" offset="0.5625"/><stop stop-opacity="1" stop-color="rgb(49.505615%, 8.909607%, 40.815735%)" offset="0.566406"/><stop stop-opacity="1" stop-color="rgb(49.511719%, 8.857727%, 40.46936%)" offset="0.570313"/><stop stop-opacity="1" stop-color="rgb(49.517822%, 8.804321%, 40.122986%)" offset="0.574219"/><stop stop-opacity="1" stop-color="rgb(49.523926%, 8.752441%, 39.776611%)" offset="0.578125"/><stop stop-opacity="1" stop-color="rgb(49.530029%, 8.699036%, 39.430237%)" offset="0.582031"/><stop stop-opacity="1" stop-color="rgb(49.536133%, 8.647156%, 39.085388%)" offset="0.585938"/><stop stop-opacity="1" stop-color="rgb(49.542236%, 8.595276%, 38.739014%)" offset="0.589844"/><stop stop-opacity="1" stop-color="rgb(49.549866%, 8.543396%, 38.392639%)" offset="0.59375"/><stop stop-opacity="1" stop-color="rgb(49.555969%, 8.48999%, 38.046265%)" offset="0.597656"/><stop stop-opacity="1" stop-color="rgb(49.562073%, 8.43811%, 37.701416%)" offset="0.601563"/><stop stop-opacity="1" stop-color="rgb(49.568176%, 8.38623%, 37.355042%)" offset="0.605469"/><stop stop-opacity="1" stop-color="rgb(49.57428%, 8.334351%, 37.008667%)" offset="0.609375"/><stop stop-opacity="1" stop-color="rgb(49.580383%, 8.280945%, 36.662292%)" offset="0.613281"/><stop stop-opacity="1" stop-color="rgb(49.586487%, 8.229065%, 36.315918%)" offset="0.617188"/><stop stop-opacity="1" stop-color="rgb(49.59259%, 8.175659%, 35.969543%)" offset="0.621094"/><stop stop-opacity="1" stop-color="rgb(49.598694%, 8.123779%, 35.624695%)" offset="0.625"/><stop stop-opacity="1" stop-color="rgb(49.604797%, 8.071899%, 35.27832%)" offset="0.628906"/><stop stop-opacity="1" stop-color="rgb(49.612427%, 8.02002%, 34.931946%)" offset="0.632813"/><stop stop-opacity="1" stop-color="rgb(49.61853%, 7.966614%, 34.585571%)" offset="0.636719"/><stop stop-opacity="1" stop-color="rgb(49.624634%, 7.914734%, 34.239197%)" offset="0.640625"/><stop stop-opacity="1" stop-color="rgb(49.630737%, 7.861328%, 33.892822%)" offset="0.644531"/><stop stop-opacity="1" stop-color="rgb(49.636841%, 7.809448%, 33.547974%)" offset="0.648438"/><stop stop-opacity="1" stop-color="rgb(49.642944%, 7.757568%, 33.201599%)" offset="0.652344"/><stop stop-opacity="1" stop-color="rgb(49.649048%, 7.705688%, 32.855225%)" offset="0.65625"/><stop stop-opacity="1" stop-color="rgb(49.655151%, 7.652283%, 32.50885%)" offset="0.660156"/><stop stop-opacity="1" stop-color="rgb(49.661255%, 7.600403%, 32.164001%)" offset="0.664063"/><stop stop-opacity="1" stop-color="rgb(49.667358%, 7.548523%, 31.817627%)" offset="0.667969"/><stop stop-opacity="1" stop-color="rgb(49.674988%, 7.496643%, 31.471252%)" offset="0.671875"/><stop stop-opacity="1" stop-color="rgb(49.681091%, 7.443237%, 31.124878%)" offset="0.675781"/><stop stop-opacity="1" stop-color="rgb(49.687195%, 7.391357%, 30.778503%)" offset="0.679687"/><stop stop-opacity="1" stop-color="rgb(49.693298%, 7.337952%, 30.432129%)" offset="0.683594"/><stop stop-opacity="1" stop-color="rgb(49.699402%, 7.286072%, 30.08728%)" offset="0.6875"/><stop stop-opacity="1" stop-color="rgb(49.705505%, 7.234192%, 29.740906%)" offset="0.691406"/><stop stop-opacity="1" stop-color="rgb(49.711609%, 7.182312%, 29.394531%)" offset="0.695312"/><stop stop-opacity="1" stop-color="rgb(49.717712%, 7.128906%, 29.048157%)" offset="0.699219"/><stop stop-opacity="1" stop-color="rgb(49.723816%, 7.077026%, 28.701782%)" offset="0.703125"/><stop stop-opacity="1" stop-color="rgb(49.729919%, 7.025146%, 28.355408%)" offset="0.707031"/><stop stop-opacity="1" stop-color="rgb(49.736023%, 6.973267%, 28.010559%)" offset="0.710937"/><stop stop-opacity="1" stop-color="rgb(49.742126%, 6.919861%, 27.664185%)" offset="0.714844"/><stop stop-opacity="1" stop-color="rgb(49.749756%, 6.867981%, 27.31781%)" offset="0.71875"/><stop stop-opacity="1" stop-color="rgb(49.755859%, 6.814575%, 26.971436%)" offset="0.722656"/><stop stop-opacity="1" stop-color="rgb(49.761963%, 6.762695%, 26.625061%)" offset="0.726562"/><stop stop-opacity="1" stop-color="rgb(49.768066%, 6.710815%, 26.278687%)" offset="0.730469"/><stop stop-opacity="1" stop-color="rgb(49.77417%, 6.658936%, 25.933838%)" offset="0.734375"/><stop stop-opacity="1" stop-color="rgb(49.780273%, 6.60553%, 25.587463%)" offset="0.738281"/><stop stop-opacity="1" stop-color="rgb(49.786377%, 6.55365%, 25.241089%)" offset="0.742187"/><stop stop-opacity="1" stop-color="rgb(49.79248%, 6.50177%, 24.894714%)" offset="0.746094"/><stop stop-opacity="1" stop-color="rgb(49.798584%, 6.44989%, 24.549866%)" offset="0.75"/><stop stop-opacity="1" stop-color="rgb(49.804688%, 6.396484%, 24.203491%)" offset="0.753906"/><stop stop-opacity="1" stop-color="rgb(49.812317%, 6.344604%, 23.857117%)" offset="0.757812"/><stop stop-opacity="1" stop-color="rgb(49.81842%, 6.291199%, 23.510742%)" offset="0.761719"/><stop stop-opacity="1" stop-color="rgb(49.824524%, 6.239319%, 23.164368%)" offset="0.765625"/><stop stop-opacity="1" stop-color="rgb(49.830627%, 6.187439%, 22.817993%)" offset="0.769531"/><stop stop-opacity="1" stop-color="rgb(49.836731%, 6.135559%, 22.473145%)" offset="0.773438"/><stop stop-opacity="1" stop-color="rgb(49.842834%, 6.082153%, 22.12677%)" offset="0.777344"/><stop stop-opacity="1" stop-color="rgb(49.848938%, 6.030273%, 21.780396%)" offset="0.78125"/><stop stop-opacity="1" stop-color="rgb(49.855042%, 5.978394%, 21.434021%)" offset="0.785156"/><stop stop-opacity="1" stop-color="rgb(49.861145%, 5.926514%, 21.087646%)" offset="0.789062"/><stop stop-opacity="1" stop-color="rgb(49.867249%, 5.873108%, 20.741272%)" offset="0.792969"/><stop stop-opacity="1" stop-color="rgb(49.874878%, 5.821228%, 20.396423%)" offset="0.796875"/><stop stop-opacity="1" stop-color="rgb(49.880981%, 5.767822%, 20.050049%)" offset="0.800781"/><stop stop-opacity="1" stop-color="rgb(49.887085%, 5.715942%, 19.703674%)" offset="0.804688"/><stop stop-opacity="1" stop-color="rgb(49.893188%, 5.664062%, 19.3573%)" offset="0.808594"/><stop stop-opacity="1" stop-color="rgb(49.899292%, 5.612183%, 19.012451%)" offset="0.8125"/><stop stop-opacity="1" stop-color="rgb(49.905396%, 5.558777%, 18.666077%)" offset="0.816406"/><stop stop-opacity="1" stop-color="rgb(49.911499%, 5.506897%, 18.319702%)" offset="0.820312"/><stop stop-opacity="1" stop-color="rgb(49.917603%, 5.453491%, 17.973328%)" offset="0.824219"/><stop stop-opacity="1" stop-color="rgb(49.923706%, 5.401611%, 17.626953%)" offset="0.828125"/><stop stop-opacity="1" stop-color="rgb(49.92981%, 5.349731%, 17.280579%)" offset="0.832031"/><stop stop-opacity="1" stop-color="rgb(49.937439%, 5.297852%, 16.93573%)" offset="0.835938"/><stop stop-opacity="1" stop-color="rgb(49.943542%, 5.244446%, 16.589355%)" offset="0.839844"/><stop stop-opacity="1" stop-color="rgb(49.949646%, 5.192566%, 16.242981%)" offset="0.84375"/><stop stop-opacity="1" stop-color="rgb(49.95575%, 5.140686%, 15.896606%)" offset="0.847656"/><stop stop-opacity="1" stop-color="rgb(49.961853%, 5.088806%, 15.550232%)" offset="0.851562"/><stop stop-opacity="1" stop-color="rgb(49.967957%, 5.0354%, 15.203857%)" offset="0.855469"/><stop stop-opacity="1" stop-color="rgb(49.97406%, 4.983521%, 14.859009%)" offset="0.859375"/><stop stop-opacity="1" stop-color="rgb(49.980164%, 4.930115%, 14.512634%)" offset="0.863281"/><stop stop-opacity="1" stop-color="rgb(49.986267%, 4.878235%, 14.16626%)" offset="0.867188"/><stop stop-opacity="1" stop-color="rgb(49.992371%, 4.826355%, 13.819885%)" offset="0.871094"/><stop stop-opacity="1" stop-color="rgb(49.998474%, 4.774475%, 13.473511%)" offset="0.875"/><stop stop-opacity="1" stop-color="rgb(50.004578%, 4.721069%, 13.127136%)" offset="0.878906"/><stop stop-opacity="1" stop-color="rgb(50.012207%, 4.669189%, 12.782288%)" offset="0.882812"/><stop stop-opacity="1" stop-color="rgb(50.018311%, 4.61731%, 12.435913%)" offset="0.886719"/><stop stop-opacity="1" stop-color="rgb(50.024414%, 4.56543%, 12.089539%)" offset="0.890625"/><stop stop-opacity="1" stop-color="rgb(50.030518%, 4.512024%, 11.743164%)" offset="0.894531"/><stop stop-opacity="1" stop-color="rgb(50.036621%, 4.460144%, 11.398315%)" offset="0.898438"/><stop stop-opacity="1" stop-color="rgb(50.042725%, 4.406738%, 11.051941%)" offset="0.902344"/><stop stop-opacity="1" stop-color="rgb(50.048828%, 4.354858%, 10.705566%)" offset="0.90625"/><stop stop-opacity="1" stop-color="rgb(50.054932%, 4.302979%, 10.359192%)" offset="0.910156"/><stop stop-opacity="1" stop-color="rgb(50.061035%, 4.251099%, 10.012817%)" offset="0.914062"/><stop stop-opacity="1" stop-color="rgb(50.067139%, 4.197693%, 9.666443%)" offset="0.917969"/><stop stop-opacity="1" stop-color="rgb(50.074768%, 4.145813%, 9.321594%)" offset="0.921875"/><stop stop-opacity="1" stop-color="rgb(50.080872%, 4.093933%, 8.97522%)" offset="0.925781"/><stop stop-opacity="1" stop-color="rgb(50.086975%, 4.042053%, 8.628845%)" offset="0.929688"/><stop stop-opacity="1" stop-color="rgb(50.093079%, 3.988647%, 8.282471%)" offset="0.933594"/><stop stop-opacity="1" stop-color="rgb(50.099182%, 3.936768%, 7.936096%)" offset="0.9375"/><stop stop-opacity="1" stop-color="rgb(50.105286%, 3.883362%, 7.589722%)" offset="0.941406"/><stop stop-opacity="1" stop-color="rgb(50.111389%, 3.831482%, 7.244873%)" offset="0.945312"/><stop stop-opacity="1" stop-color="rgb(50.117493%, 3.779602%, 6.898499%)" offset="0.949219"/><stop stop-opacity="1" stop-color="rgb(50.123596%, 3.727722%, 6.552124%)" offset="0.953125"/><stop stop-opacity="1" stop-color="rgb(50.1297%, 3.674316%, 6.20575%)" offset="0.957031"/><stop stop-opacity="1" stop-color="rgb(50.137329%, 3.622437%, 5.860901%)" offset="0.960938"/><stop stop-opacity="1" stop-color="rgb(50.143433%, 3.570557%, 5.514526%)" offset="0.964844"/><stop stop-opacity="1" stop-color="rgb(50.149536%, 3.518677%, 5.168152%)" offset="0.96875"/><stop stop-opacity="1" stop-color="rgb(50.15564%, 3.465271%, 4.821777%)" offset="0.972656"/><stop stop-opacity="1" stop-color="rgb(50.161743%, 3.413391%, 4.475403%)" offset="0.976562"/><stop stop-opacity="1" stop-color="rgb(50.167847%, 3.359985%, 4.129028%)" offset="0.980469"/><stop stop-opacity="1" stop-color="rgb(50.17395%, 3.308105%, 3.78418%)" offset="0.984375"/><stop stop-opacity="1" stop-color="rgb(50.180054%, 3.256226%, 3.437805%)" offset="0.988281"/><stop stop-opacity="1" stop-color="rgb(50.186157%, 3.204346%, 3.091431%)" offset="0.992188"/><stop stop-opacity="1" stop-color="rgb(50.192261%, 3.15094%, 2.745056%)" offset="0.996094"/><stop stop-opacity="1" stop-color="rgb(50.19989%, 3.09906%, 2.398682%)" offset="1"/></linearGradient><clipPath id="335aa27fbf"><path d="M 74.761719 74.761719 L 300.511719 74.761719 L 300.511719 300.511719 L 74.761719 300.511719 Z M 74.761719 74.761719 " clip-rule="nonzero"/></clipPath></defs><g clip-path="url(#7c15becbcc)"><rect x="-37.5" fill="url(#7310f89044)" width="450" y="-37.499999" height="449.999989"/></g><g clip-path="url(#335aa27fbf)"><path fill="#ffffff" d="M 232.175781 83.363281 C 245.84375 89.003906 257.886719 97.128906 268.015625 107.257812 C 278.148438 117.390625 286.269531 129.429688 291.910156 143.097656 C 297.453125 156.671875 300.511719 171.675781 300.511719 187.636719 C 300.511719 203.597656 297.453125 218.605469 291.910156 232.175781 C 286.269531 245.84375 278.148438 257.886719 268.015625 268.015625 C 257.886719 278.148438 245.84375 286.269531 232.175781 291.910156 C 218.605469 297.453125 203.597656 300.511719 187.636719 300.511719 C 171.675781 300.511719 156.671875 297.453125 143.097656 291.910156 C 129.429688 286.269531 117.390625 278.148438 107.257812 268.015625 C 97.128906 257.886719 89.003906 245.84375 83.363281 232.175781 C 77.820312 218.605469 74.761719 203.597656 74.761719 187.636719 C 74.761719 171.675781 77.820312 156.671875 83.363281 143.097656 C 89.003906 129.429688 97.128906 117.390625 107.257812 107.257812 C 117.390625 97.128906 129.429688 89.003906 143.097656 83.363281 C 156.671875 77.820312 171.675781 74.761719 187.636719 74.761719 C 203.597656 74.761719 218.605469 77.820312 232.175781 83.363281 Z M 229.5 285.125 C 242.117188 279.964844 253.488281 272.316406 262.949219 262.949219 C 272.316406 253.488281 279.964844 242.117188 285.125 229.5 C 290.382812 216.691406 293.25 202.644531 293.25 187.636719 C 293.25 172.632812 290.382812 158.582031 285.125 145.773438 C 279.964844 133.160156 272.316406 121.785156 262.949219 112.324219 C 253.488281 102.957031 242.117188 95.3125 229.5 90.148438 C 216.691406 84.894531 202.644531 82.027344 187.636719 82.027344 C 172.632812 82.027344 158.582031 84.894531 145.773438 90.148438 C 133.160156 95.3125 121.785156 102.957031 112.324219 112.324219 C 102.957031 121.785156 95.3125 133.160156 90.148438 145.773438 C 84.894531 158.582031 82.027344 172.632812 82.027344 187.636719 C 82.027344 202.644531 84.894531 216.691406 90.148438 229.5 C 95.3125 242.117188 102.957031 253.488281 112.324219 262.949219 C 121.785156 272.316406 133.160156 279.964844 145.773438 285.125 C 158.582031 290.382812 172.632812 293.25 187.636719 293.25 C 202.644531 293.25 216.691406 290.382812 229.5 285.125 Z M 229.5 285.125 " fill-opacity="1" fill-rule="evenodd"/></g><path fill="#ffffff" d="M 168.714844 141.953125 C 168.523438 141.953125 168.332031 142.046875 168.140625 142.144531 C 167.660156 142.335938 167.28125 142.621094 166.898438 142.90625 C 166.609375 143.289062 166.324219 143.671875 166.132812 144.148438 C 166.039062 144.339844 165.941406 144.53125 165.941406 144.722656 C 165.847656 144.914062 165.847656 145.011719 165.847656 145.203125 L 165.847656 148.929688 L 208.855469 148.929688 L 208.855469 145.203125 C 208.855469 145.011719 208.855469 144.914062 208.757812 144.722656 C 208.757812 144.53125 208.664062 144.339844 208.570312 144.148438 C 208.378906 143.769531 208.089844 143.289062 207.707031 143.003906 C 207.324219 142.621094 206.945312 142.335938 206.464844 142.144531 C 206.273438 142.046875 206.082031 141.953125 205.890625 141.953125 C 205.699219 141.855469 205.605469 141.855469 205.414062 141.855469 L 169.191406 141.855469 C 169 141.855469 168.90625 141.855469 168.714844 141.953125 Z M 158.582031 145.203125 C 158.582031 144.4375 158.679688 143.769531 158.867188 143.097656 C 158.964844 142.429688 159.25 141.761719 159.539062 141.09375 C 160.015625 139.847656 160.875 138.796875 161.832031 137.84375 C 162.789062 136.886719 163.839844 136.027344 165.082031 135.546875 C 165.75 135.261719 166.417969 134.976562 167.089844 134.878906 C 167.757812 134.6875 168.425781 134.59375 169.191406 134.59375 L 205.414062 134.59375 C 206.179688 134.59375 206.847656 134.6875 207.515625 134.878906 C 208.1875 134.976562 208.855469 135.261719 209.523438 135.546875 C 210.765625 136.027344 211.816406 136.886719 212.773438 137.84375 C 213.824219 138.703125 214.589844 139.847656 215.164062 141.09375 C 215.449219 141.664062 215.738281 142.335938 215.832031 143.003906 C 216.023438 143.769531 216.117188 144.4375 216.117188 145.203125 L 216.117188 148.929688 L 242.496094 148.929688 C 248.042969 148.929688 253.679688 154.472656 253.679688 160.015625 L 253.679688 170.050781 L 195.664062 189.070312 C 195.285156 188.878906 194.902344 188.785156 194.613281 188.6875 C 194.230469 188.59375 193.753906 188.59375 193.371094 188.59375 L 181.328125 188.59375 C 180.945312 188.59375 180.46875 188.59375 180.085938 188.6875 C 179.800781 188.785156 179.417969 188.878906 179.132812 188.976562 L 121.117188 170.050781 L 121.117188 160.015625 C 121.117188 154.472656 126.660156 148.929688 132.203125 148.929688 L 158.582031 148.929688 Z M 181.234375 193.46875 L 193.46875 193.46875 C 193.5625 193.46875 193.660156 193.46875 193.753906 193.46875 C 193.851562 193.5625 194.039062 193.660156 194.136719 193.851562 C 194.328125 193.945312 194.421875 194.136719 194.519531 194.230469 C 194.519531 194.328125 194.519531 194.328125 194.519531 194.421875 L 194.613281 194.519531 L 194.613281 198.628906 L 194.519531 198.722656 C 194.519531 198.820312 194.519531 198.914062 194.519531 198.914062 C 194.421875 199.105469 194.328125 199.296875 194.136719 199.394531 C 194.039062 199.585938 193.851562 199.679688 193.660156 199.773438 C 193.660156 199.773438 193.5625 199.773438 193.46875 199.773438 L 193.371094 199.871094 L 181.328125 199.871094 L 181.234375 199.773438 C 181.136719 199.773438 181.042969 199.773438 181.042969 199.773438 C 180.851562 199.679688 180.660156 199.585938 180.566406 199.394531 C 180.375 199.296875 180.277344 199.105469 180.183594 198.914062 C 180.183594 198.914062 180.183594 198.820312 180.183594 198.722656 L 180.183594 194.421875 C 180.183594 194.328125 180.183594 194.328125 180.183594 194.230469 C 180.277344 194.136719 180.375 193.945312 180.566406 193.851562 C 180.660156 193.660156 180.851562 193.5625 180.945312 193.46875 C 181.042969 193.46875 181.136719 193.46875 181.234375 193.46875 Z M 199.296875 193.277344 C 199.296875 193.179688 199.203125 193.085938 199.203125 192.988281 L 253.679688 175.117188 L 253.679688 225.390625 C 253.679688 230.933594 248.042969 236.570312 242.496094 236.570312 L 132.203125 236.570312 C 126.660156 236.570312 121.117188 230.933594 121.117188 225.390625 L 121.117188 175.117188 L 175.5 192.988281 C 175.5 193.085938 175.402344 193.179688 175.402344 193.277344 C 175.308594 193.660156 175.308594 194.136719 175.308594 194.519531 L 175.308594 198.628906 C 175.308594 199.011719 175.308594 199.488281 175.402344 199.871094 C 175.5 200.253906 175.59375 200.636719 175.785156 201.019531 C 176.074219 201.6875 176.550781 202.261719 177.125 202.832031 C 177.699219 203.40625 178.269531 203.886719 178.941406 204.171875 C 179.320312 204.363281 179.703125 204.457031 180.085938 204.554688 C 180.46875 204.648438 180.945312 204.746094 181.328125 204.746094 L 193.371094 204.746094 C 193.753906 204.746094 194.230469 204.648438 194.613281 204.554688 C 194.996094 204.457031 195.378906 204.363281 195.761719 204.171875 C 196.429688 203.886719 197.003906 203.40625 197.578125 202.832031 C 198.152344 202.261719 198.628906 201.6875 198.914062 201.019531 C 199.105469 200.636719 199.203125 200.253906 199.296875 199.871094 C 199.394531 199.488281 199.488281 199.011719 199.488281 198.628906 L 199.488281 194.519531 C 199.488281 194.136719 199.394531 193.660156 199.296875 193.277344 Z M 199.296875 193.277344 " fill-opacity="1" fill-rule="evenodd"/></svg>