<svg xmlns="http://www.w3.org/2000/svg" xmlns:xlink="http://www.w3.org/1999/xlink" width="500" zoomAndPan="magnify" viewBox="0 0 375 374.999991" height="500" preserveAspectRatio="xMidYMid meet" version="1.0"><defs><clipPath id="25e5e4bad3"><path d="M 11.367188 12 L 363.867188 12 L 363.867188 363.558594 L 11.367188 363.558594 Z M 11.367188 12 " clip-rule="nonzero"/></clipPath><clipPath id="287de01b8a"><path d="M 96 96.480469 L 279 96.480469 L 279 278.730469 L 96 278.730469 Z M 96 96.480469 " clip-rule="nonzero"/></clipPath></defs><g clip-path="url(#25e5e4bad3)"><path fill="#3d4b8d" d="M 327.527344 190.023438 C 327.582031 188.332031 328.863281 186.328125 330.378906 185.570312 L 361.089844 170.183594 C 362.601562 169.425781 363.621094 167.441406 363.351562 165.769531 L 356.273438 133.125 C 355.820312 131.496094 354.066406 130.074219 352.378906 129.960938 L 317.453125 127.703125 C 315.765625 127.59375 313.757812 126.269531 312.992188 124.761719 L 308.246094 116.027344 C 307.394531 114.5625 307.402344 112.175781 308.265625 110.722656 L 325.902344 80.976562 C 326.765625 79.519531 326.558594 77.289062 325.445312 76.015625 L 301.683594 51.777344 C 300.429688 50.636719 298.199219 50.375 296.71875 51.199219 L 266.332031 68.066406 C 264.851562 68.890625 262.460938 68.84375 261.011719 67.96875 L 252.800781 63.300781 C 251.308594 62.507812 250.035156 60.476562 249.976562 58.785156 L 248.722656 23.933594 C 248.664062 22.242188 247.289062 20.460938 245.671875 19.972656 L 212.757812 12.09375 C 211.09375 11.792969 209.078125 12.765625 208.277344 14.253906 L 191.933594 44.6875 C 191.132812 46.179688 189.777344 47.386719 188.925781 47.367188 L 188.144531 47.367188 C 183.402344 47.367188 177.160156 47.839844 177.160156 47.839844 C 175.476562 47.964844 173.304688 46.933594 172.339844 45.542969 L 152.363281 16.769531 C 151.398438 15.378906 149.277344 14.613281 147.644531 15.0625 L 116.207031 25.671875 C 114.640625 26.304688 113.464844 28.199219 113.597656 29.886719 L 116.277344 64.089844 C 116.410156 65.777344 115.355469 67.90625 113.933594 68.824219 L 103.9375 75.746094 C 102.582031 76.753906 100.191406 77.050781 98.628906 76.40625 L 66.261719 63 C 64.699219 62.351562 62.496094 62.851562 61.363281 64.109375 L 41.191406 89.132812 C 40.203125 90.503906 40.226562 92.730469 41.25 94.078125 L 61.890625 121.269531 C 62.914062 122.617188 63.167969 124.976562 62.460938 126.511719 L 56.847656 139.953125 C 56.253906 141.539062 54.40625 143.082031 52.742188 143.378906 L 18.402344 149.585938 C 16.738281 149.882812 15.160156 151.496094 14.890625 153.167969 C 14.890625 153.167969 11.53125 174.292969 11.53125 186.902344 L 11.53125 186.96875 C 11.535156 187.046875 12.835938 187.582031 14.421875 188.160156 L 46.46875 199.871094 C 48.058594 200.449219 49.550781 202.296875 49.789062 203.96875 L 52.792969 220.355469 C 53.167969 222.003906 52.460938 224.296875 51.226562 225.449219 L 25.84375 249.097656 C 24.609375 250.25 24.167969 252.453125 24.863281 253.992188 L 38.707031 280.84375 C 39.558594 282.304688 41.605469 283.195312 43.257812 282.824219 L 76.6875 275.308594 C 78.335938 274.9375 80.601562 275.671875 81.71875 276.941406 L 94.042969 289.757812 C 95.265625 290.929688 95.925781 293.222656 95.503906 294.863281 L 86.996094 328.234375 C 86.578125 329.871094 87.40625 331.953125 88.835938 332.859375 L 114.929688 347.570312 C 116.445312 348.324219 118.65625 347.957031 119.84375 346.753906 L 144.050781 322.207031 C 145.238281 321 147.542969 320.375 149.175781 320.816406 L 166.390625 324.640625 C 168.054688 324.941406 169.851562 326.496094 170.386719 328.101562 L 181.1875 360.546875 C 181.722656 362.152344 183.542969 363.503906 185.234375 363.554688 C 185.234375 363.554688 186.140625 363.578125 188.140625 363.578125 C 198.523438 363.578125 215.535156 361.355469 215.535156 361.355469 C 217.214844 361.132812 218.871094 359.601562 219.21875 357.945312 L 226.367188 323.957031 C 226.714844 322.300781 228.3125 320.507812 229.914062 319.96875 L 245.058594 314.226562 C 246.613281 313.5625 248.964844 313.886719 250.28125 314.949219 L 276.84375 336.355469 C 278.160156 337.417969 280.382812 337.507812 281.78125 336.558594 L 306.71875 317.640625 C 308.007812 316.546875 308.574219 314.363281 307.972656 312.78125 L 295.535156 280.109375 C 294.933594 278.53125 295.300781 276.148438 296.347656 274.824219 L 304.582031 263.597656 C 305.53125 262.199219 307.683594 261.203125 309.367188 261.382812 L 343.355469 265.03125 C 345.035156 265.210938 346.957031 264.089844 347.628906 262.535156 L 358.761719 232.082031 C 359.253906 230.464844 358.546875 228.316406 357.183594 227.3125 L 328.980469 206.492188 C 327.617188 205.484375 326.636719 203.285156 326.796875 201.601562 Z M 187.691406 290.523438 C 130.847656 290.523438 84.765625 244.425781 84.765625 187.5625 C 84.765625 130.699219 130.847656 84.601562 187.691406 84.601562 C 244.535156 84.601562 290.613281 130.695312 290.613281 187.5625 C 290.613281 244.425781 244.535156 290.523438 187.691406 290.523438 Z M 187.691406 290.523438 " fill-opacity="1" fill-rule="nonzero"/></g><g clip-path="url(#287de01b8a)"><path fill="#8c52ff" d="M 187.441406 96.480469 C 185.957031 96.480469 184.472656 96.519531 182.988281 96.589844 C 181.507812 96.664062 180.027344 96.773438 178.546875 96.917969 C 177.070312 97.066406 175.597656 97.246094 174.128906 97.464844 C 172.660156 97.683594 171.195312 97.9375 169.742188 98.226562 C 168.285156 98.519531 166.835938 98.84375 165.394531 99.207031 C 163.953125 99.566406 162.523438 99.964844 161.101562 100.394531 C 159.683594 100.828125 158.273438 101.292969 156.875 101.796875 C 155.476562 102.296875 154.089844 102.832031 152.71875 103.402344 C 151.347656 103.96875 149.988281 104.574219 148.648438 105.207031 C 147.304688 105.84375 145.980469 106.511719 144.667969 107.214844 C 143.359375 107.917969 142.066406 108.648438 140.792969 109.414062 C 139.519531 110.179688 138.265625 110.972656 137.03125 111.800781 C 135.796875 112.628906 134.582031 113.484375 133.390625 114.371094 C 132.199219 115.257812 131.027344 116.171875 129.878906 117.113281 C 128.730469 118.058594 127.609375 119.03125 126.507812 120.027344 C 125.40625 121.027344 124.332031 122.054688 123.28125 123.105469 C 122.230469 124.15625 121.207031 125.234375 120.210938 126.335938 C 119.214844 127.4375 118.242188 128.566406 117.300781 129.714844 C 116.359375 130.863281 115.445312 132.035156 114.5625 133.230469 C 113.675781 134.425781 112.824219 135.640625 111.996094 136.878906 C 111.171875 138.117188 110.378906 139.371094 109.613281 140.648438 C 108.851562 141.925781 108.121094 143.21875 107.417969 144.53125 C 106.71875 145.84375 106.050781 147.171875 105.417969 148.515625 C 104.78125 149.859375 104.179688 151.21875 103.613281 152.59375 C 103.042969 153.96875 102.511719 155.355469 102.007812 156.757812 C 101.507812 158.15625 101.042969 159.570312 100.613281 160.992188 C 100.179688 162.417969 99.785156 163.851562 99.425781 165.292969 C 99.0625 166.734375 98.738281 168.1875 98.449219 169.644531 C 98.160156 171.105469 97.90625 172.570312 97.6875 174.042969 C 97.46875 175.511719 97.289062 176.988281 97.140625 178.46875 C 96.996094 179.949219 96.886719 181.433594 96.816406 182.917969 C 96.742188 184.40625 96.707031 185.890625 96.707031 187.378906 C 96.707031 188.867188 96.742188 190.355469 96.816406 191.839844 C 96.886719 193.324219 96.996094 194.808594 97.140625 196.289062 C 97.289062 197.769531 97.46875 199.246094 97.6875 200.71875 C 97.90625 202.1875 98.160156 203.652344 98.449219 205.113281 C 98.738281 206.570312 99.0625 208.023438 99.425781 209.464844 C 99.785156 210.910156 100.179688 212.34375 100.613281 213.765625 C 101.042969 215.1875 101.507812 216.601562 102.007812 218.003906 C 102.511719 219.402344 103.042969 220.789062 103.613281 222.164062 C 104.179688 223.539062 104.78125 224.898438 105.417969 226.242188 C 106.050781 227.589844 106.71875 228.917969 107.417969 230.226562 C 108.121094 231.539062 108.851562 232.835938 109.613281 234.109375 C 110.378906 235.386719 111.171875 236.644531 111.996094 237.878906 C 112.824219 239.117188 113.675781 240.332031 114.5625 241.527344 C 115.445312 242.722656 116.359375 243.894531 117.300781 245.042969 C 118.242188 246.195312 119.214844 247.320312 120.210938 248.421875 C 121.207031 249.523438 122.230469 250.601562 123.28125 251.652344 C 124.332031 252.707031 125.40625 253.730469 126.507812 254.730469 C 127.609375 255.730469 128.730469 256.699219 129.878906 257.644531 C 131.027344 258.589844 132.199219 259.503906 133.390625 260.390625 C 134.582031 261.277344 135.796875 262.132812 137.03125 262.957031 C 138.265625 263.785156 139.519531 264.582031 140.792969 265.34375 C 142.066406 266.109375 143.359375 266.84375 144.667969 267.542969 C 145.980469 268.246094 147.304688 268.914062 148.648438 269.550781 C 149.988281 270.1875 151.347656 270.789062 152.71875 271.359375 C 154.089844 271.925781 155.476562 272.460938 156.875 272.964844 C 158.273438 273.464844 159.683594 273.929688 161.101562 274.363281 C 162.523438 274.796875 163.953125 275.191406 165.394531 275.554688 C 166.835938 275.914062 168.285156 276.242188 169.742188 276.53125 C 171.195312 276.820312 172.660156 277.074219 174.128906 277.292969 C 175.597656 277.511719 177.070312 277.695312 178.546875 277.839844 C 180.027344 277.984375 181.507812 278.09375 182.988281 278.167969 C 184.472656 278.242188 185.957031 278.277344 187.441406 278.277344 C 188.925781 278.277344 190.410156 278.242188 191.894531 278.167969 C 193.378906 278.09375 194.859375 277.984375 196.335938 277.839844 C 197.8125 277.695312 199.289062 277.511719 200.757812 277.292969 C 202.226562 277.074219 203.6875 276.820312 205.144531 276.53125 C 206.601562 276.242188 208.050781 275.914062 209.488281 275.554688 C 210.929688 275.191406 212.359375 274.796875 213.78125 274.363281 C 215.203125 273.929688 216.613281 273.464844 218.011719 272.964844 C 219.410156 272.460938 220.792969 271.925781 222.164062 271.359375 C 223.539062 270.789062 224.894531 270.1875 226.238281 269.550781 C 227.578125 268.914062 228.90625 268.246094 230.214844 267.542969 C 231.523438 266.84375 232.816406 266.109375 234.089844 265.34375 C 235.363281 264.582031 236.617188 263.785156 237.851562 262.957031 C 239.085938 262.132812 240.300781 261.277344 241.492188 260.390625 C 242.6875 259.503906 243.855469 258.589844 245.003906 257.644531 C 246.152344 256.699219 247.277344 255.730469 248.378906 254.730469 C 249.476562 253.730469 250.554688 252.707031 251.601562 251.652344 C 252.652344 250.601562 253.675781 249.523438 254.671875 248.421875 C 255.671875 247.320312 256.640625 246.195312 257.582031 245.042969 C 258.523438 243.894531 259.4375 242.722656 260.324219 241.527344 C 261.207031 240.332031 262.0625 239.117188 262.886719 237.878906 C 263.710938 236.644531 264.507812 235.386719 265.269531 234.109375 C 266.03125 232.835938 266.765625 231.539062 267.464844 230.226562 C 268.164062 228.917969 268.832031 227.589844 269.46875 226.242188 C 270.101562 224.898438 270.703125 223.539062 271.273438 222.164062 C 271.839844 220.789062 272.375 219.402344 272.875 218.003906 C 273.375 216.601562 273.839844 215.1875 274.273438 213.765625 C 274.703125 212.34375 275.097656 210.910156 275.460938 209.464844 C 275.820312 208.023438 276.144531 206.570312 276.433594 205.113281 C 276.726562 203.652344 276.980469 202.1875 277.195312 200.71875 C 277.414062 199.246094 277.597656 197.769531 277.742188 196.289062 C 277.886719 194.808594 277.996094 193.324219 278.070312 191.839844 C 278.140625 190.355469 278.179688 188.867188 278.179688 187.378906 C 278.179688 185.890625 278.140625 184.40625 278.070312 182.917969 C 277.996094 181.433594 277.886719 179.949219 277.742188 178.46875 C 277.597656 176.988281 277.414062 175.511719 277.195312 174.042969 C 276.980469 172.570312 276.726562 171.105469 276.433594 169.644531 C 276.144531 168.1875 275.820312 166.734375 275.460938 165.292969 C 275.097656 163.851562 274.703125 162.417969 274.273438 160.992188 C 273.839844 159.570312 273.375 158.15625 272.875 156.757812 C 272.375 155.355469 271.839844 153.96875 271.273438 152.59375 C 270.703125 151.21875 270.101562 149.859375 269.46875 148.515625 C 268.832031 147.171875 268.164062 145.84375 267.464844 144.53125 C 266.765625 143.21875 266.03125 141.925781 265.269531 140.648438 C 264.507812 139.371094 263.710938 138.117188 262.886719 136.878906 C 262.0625 135.640625 261.207031 134.425781 260.324219 133.230469 C 259.4375 132.035156 258.523438 130.863281 257.582031 129.714844 C 256.640625 128.566406 255.671875 127.4375 254.671875 126.335938 C 253.675781 125.234375 252.652344 124.15625 251.601562 123.105469 C 250.554688 122.054688 249.476562 121.027344 248.378906 120.027344 C 247.277344 119.03125 246.152344 118.058594 245.003906 117.113281 C 243.855469 116.171875 242.6875 115.257812 241.492188 114.371094 C 240.300781 113.484375 239.085938 112.628906 237.851562 111.800781 C 236.617188 110.972656 235.363281 110.179688 234.089844 109.414062 C 232.816406 108.648438 231.523438 107.917969 230.214844 107.214844 C 228.90625 106.511719 227.578125 105.84375 226.238281 105.207031 C 224.894531 104.574219 223.539062 103.96875 222.164062 103.402344 C 220.792969 102.832031 219.410156 102.296875 218.011719 101.796875 C 216.613281 101.292969 215.203125 100.828125 213.78125 100.394531 C 212.359375 99.964844 210.929688 99.566406 209.488281 99.207031 C 208.050781 98.84375 206.601562 98.519531 205.144531 98.226562 C 203.6875 97.9375 202.226562 97.683594 200.757812 97.464844 C 199.289062 97.246094 197.8125 97.066406 196.335938 96.917969 C 194.859375 96.773438 193.378906 96.664062 191.894531 96.589844 C 190.410156 96.519531 188.925781 96.480469 187.441406 96.480469 Z M 187.441406 96.480469 " fill-opacity="1" fill-rule="nonzero"/></g><path fill="#ffffff" d="M 142.113281 160.207031 L 246.460938 160.207031 L 246.460938 169.296875 L 142.113281 169.296875 Z M 142.113281 178.386719 L 246.460938 178.386719 L 246.460938 187.476562 L 142.113281 187.476562 Z M 142.113281 178.386719 " fill-opacity="1" fill-rule="nonzero"/><path fill="#ffffff" d="M 155.683594 137.386719 L 173.832031 137.386719 L 173.832031 241.917969 L 155.683594 241.917969 Z M 155.683594 137.386719 " fill-opacity="1" fill-rule="nonzero"/><path fill="#ffffff" d="M 193.207031 212.566406 L 164.757812 212.566406 L 164.757812 196.660156 L 193.207031 196.660156 C 201.488281 196.660156 208.992188 192.621094 212.792969 186.125 C 215.09375 182.183594 216.136719 177.78125 215.820312 173.375 C 215.578125 170.128906 214.617188 167.003906 212.949219 164.097656 C 209.191406 157.550781 201.667969 153.480469 193.320312 153.480469 L 164.757812 153.480469 L 164.757812 137.570312 L 193.320312 137.570312 C 207.335938 137.570312 220.128906 144.699219 226.714844 156.164062 C 229.585938 161.164062 231.246094 166.5625 231.652344 172.21875 C 232.210938 179.839844 230.425781 187.425781 226.496094 194.15625 C 219.863281 205.511719 207.105469 212.566406 193.207031 212.566406 Z M 193.207031 212.566406 " fill-opacity="1" fill-rule="nonzero"/></svg>