<svg xmlns="http://www.w3.org/2000/svg" xmlns:xlink="http://www.w3.org/1999/xlink" width="500" zoomAndPan="magnify" viewBox="0 0 375 374.999991" height="500" preserveAspectRatio="xMidYMid meet" version="1.0"><defs><g/><linearGradient x1="1" gradientTransform="matrix(374.999991, 0, 0, 374.999991, 0.0000045, 0)" y1="0.5" x2="0" gradientUnits="userSpaceOnUse" y2="0.5" id="f8b4fd0563"><stop stop-opacity="1" stop-color="rgb(50.19989%, 3.09906%, 2.398682%)" offset="0"/><stop stop-opacity="1" stop-color="rgb(50.192261%, 3.15094%, 2.745056%)" offset="0.00390625"/><stop stop-opacity="1" stop-color="rgb(50.186157%, 3.204346%, 3.091431%)" offset="0.0078125"/><stop stop-opacity="1" stop-color="rgb(50.180054%, 3.256226%, 3.437805%)" offset="0.0117188"/><stop stop-opacity="1" stop-color="rgb(50.17395%, 3.308105%, 3.78418%)" offset="0.015625"/><stop stop-opacity="1" stop-color="rgb(50.167847%, 3.359985%, 4.129028%)" offset="0.0195313"/><stop stop-opacity="1" stop-color="rgb(50.161743%, 3.413391%, 4.475403%)" offset="0.0234375"/><stop stop-opacity="1" stop-color="rgb(50.15564%, 3.465271%, 4.821777%)" offset="0.0273438"/><stop stop-opacity="1" stop-color="rgb(50.149536%, 3.518677%, 5.168152%)" offset="0.03125"/><stop stop-opacity="1" stop-color="rgb(50.143433%, 3.570557%, 5.514526%)" offset="0.0351562"/><stop stop-opacity="1" stop-color="rgb(50.137329%, 3.622437%, 5.860901%)" offset="0.0390625"/><stop stop-opacity="1" stop-color="rgb(50.1297%, 3.674316%, 6.20575%)" offset="0.0429688"/><stop stop-opacity="1" stop-color="rgb(50.123596%, 3.727722%, 6.552124%)" offset="0.046875"/><stop stop-opacity="1" stop-color="rgb(50.117493%, 3.779602%, 6.898499%)" offset="0.0507812"/><stop stop-opacity="1" stop-color="rgb(50.111389%, 3.831482%, 7.244873%)" offset="0.0546875"/><stop stop-opacity="1" stop-color="rgb(50.105286%, 3.883362%, 7.589722%)" offset="0.0585938"/><stop stop-opacity="1" stop-color="rgb(50.099182%, 3.936768%, 7.936096%)" offset="0.0625"/><stop stop-opacity="1" stop-color="rgb(50.093079%, 3.988647%, 8.282471%)" offset="0.0664062"/><stop stop-opacity="1" stop-color="rgb(50.086975%, 4.042053%, 8.628845%)" offset="0.0703125"/><stop stop-opacity="1" stop-color="rgb(50.080872%, 4.093933%, 8.97522%)" offset="0.0742188"/><stop stop-opacity="1" stop-color="rgb(50.074768%, 4.145813%, 9.321594%)" offset="0.078125"/><stop stop-opacity="1" stop-color="rgb(50.067139%, 4.197693%, 9.666443%)" offset="0.0820312"/><stop stop-opacity="1" stop-color="rgb(50.061035%, 4.251099%, 10.012817%)" offset="0.0859375"/><stop stop-opacity="1" stop-color="rgb(50.054932%, 4.302979%, 10.359192%)" offset="0.0898438"/><stop stop-opacity="1" stop-color="rgb(50.048828%, 4.354858%, 10.705566%)" offset="0.09375"/><stop stop-opacity="1" stop-color="rgb(50.042725%, 4.406738%, 11.051941%)" offset="0.0976562"/><stop stop-opacity="1" stop-color="rgb(50.036621%, 4.460144%, 11.398315%)" offset="0.101562"/><stop stop-opacity="1" stop-color="rgb(50.030518%, 4.512024%, 11.743164%)" offset="0.105469"/><stop stop-opacity="1" stop-color="rgb(50.024414%, 4.56543%, 12.089539%)" offset="0.109375"/><stop stop-opacity="1" stop-color="rgb(50.018311%, 4.61731%, 12.435913%)" offset="0.113281"/><stop stop-opacity="1" stop-color="rgb(50.012207%, 4.669189%, 12.782288%)" offset="0.117188"/><stop stop-opacity="1" stop-color="rgb(50.004578%, 4.721069%, 13.127136%)" offset="0.121094"/><stop stop-opacity="1" stop-color="rgb(49.998474%, 4.774475%, 13.473511%)" offset="0.125"/><stop stop-opacity="1" stop-color="rgb(49.992371%, 4.826355%, 13.819885%)" offset="0.128906"/><stop stop-opacity="1" stop-color="rgb(49.986267%, 4.878235%, 14.16626%)" offset="0.132812"/><stop stop-opacity="1" stop-color="rgb(49.980164%, 4.930115%, 14.512634%)" offset="0.136719"/><stop stop-opacity="1" stop-color="rgb(49.97406%, 4.983521%, 14.859009%)" offset="0.140625"/><stop stop-opacity="1" stop-color="rgb(49.967957%, 5.0354%, 15.203857%)" offset="0.144531"/><stop stop-opacity="1" stop-color="rgb(49.961853%, 5.088806%, 15.550232%)" offset="0.148438"/><stop stop-opacity="1" stop-color="rgb(49.95575%, 5.140686%, 15.896606%)" offset="0.152344"/><stop stop-opacity="1" stop-color="rgb(49.949646%, 5.192566%, 16.242981%)" offset="0.15625"/><stop stop-opacity="1" stop-color="rgb(49.943542%, 5.244446%, 16.589355%)" offset="0.160156"/><stop stop-opacity="1" stop-color="rgb(49.937439%, 5.297852%, 16.93573%)" offset="0.164062"/><stop stop-opacity="1" stop-color="rgb(49.92981%, 5.349731%, 17.280579%)" offset="0.167969"/><stop stop-opacity="1" stop-color="rgb(49.923706%, 5.401611%, 17.626953%)" offset="0.171875"/><stop stop-opacity="1" stop-color="rgb(49.917603%, 5.453491%, 17.973328%)" offset="0.175781"/><stop stop-opacity="1" stop-color="rgb(49.911499%, 5.506897%, 18.319702%)" offset="0.179688"/><stop stop-opacity="1" stop-color="rgb(49.905396%, 5.558777%, 18.666077%)" offset="0.183594"/><stop stop-opacity="1" stop-color="rgb(49.899292%, 5.612183%, 19.012451%)" offset="0.1875"/><stop stop-opacity="1" stop-color="rgb(49.893188%, 5.664062%, 19.3573%)" offset="0.191406"/><stop stop-opacity="1" stop-color="rgb(49.887085%, 5.715942%, 19.703674%)" offset="0.195312"/><stop stop-opacity="1" stop-color="rgb(49.880981%, 5.767822%, 20.050049%)" offset="0.199219"/><stop stop-opacity="1" stop-color="rgb(49.874878%, 5.821228%, 20.396423%)" offset="0.203125"/><stop stop-opacity="1" stop-color="rgb(49.867249%, 5.873108%, 20.741272%)" offset="0.207031"/><stop stop-opacity="1" stop-color="rgb(49.861145%, 5.926514%, 21.087646%)" offset="0.210938"/><stop stop-opacity="1" stop-color="rgb(49.855042%, 5.978394%, 21.434021%)" offset="0.214844"/><stop stop-opacity="1" stop-color="rgb(49.848938%, 6.030273%, 21.780396%)" offset="0.21875"/><stop stop-opacity="1" stop-color="rgb(49.842834%, 6.082153%, 22.12677%)" offset="0.222656"/><stop stop-opacity="1" stop-color="rgb(49.836731%, 6.135559%, 22.473145%)" offset="0.226562"/><stop stop-opacity="1" stop-color="rgb(49.830627%, 6.187439%, 22.817993%)" offset="0.230469"/><stop stop-opacity="1" stop-color="rgb(49.824524%, 6.239319%, 23.164368%)" offset="0.234375"/><stop stop-opacity="1" stop-color="rgb(49.81842%, 6.291199%, 23.510742%)" offset="0.238281"/><stop stop-opacity="1" stop-color="rgb(49.812317%, 6.344604%, 23.857117%)" offset="0.242188"/><stop stop-opacity="1" stop-color="rgb(49.804688%, 6.396484%, 24.203491%)" offset="0.246094"/><stop stop-opacity="1" stop-color="rgb(49.798584%, 6.44989%, 24.549866%)" offset="0.25"/><stop stop-opacity="1" stop-color="rgb(49.79248%, 6.50177%, 24.894714%)" offset="0.253906"/><stop stop-opacity="1" stop-color="rgb(49.786377%, 6.55365%, 25.241089%)" offset="0.257812"/><stop stop-opacity="1" stop-color="rgb(49.780273%, 6.60553%, 25.587463%)" offset="0.261719"/><stop stop-opacity="1" stop-color="rgb(49.77417%, 6.658936%, 25.933838%)" offset="0.265625"/><stop stop-opacity="1" stop-color="rgb(49.768066%, 6.710815%, 26.278687%)" offset="0.269531"/><stop stop-opacity="1" stop-color="rgb(49.761963%, 6.762695%, 26.625061%)" offset="0.273438"/><stop stop-opacity="1" stop-color="rgb(49.755859%, 6.814575%, 26.971436%)" offset="0.277344"/><stop stop-opacity="1" stop-color="rgb(49.749756%, 6.867981%, 27.31781%)" offset="0.28125"/><stop stop-opacity="1" stop-color="rgb(49.742126%, 6.919861%, 27.664185%)" offset="0.285156"/><stop stop-opacity="1" stop-color="rgb(49.736023%, 6.973267%, 28.010559%)" offset="0.289063"/><stop stop-opacity="1" stop-color="rgb(49.729919%, 7.025146%, 28.355408%)" offset="0.292969"/><stop stop-opacity="1" stop-color="rgb(49.723816%, 7.077026%, 28.701782%)" offset="0.296875"/><stop stop-opacity="1" stop-color="rgb(49.717712%, 7.128906%, 29.048157%)" offset="0.300781"/><stop stop-opacity="1" stop-color="rgb(49.711609%, 7.182312%, 29.394531%)" offset="0.304688"/><stop stop-opacity="1" stop-color="rgb(49.705505%, 7.234192%, 29.740906%)" offset="0.308594"/><stop stop-opacity="1" stop-color="rgb(49.699402%, 7.286072%, 30.08728%)" offset="0.3125"/><stop stop-opacity="1" stop-color="rgb(49.693298%, 7.337952%, 30.432129%)" offset="0.316406"/><stop stop-opacity="1" stop-color="rgb(49.687195%, 7.391357%, 30.778503%)" offset="0.320312"/><stop stop-opacity="1" stop-color="rgb(49.681091%, 7.443237%, 31.124878%)" offset="0.324219"/><stop stop-opacity="1" stop-color="rgb(49.674988%, 7.496643%, 31.471252%)" offset="0.328125"/><stop stop-opacity="1" stop-color="rgb(49.667358%, 7.548523%, 31.817627%)" offset="0.332031"/><stop stop-opacity="1" stop-color="rgb(49.661255%, 7.600403%, 32.164001%)" offset="0.335938"/><stop stop-opacity="1" stop-color="rgb(49.655151%, 7.652283%, 32.50885%)" offset="0.339844"/><stop stop-opacity="1" stop-color="rgb(49.649048%, 7.705688%, 32.855225%)" offset="0.34375"/><stop stop-opacity="1" stop-color="rgb(49.642944%, 7.757568%, 33.201599%)" offset="0.347656"/><stop stop-opacity="1" stop-color="rgb(49.636841%, 7.809448%, 33.547974%)" offset="0.351562"/><stop stop-opacity="1" stop-color="rgb(49.630737%, 7.861328%, 33.892822%)" offset="0.355469"/><stop stop-opacity="1" stop-color="rgb(49.624634%, 7.914734%, 34.239197%)" offset="0.359375"/><stop stop-opacity="1" stop-color="rgb(49.61853%, 7.966614%, 34.585571%)" offset="0.363281"/><stop stop-opacity="1" stop-color="rgb(49.612427%, 8.02002%, 34.931946%)" offset="0.367188"/><stop stop-opacity="1" stop-color="rgb(49.604797%, 8.071899%, 35.27832%)" offset="0.371094"/><stop stop-opacity="1" stop-color="rgb(49.598694%, 8.123779%, 35.624695%)" offset="0.375"/><stop stop-opacity="1" stop-color="rgb(49.59259%, 8.175659%, 35.969543%)" offset="0.378906"/><stop stop-opacity="1" stop-color="rgb(49.586487%, 8.229065%, 36.315918%)" offset="0.382812"/><stop stop-opacity="1" stop-color="rgb(49.580383%, 8.280945%, 36.662292%)" offset="0.386719"/><stop stop-opacity="1" stop-color="rgb(49.57428%, 8.334351%, 37.008667%)" offset="0.390625"/><stop stop-opacity="1" stop-color="rgb(49.568176%, 8.38623%, 37.355042%)" offset="0.394531"/><stop stop-opacity="1" stop-color="rgb(49.562073%, 8.43811%, 37.701416%)" offset="0.398438"/><stop stop-opacity="1" stop-color="rgb(49.555969%, 8.48999%, 38.046265%)" offset="0.402344"/><stop stop-opacity="1" stop-color="rgb(49.549866%, 8.543396%, 38.392639%)" offset="0.40625"/><stop stop-opacity="1" stop-color="rgb(49.542236%, 8.595276%, 38.739014%)" offset="0.410156"/><stop stop-opacity="1" stop-color="rgb(49.536133%, 8.647156%, 39.085388%)" offset="0.414062"/><stop stop-opacity="1" stop-color="rgb(49.530029%, 8.699036%, 39.430237%)" offset="0.417969"/><stop stop-opacity="1" stop-color="rgb(49.523926%, 8.752441%, 39.776611%)" offset="0.421875"/><stop stop-opacity="1" stop-color="rgb(49.517822%, 8.804321%, 40.122986%)" offset="0.425781"/><stop stop-opacity="1" stop-color="rgb(49.511719%, 8.857727%, 40.46936%)" offset="0.429688"/><stop stop-opacity="1" stop-color="rgb(49.505615%, 8.909607%, 40.815735%)" offset="0.433594"/><stop stop-opacity="1" stop-color="rgb(49.499512%, 8.961487%, 41.162109%)" offset="0.4375"/><stop stop-opacity="1" stop-color="rgb(49.493408%, 9.013367%, 41.506958%)" offset="0.441406"/><stop stop-opacity="1" stop-color="rgb(49.487305%, 9.066772%, 41.853333%)" offset="0.445312"/><stop stop-opacity="1" stop-color="rgb(49.479675%, 9.118652%, 42.199707%)" offset="0.449219"/><stop stop-opacity="1" stop-color="rgb(49.473572%, 9.170532%, 42.546082%)" offset="0.453125"/><stop stop-opacity="1" stop-color="rgb(49.467468%, 9.222412%, 42.892456%)" offset="0.457031"/><stop stop-opacity="1" stop-color="rgb(49.461365%, 9.275818%, 43.238831%)" offset="0.460938"/><stop stop-opacity="1" stop-color="rgb(49.455261%, 9.327698%, 43.583679%)" offset="0.464844"/><stop stop-opacity="1" stop-color="rgb(49.449158%, 9.381104%, 43.930054%)" offset="0.46875"/><stop stop-opacity="1" stop-color="rgb(49.443054%, 9.432983%, 44.276428%)" offset="0.472656"/><stop stop-opacity="1" stop-color="rgb(49.436951%, 9.484863%, 44.622803%)" offset="0.476562"/><stop stop-opacity="1" stop-color="rgb(49.430847%, 9.536743%, 44.969177%)" offset="0.480469"/><stop stop-opacity="1" stop-color="rgb(49.424744%, 9.590149%, 45.315552%)" offset="0.484375"/><stop stop-opacity="1" stop-color="rgb(49.417114%, 9.642029%, 45.6604%)" offset="0.488281"/><stop stop-opacity="1" stop-color="rgb(49.411011%, 9.693909%, 46.006775%)" offset="0.492188"/><stop stop-opacity="1" stop-color="rgb(49.404907%, 9.745789%, 46.353149%)" offset="0.496094"/><stop stop-opacity="1" stop-color="rgb(49.398804%, 9.799194%, 46.699524%)" offset="0.5"/><stop stop-opacity="1" stop-color="rgb(49.3927%, 9.851074%, 47.044373%)" offset="0.503906"/><stop stop-opacity="1" stop-color="rgb(49.386597%, 9.90448%, 47.390747%)" offset="0.507812"/><stop stop-opacity="1" stop-color="rgb(49.380493%, 9.95636%, 47.737122%)" offset="0.511719"/><stop stop-opacity="1" stop-color="rgb(49.37439%, 10.00824%, 48.083496%)" offset="0.515625"/><stop stop-opacity="1" stop-color="rgb(49.368286%, 10.06012%, 48.429871%)" offset="0.519531"/><stop stop-opacity="1" stop-color="rgb(49.362183%, 10.113525%, 48.776245%)" offset="0.523438"/><stop stop-opacity="1" stop-color="rgb(49.356079%, 10.165405%, 49.121094%)" offset="0.527344"/><stop stop-opacity="1" stop-color="rgb(49.349976%, 10.217285%, 49.467468%)" offset="0.53125"/><stop stop-opacity="1" stop-color="rgb(49.342346%, 10.269165%, 49.813843%)" offset="0.535156"/><stop stop-opacity="1" stop-color="rgb(49.336243%, 10.322571%, 50.160217%)" offset="0.539062"/><stop stop-opacity="1" stop-color="rgb(49.330139%, 10.374451%, 50.506592%)" offset="0.542969"/><stop stop-opacity="1" stop-color="rgb(49.324036%, 10.427856%, 50.852966%)" offset="0.546875"/><stop stop-opacity="1" stop-color="rgb(49.317932%, 10.479736%, 51.197815%)" offset="0.550781"/><stop stop-opacity="1" stop-color="rgb(49.311829%, 10.531616%, 51.544189%)" offset="0.554688"/><stop stop-opacity="1" stop-color="rgb(49.305725%, 10.583496%, 51.890564%)" offset="0.558594"/><stop stop-opacity="1" stop-color="rgb(49.299622%, 10.636902%, 52.236938%)" offset="0.5625"/><stop stop-opacity="1" stop-color="rgb(49.293518%, 10.688782%, 52.583313%)" offset="0.566406"/><stop stop-opacity="1" stop-color="rgb(49.287415%, 10.742188%, 52.929688%)" offset="0.570312"/><stop stop-opacity="1" stop-color="rgb(49.279785%, 10.794067%, 53.274536%)" offset="0.574219"/><stop stop-opacity="1" stop-color="rgb(49.273682%, 10.845947%, 53.620911%)" offset="0.578125"/><stop stop-opacity="1" stop-color="rgb(49.267578%, 10.897827%, 53.967285%)" offset="0.582031"/><stop stop-opacity="1" stop-color="rgb(49.261475%, 10.951233%, 54.31366%)" offset="0.585938"/><stop stop-opacity="1" stop-color="rgb(49.255371%, 11.003113%, 54.658508%)" offset="0.589844"/><stop stop-opacity="1" stop-color="rgb(49.249268%, 11.054993%, 55.004883%)" offset="0.59375"/><stop stop-opacity="1" stop-color="rgb(49.243164%, 11.106873%, 55.351257%)" offset="0.597656"/><stop stop-opacity="1" stop-color="rgb(49.237061%, 11.160278%, 55.697632%)" offset="0.601563"/><stop stop-opacity="1" stop-color="rgb(49.230957%, 11.212158%, 56.044006%)" offset="0.605469"/><stop stop-opacity="1" stop-color="rgb(49.224854%, 11.265564%, 56.390381%)" offset="0.609375"/><stop stop-opacity="1" stop-color="rgb(49.217224%, 11.317444%, 56.735229%)" offset="0.613281"/><stop stop-opacity="1" stop-color="rgb(49.211121%, 11.369324%, 57.081604%)" offset="0.617188"/><stop stop-opacity="1" stop-color="rgb(49.205017%, 11.421204%, 57.427979%)" offset="0.621094"/><stop stop-opacity="1" stop-color="rgb(49.198914%, 11.474609%, 57.774353%)" offset="0.625"/><stop stop-opacity="1" stop-color="rgb(49.19281%, 11.526489%, 58.120728%)" offset="0.628906"/><stop stop-opacity="1" stop-color="rgb(49.186707%, 11.578369%, 58.467102%)" offset="0.632812"/><stop stop-opacity="1" stop-color="rgb(49.180603%, 11.630249%, 58.811951%)" offset="0.636719"/><stop stop-opacity="1" stop-color="rgb(49.1745%, 11.683655%, 59.158325%)" offset="0.640625"/><stop stop-opacity="1" stop-color="rgb(49.168396%, 11.735535%, 59.5047%)" offset="0.644531"/><stop stop-opacity="1" stop-color="rgb(49.162292%, 11.78894%, 59.851074%)" offset="0.648438"/><stop stop-opacity="1" stop-color="rgb(49.154663%, 11.84082%, 60.195923%)" offset="0.652344"/><stop stop-opacity="1" stop-color="rgb(49.14856%, 11.8927%, 60.542297%)" offset="0.65625"/><stop stop-opacity="1" stop-color="rgb(49.142456%, 11.94458%, 60.888672%)" offset="0.660156"/><stop stop-opacity="1" stop-color="rgb(49.136353%, 11.997986%, 61.235046%)" offset="0.664063"/><stop stop-opacity="1" stop-color="rgb(49.130249%, 12.049866%, 61.581421%)" offset="0.667969"/><stop stop-opacity="1" stop-color="rgb(49.124146%, 12.101746%, 61.927795%)" offset="0.671875"/><stop stop-opacity="1" stop-color="rgb(49.118042%, 12.153625%, 62.272644%)" offset="0.675781"/><stop stop-opacity="1" stop-color="rgb(49.111938%, 12.207031%, 62.619019%)" offset="0.679688"/><stop stop-opacity="1" stop-color="rgb(49.105835%, 12.258911%, 62.965393%)" offset="0.683594"/><stop stop-opacity="1" stop-color="rgb(49.099731%, 12.312317%, 63.311768%)" offset="0.6875"/><stop stop-opacity="1" stop-color="rgb(49.092102%, 12.364197%, 63.658142%)" offset="0.691406"/><stop stop-opacity="1" stop-color="rgb(49.085999%, 12.416077%, 64.004517%)" offset="0.695313"/><stop stop-opacity="1" stop-color="rgb(49.079895%, 12.467957%, 64.349365%)" offset="0.699219"/><stop stop-opacity="1" stop-color="rgb(49.073792%, 12.521362%, 64.69574%)" offset="0.703125"/><stop stop-opacity="1" stop-color="rgb(49.067688%, 12.573242%, 65.042114%)" offset="0.707031"/><stop stop-opacity="1" stop-color="rgb(49.061584%, 12.625122%, 65.388489%)" offset="0.710938"/><stop stop-opacity="1" stop-color="rgb(49.055481%, 12.677002%, 65.734863%)" offset="0.714844"/><stop stop-opacity="1" stop-color="rgb(49.049377%, 12.730408%, 66.081238%)" offset="0.71875"/><stop stop-opacity="1" stop-color="rgb(49.043274%, 12.782288%, 66.426086%)" offset="0.722656"/><stop stop-opacity="1" stop-color="rgb(49.03717%, 12.835693%, 66.772461%)" offset="0.726562"/><stop stop-opacity="1" stop-color="rgb(49.031067%, 12.887573%, 67.118835%)" offset="0.730469"/><stop stop-opacity="1" stop-color="rgb(49.024963%, 12.939453%, 67.46521%)" offset="0.734375"/><stop stop-opacity="1" stop-color="rgb(49.017334%, 12.991333%, 67.810059%)" offset="0.738281"/><stop stop-opacity="1" stop-color="rgb(49.01123%, 13.044739%, 68.156433%)" offset="0.742188"/><stop stop-opacity="1" stop-color="rgb(49.005127%, 13.096619%, 68.502808%)" offset="0.746094"/><stop stop-opacity="1" stop-color="rgb(48.999023%, 13.148499%, 68.849182%)" offset="0.75"/><stop stop-opacity="1" stop-color="rgb(48.99292%, 13.200378%, 69.195557%)" offset="0.753906"/><stop stop-opacity="1" stop-color="rgb(48.986816%, 13.253784%, 69.541931%)" offset="0.757812"/><stop stop-opacity="1" stop-color="rgb(48.980713%, 13.305664%, 69.88678%)" offset="0.761719"/><stop stop-opacity="1" stop-color="rgb(48.974609%, 13.35907%, 70.233154%)" offset="0.765625"/><stop stop-opacity="1" stop-color="rgb(48.968506%, 13.41095%, 70.579529%)" offset="0.769531"/><stop stop-opacity="1" stop-color="rgb(48.962402%, 13.46283%, 70.925903%)" offset="0.773438"/><stop stop-opacity="1" stop-color="rgb(48.954773%, 13.514709%, 71.272278%)" offset="0.777344"/><stop stop-opacity="1" stop-color="rgb(48.948669%, 13.568115%, 71.618652%)" offset="0.78125"/><stop stop-opacity="1" stop-color="rgb(48.942566%, 13.619995%, 71.963501%)" offset="0.785156"/><stop stop-opacity="1" stop-color="rgb(48.936462%, 13.673401%, 72.309875%)" offset="0.789062"/><stop stop-opacity="1" stop-color="rgb(48.930359%, 13.725281%, 72.65625%)" offset="0.792969"/><stop stop-opacity="1" stop-color="rgb(48.924255%, 13.777161%, 73.002625%)" offset="0.796875"/><stop stop-opacity="1" stop-color="rgb(48.918152%, 13.829041%, 73.347473%)" offset="0.800781"/><stop stop-opacity="1" stop-color="rgb(48.912048%, 13.882446%, 73.693848%)" offset="0.804688"/><stop stop-opacity="1" stop-color="rgb(48.905945%, 13.934326%, 74.040222%)" offset="0.808594"/><stop stop-opacity="1" stop-color="rgb(48.899841%, 13.986206%, 74.386597%)" offset="0.8125"/><stop stop-opacity="1" stop-color="rgb(48.892212%, 14.038086%, 74.732971%)" offset="0.816406"/><stop stop-opacity="1" stop-color="rgb(48.886108%, 14.091492%, 75.079346%)" offset="0.820313"/><stop stop-opacity="1" stop-color="rgb(48.880005%, 14.143372%, 75.424194%)" offset="0.824219"/><stop stop-opacity="1" stop-color="rgb(48.873901%, 14.196777%, 75.770569%)" offset="0.828125"/><stop stop-opacity="1" stop-color="rgb(48.867798%, 14.248657%, 76.116943%)" offset="0.832031"/><stop stop-opacity="1" stop-color="rgb(48.861694%, 14.300537%, 76.463318%)" offset="0.835938"/><stop stop-opacity="1" stop-color="rgb(48.855591%, 14.352417%, 76.809692%)" offset="0.839844"/><stop stop-opacity="1" stop-color="rgb(48.849487%, 14.405823%, 77.156067%)" offset="0.84375"/><stop stop-opacity="1" stop-color="rgb(48.843384%, 14.457703%, 77.500916%)" offset="0.847656"/><stop stop-opacity="1" stop-color="rgb(48.83728%, 14.509583%, 77.84729%)" offset="0.851562"/><stop stop-opacity="1" stop-color="rgb(48.829651%, 14.561462%, 78.193665%)" offset="0.855469"/><stop stop-opacity="1" stop-color="rgb(48.823547%, 14.614868%, 78.540039%)" offset="0.859375"/><stop stop-opacity="1" stop-color="rgb(48.817444%, 14.666748%, 78.886414%)" offset="0.863281"/><stop stop-opacity="1" stop-color="rgb(48.81134%, 14.720154%, 79.232788%)" offset="0.867188"/><stop stop-opacity="1" stop-color="rgb(48.805237%, 14.772034%, 79.577637%)" offset="0.871094"/><stop stop-opacity="1" stop-color="rgb(48.799133%, 14.823914%, 79.924011%)" offset="0.875"/><stop stop-opacity="1" stop-color="rgb(48.79303%, 14.875793%, 80.270386%)" offset="0.878906"/><stop stop-opacity="1" stop-color="rgb(48.786926%, 14.929199%, 80.61676%)" offset="0.882812"/><stop stop-opacity="1" stop-color="rgb(48.780823%, 14.981079%, 80.961609%)" offset="0.886719"/><stop stop-opacity="1" stop-color="rgb(48.774719%, 15.032959%, 81.307983%)" offset="0.890625"/><stop stop-opacity="1" stop-color="rgb(48.76709%, 15.084839%, 81.654358%)" offset="0.894531"/><stop stop-opacity="1" stop-color="rgb(48.760986%, 15.138245%, 82.000732%)" offset="0.898438"/><stop stop-opacity="1" stop-color="rgb(48.754883%, 15.190125%, 82.347107%)" offset="0.902344"/><stop stop-opacity="1" stop-color="rgb(48.748779%, 15.24353%, 82.693481%)" offset="0.90625"/><stop stop-opacity="1" stop-color="rgb(48.742676%, 15.29541%, 83.03833%)" offset="0.910156"/><stop stop-opacity="1" stop-color="rgb(48.736572%, 15.34729%, 83.384705%)" offset="0.914062"/><stop stop-opacity="1" stop-color="rgb(48.730469%, 15.39917%, 83.731079%)" offset="0.917969"/><stop stop-opacity="1" stop-color="rgb(48.724365%, 15.452576%, 84.077454%)" offset="0.921875"/><stop stop-opacity="1" stop-color="rgb(48.718262%, 15.504456%, 84.423828%)" offset="0.925781"/><stop stop-opacity="1" stop-color="rgb(48.712158%, 15.556335%, 84.770203%)" offset="0.929688"/><stop stop-opacity="1" stop-color="rgb(48.706055%, 15.608215%, 85.115051%)" offset="0.933594"/><stop stop-opacity="1" stop-color="rgb(48.699951%, 15.661621%, 85.461426%)" offset="0.9375"/><stop stop-opacity="1" stop-color="rgb(48.692322%, 15.713501%, 85.8078%)" offset="0.941406"/><stop stop-opacity="1" stop-color="rgb(48.686218%, 15.766907%, 86.154175%)" offset="0.945312"/><stop stop-opacity="1" stop-color="rgb(48.680115%, 15.818787%, 86.499023%)" offset="0.949219"/><stop stop-opacity="1" stop-color="rgb(48.674011%, 15.870667%, 86.845398%)" offset="0.953125"/><stop stop-opacity="1" stop-color="rgb(48.667908%, 15.922546%, 87.191772%)" offset="0.957031"/><stop stop-opacity="1" stop-color="rgb(48.661804%, 15.975952%, 87.538147%)" offset="0.960938"/><stop stop-opacity="1" stop-color="rgb(48.655701%, 16.027832%, 87.884521%)" offset="0.964844"/><stop stop-opacity="1" stop-color="rgb(48.649597%, 16.081238%, 88.230896%)" offset="0.96875"/><stop stop-opacity="1" stop-color="rgb(48.643494%, 16.133118%, 88.575745%)" offset="0.972656"/><stop stop-opacity="1" stop-color="rgb(48.63739%, 16.184998%, 88.922119%)" offset="0.976562"/><stop stop-opacity="1" stop-color="rgb(48.629761%, 16.236877%, 89.268494%)" offset="0.980469"/><stop stop-opacity="1" stop-color="rgb(48.623657%, 16.290283%, 89.614868%)" offset="0.984375"/><stop stop-opacity="1" stop-color="rgb(48.617554%, 16.342163%, 89.961243%)" offset="0.988281"/><stop stop-opacity="1" stop-color="rgb(48.61145%, 16.394043%, 90.307617%)" offset="0.992188"/><stop stop-opacity="1" stop-color="rgb(48.605347%, 16.445923%, 90.652466%)" offset="0.996094"/><stop stop-opacity="1" stop-color="rgb(48.599243%, 16.499329%, 90.99884%)" offset="1"/></linearGradient><clipPath id="3ad036be40"><path d="M 112.5 54.648438 L 262.5 54.648438 L 262.5 204.648438 L 112.5 204.648438 Z M 112.5 54.648438 " clip-rule="nonzero"/></clipPath></defs><rect x="-37.5" width="450" fill="#ffffff" y="-37.499999" height="449.999989" fill-opacity="1"/><rect x="-37.5" width="450" fill="#ffffff" y="-37.499999" height="449.999989" fill-opacity="1"/><rect x="-37.5" width="450" fill="#ffffff" y="-37.499999" height="449.999989" fill-opacity="1"/><rect x="-37.5" fill="url(#f8b4fd0563)" width="450" y="-37.499999" height="449.999989"/><g clip-path="url(#3ad036be40)"><path fill="#ffffff" d="M 217.09375 60.363281 C 226.175781 64.109375 234.175781 69.507812 240.90625 76.238281 C 247.640625 82.972656 253.039062 90.972656 256.785156 100.054688 C 260.46875 109.074219 262.5 119.042969 262.5 129.648438 C 262.5 140.253906 260.46875 150.222656 256.785156 159.242188 C 253.039062 168.324219 247.640625 176.324219 240.90625 183.054688 C 234.175781 189.789062 226.175781 195.1875 217.09375 198.933594 C 208.074219 202.617188 198.105469 204.648438 187.5 204.648438 C 176.894531 204.648438 166.925781 202.617188 157.90625 198.933594 C 148.824219 195.1875 140.824219 189.789062 134.09375 183.054688 C 127.359375 176.324219 121.960938 168.324219 118.214844 159.242188 C 114.53125 150.222656 112.5 140.253906 112.5 129.648438 C 112.5 119.042969 114.53125 109.074219 118.214844 100.054688 C 121.960938 90.972656 127.359375 82.972656 134.09375 76.238281 C 140.824219 69.507812 148.824219 64.109375 157.90625 60.363281 C 166.925781 56.679688 176.894531 54.648438 187.5 54.648438 C 198.105469 54.648438 208.074219 56.679688 217.09375 60.363281 Z M 215.316406 194.425781 C 223.699219 190.996094 231.253906 185.914062 237.542969 179.691406 C 243.765625 173.402344 248.847656 165.847656 252.277344 157.464844 C 255.769531 148.953125 257.671875 139.617188 257.671875 129.648438 C 257.671875 119.679688 255.769531 110.34375 252.277344 101.832031 C 248.847656 93.449219 243.765625 85.894531 237.542969 79.605469 C 231.253906 73.382812 223.699219 68.300781 215.316406 64.871094 C 206.804688 61.378906 197.46875 59.476562 187.5 59.476562 C 177.53125 59.476562 168.195312 61.378906 159.683594 64.871094 C 151.300781 68.300781 143.746094 73.382812 137.457031 79.605469 C 131.234375 85.894531 126.152344 93.449219 122.722656 101.832031 C 119.230469 110.34375 117.328125 119.679688 117.328125 129.648438 C 117.328125 139.617188 119.230469 148.953125 122.722656 157.464844 C 126.152344 165.847656 131.234375 173.402344 137.457031 179.691406 C 143.746094 185.914062 151.300781 190.996094 159.683594 194.425781 C 168.195312 197.917969 177.53125 199.820312 187.5 199.820312 C 197.46875 199.820312 206.804688 197.917969 215.316406 194.425781 Z M 215.316406 194.425781 " fill-opacity="1" fill-rule="evenodd"/></g><path fill="#ffffff" d="M 174.925781 99.292969 C 174.800781 99.292969 174.671875 99.355469 174.542969 99.417969 C 174.226562 99.546875 173.972656 99.738281 173.71875 99.925781 C 173.527344 100.183594 173.339844 100.4375 173.210938 100.753906 C 173.148438 100.878906 173.085938 101.007812 173.085938 101.132812 C 173.019531 101.261719 173.019531 101.324219 173.019531 101.453125 L 173.019531 103.929688 L 201.597656 103.929688 L 201.597656 101.453125 C 201.597656 101.324219 201.597656 101.261719 201.535156 101.132812 C 201.535156 101.007812 201.472656 100.878906 201.40625 100.753906 C 201.28125 100.5 201.089844 100.183594 200.835938 99.992188 C 200.582031 99.738281 200.328125 99.546875 200.011719 99.417969 C 199.882812 99.355469 199.757812 99.292969 199.628906 99.292969 C 199.503906 99.230469 199.4375 99.230469 199.3125 99.230469 L 175.242188 99.230469 C 175.117188 99.230469 175.054688 99.230469 174.925781 99.292969 Z M 168.195312 101.453125 C 168.195312 100.945312 168.257812 100.5 168.386719 100.054688 C 168.449219 99.609375 168.640625 99.164062 168.828125 98.722656 C 169.148438 97.894531 169.71875 97.195312 170.351562 96.5625 C 170.988281 95.925781 171.6875 95.355469 172.511719 95.039062 C 172.957031 94.847656 173.402344 94.65625 173.847656 94.59375 C 174.289062 94.464844 174.734375 94.402344 175.242188 94.402344 L 199.3125 94.402344 C 199.820312 94.402344 200.265625 94.464844 200.710938 94.59375 C 201.152344 94.65625 201.597656 94.847656 202.042969 95.039062 C 202.867188 95.355469 203.566406 95.925781 204.203125 96.5625 C 204.902344 97.132812 205.410156 97.894531 205.789062 98.722656 C 205.980469 99.101562 206.171875 99.546875 206.234375 99.992188 C 206.359375 100.5 206.425781 100.945312 206.425781 101.453125 L 206.425781 103.929688 L 223.953125 103.929688 C 227.636719 103.929688 231.382812 107.613281 231.382812 111.296875 L 231.382812 117.964844 L 192.835938 130.601562 C 192.582031 130.472656 192.328125 130.410156 192.136719 130.347656 C 191.882812 130.285156 191.5625 130.285156 191.308594 130.285156 L 183.308594 130.285156 C 183.054688 130.285156 182.738281 130.285156 182.484375 130.347656 C 182.292969 130.410156 182.039062 130.472656 181.847656 130.539062 L 143.300781 117.964844 L 143.300781 111.296875 C 143.300781 107.613281 146.984375 103.929688 150.667969 103.929688 L 168.195312 103.929688 Z M 183.246094 133.523438 L 191.375 133.523438 C 191.4375 133.523438 191.5 133.523438 191.5625 133.523438 C 191.628906 133.585938 191.753906 133.648438 191.820312 133.777344 C 191.945312 133.839844 192.007812 133.964844 192.074219 134.03125 C 192.074219 134.09375 192.074219 134.09375 192.074219 134.15625 L 192.136719 134.21875 L 192.136719 136.953125 L 192.074219 137.015625 C 192.074219 137.078125 192.074219 137.140625 192.074219 137.140625 C 192.007812 137.269531 191.945312 137.394531 191.820312 137.460938 C 191.753906 137.585938 191.628906 137.648438 191.5 137.714844 C 191.5 137.714844 191.4375 137.714844 191.375 137.714844 L 191.308594 137.777344 L 183.308594 137.777344 L 183.246094 137.714844 C 183.179688 137.714844 183.117188 137.714844 183.117188 137.714844 C 182.992188 137.648438 182.863281 137.585938 182.800781 137.460938 C 182.671875 137.394531 182.609375 137.269531 182.546875 137.140625 C 182.546875 137.140625 182.546875 137.078125 182.546875 137.015625 L 182.546875 134.15625 C 182.546875 134.09375 182.546875 134.09375 182.546875 134.03125 C 182.609375 133.964844 182.671875 133.839844 182.800781 133.777344 C 182.863281 133.648438 182.992188 133.585938 183.054688 133.523438 C 183.117188 133.523438 183.179688 133.523438 183.246094 133.523438 Z M 195.246094 133.394531 C 195.246094 133.332031 195.183594 133.269531 195.183594 133.203125 L 231.382812 121.328125 L 231.382812 154.734375 C 231.382812 158.417969 227.636719 162.164062 223.953125 162.164062 L 150.667969 162.164062 C 146.984375 162.164062 143.300781 158.417969 143.300781 154.734375 L 143.300781 121.328125 L 179.433594 133.203125 C 179.433594 133.269531 179.371094 133.332031 179.371094 133.394531 C 179.308594 133.648438 179.308594 133.964844 179.308594 134.21875 L 179.308594 136.953125 C 179.308594 137.207031 179.308594 137.523438 179.371094 137.777344 C 179.433594 138.03125 179.5 138.285156 179.625 138.539062 C 179.816406 138.984375 180.132812 139.363281 180.515625 139.746094 C 180.894531 140.125 181.277344 140.445312 181.722656 140.632812 C 181.976562 140.761719 182.230469 140.824219 182.484375 140.890625 C 182.738281 140.953125 183.054688 141.015625 183.308594 141.015625 L 191.308594 141.015625 C 191.5625 141.015625 191.882812 140.953125 192.136719 140.890625 C 192.390625 140.824219 192.644531 140.761719 192.898438 140.632812 C 193.34375 140.445312 193.722656 140.125 194.105469 139.746094 C 194.484375 139.363281 194.804688 138.984375 194.992188 138.539062 C 195.121094 138.285156 195.183594 138.03125 195.246094 137.777344 C 195.3125 137.523438 195.375 137.207031 195.375 136.953125 L 195.375 134.21875 C 195.375 133.964844 195.3125 133.648438 195.246094 133.394531 Z M 195.246094 133.394531 " fill-opacity="1" fill-rule="evenodd"/><g fill="#ffffff" fill-opacity="1"><g transform="translate(109.270853, 282.271004)"><g><path d="M 4.515625 -9.140625 C 2.984375 -11.023438 2.21875 -12.722656 2.21875 -14.234375 C 2.21875 -15.742188 3.488281 -17.738281 6.03125 -20.21875 C 7.507812 -21.632812 9.078125 -22.34375 10.734375 -22.34375 C 12.390625 -22.34375 14.695312 -20.867188 17.65625 -17.921875 C 18.476562 -16.910156 19.65625 -15.945312 21.1875 -15.03125 C 22.726562 -14.113281 24.148438 -13.65625 25.453125 -13.65625 C 30.953125 -13.65625 33.703125 -15.898438 33.703125 -20.390625 C 33.703125 -21.753906 32.945312 -22.894531 31.4375 -23.8125 C 29.925781 -24.726562 28.046875 -25.390625 25.796875 -25.796875 C 23.554688 -26.210938 21.132812 -26.878906 18.53125 -27.796875 C 15.9375 -28.710938 13.515625 -29.789062 11.265625 -31.03125 C 9.015625 -32.28125 7.132812 -34.25 5.625 -36.9375 C 4.125 -39.625 3.375 -42.863281 3.375 -46.65625 C 3.375 -51.851562 5.304688 -56.390625 9.171875 -60.265625 C 13.046875 -64.140625 18.328125 -66.078125 25.015625 -66.078125 C 28.554688 -66.078125 31.789062 -65.617188 34.71875 -64.703125 C 37.644531 -63.785156 39.671875 -62.851562 40.796875 -61.90625 L 43.015625 -60.21875 C 44.847656 -58.5 45.765625 -57.046875 45.765625 -55.859375 C 45.765625 -54.679688 45.054688 -53.0625 43.640625 -51 C 41.628906 -48.039062 39.554688 -46.5625 37.421875 -46.5625 C 36.179688 -46.5625 34.644531 -47.148438 32.8125 -48.328125 C 32.632812 -48.453125 32.296875 -48.75 31.796875 -49.21875 C 31.296875 -49.695312 30.835938 -50.082031 30.421875 -50.375 C 29.179688 -51.144531 27.597656 -51.53125 25.671875 -51.53125 C 23.753906 -51.53125 22.160156 -51.070312 20.890625 -50.15625 C 19.617188 -49.238281 18.984375 -47.96875 18.984375 -46.34375 C 18.984375 -44.71875 19.734375 -43.398438 21.234375 -42.390625 C 22.742188 -41.390625 24.625 -40.710938 26.875 -40.359375 C 29.125 -40.003906 31.578125 -39.457031 34.234375 -38.71875 C 36.890625 -37.976562 39.34375 -37.070312 41.59375 -36 C 43.84375 -34.9375 45.71875 -33.085938 47.21875 -30.453125 C 48.726562 -27.828125 49.484375 -24.59375 49.484375 -20.75 C 49.484375 -16.90625 48.710938 -13.519531 47.171875 -10.59375 C 45.640625 -7.664062 43.632812 -5.40625 41.15625 -3.8125 C 36.363281 -0.675781 31.25 0.890625 25.8125 0.890625 C 23.03125 0.890625 20.394531 0.550781 17.90625 -0.125 C 15.425781 -0.8125 13.421875 -1.65625 11.890625 -2.65625 C 8.753906 -4.550781 6.566406 -6.382812 5.328125 -8.15625 Z M 4.515625 -9.140625 "/></g></g></g><g fill="#ffffff" fill-opacity="1"><g transform="translate(160.96933, 282.271004)"><g><path d="M 36.703125 -65.015625 C 39.015625 -65.015625 40.71875 -64.820312 41.8125 -64.4375 C 42.90625 -64.050781 43.691406 -63.414062 44.171875 -62.53125 C 44.816406 -61.164062 45.140625 -59.332031 45.140625 -57.03125 L 45.140625 -22.703125 C 45.140625 -16.492188 42.890625 -11.007812 38.390625 -6.25 C 33.898438 -1.488281 28.171875 0.890625 21.203125 0.890625 C 17.296875 0.890625 13.832031 0.03125 10.8125 -1.6875 C 8.09375 -3.164062 6.203125 -4.492188 5.140625 -5.671875 L 4.4375 -6.390625 C 2.363281 -8.578125 1.328125 -10.453125 1.328125 -12.015625 C 1.328125 -13.585938 2.359375 -15.4375 4.421875 -17.5625 C 6.492188 -19.6875 8.328125 -20.75 9.921875 -20.75 C 11.523438 -20.75 13.300781 -19.773438 15.25 -17.828125 C 17.207031 -15.878906 19.320312 -14.90625 21.59375 -14.90625 C 23.875 -14.90625 25.75 -15.671875 27.21875 -17.203125 C 28.695312 -18.742188 29.4375 -20.785156 29.4375 -23.328125 L 29.4375 -56.5 C 29.4375 -60.039062 30.03125 -62.316406 31.21875 -63.328125 C 32.570312 -64.453125 34.398438 -65.015625 36.703125 -65.015625 Z M 36.703125 -65.015625 "/></g></g></g><g fill="#ffffff" fill-opacity="1"><g transform="translate(209.652793, 282.271004)"><g><path d="M 51.515625 -51.875 C 53.054688 -48.75 53.828125 -45.265625 53.828125 -41.421875 C 53.828125 -37.578125 53.054688 -34.101562 51.515625 -31 C 49.984375 -27.894531 48.003906 -25.425781 45.578125 -23.59375 C 40.671875 -19.8125 35.585938 -17.921875 30.328125 -17.921875 L 19.25 -17.921875 L 19.25 -7.890625 C 19.25 -6.535156 19.203125 -5.515625 19.109375 -4.828125 C 19.023438 -4.148438 18.742188 -3.367188 18.265625 -2.484375 C 17.441406 -0.890625 15.140625 -0.09375 11.359375 -0.09375 C 7.210938 -0.09375 4.785156 -1.1875 4.078125 -3.375 C 3.722656 -4.375 3.546875 -5.910156 3.546875 -7.984375 L 3.546875 -57.203125 C 3.546875 -58.566406 3.585938 -59.585938 3.671875 -60.265625 C 3.765625 -60.941406 4.046875 -61.722656 4.515625 -62.609375 C 5.347656 -64.210938 7.65625 -65.015625 11.4375 -65.015625 L 30.421875 -65.015625 C 35.617188 -65.015625 40.671875 -63.117188 45.578125 -59.328125 C 48.003906 -57.492188 49.984375 -55.007812 51.515625 -51.875 Z M 30.421875 -33.609375 C 32.191406 -33.609375 33.929688 -34.257812 35.640625 -35.5625 C 37.359375 -36.863281 38.21875 -38.8125 38.21875 -41.40625 C 38.21875 -44.007812 37.359375 -45.976562 35.640625 -47.3125 C 33.929688 -48.644531 32.160156 -49.3125 30.328125 -49.3125 L 19.25 -49.3125 L 19.25 -33.609375 Z M 30.421875 -33.609375 "/></g></g></g></svg>