<svg xmlns="http://www.w3.org/2000/svg" xmlns:xlink="http://www.w3.org/1999/xlink" width="230" zoomAndPan="magnify" viewBox="0 0 172.5 30.750001" height="41" preserveAspectRatio="xMidYMid meet" version="1.0"><defs><g/><clipPath id="cce928b4c0"><path d="M 0.449219 0.015625 L 31.039062 0.015625 L 31.039062 30.503906 L 0.449219 30.503906 Z M 0.449219 0.015625 " clip-rule="nonzero"/></clipPath><clipPath id="6d112c1e87"><path d="M 15.742188 0.015625 C 13.714844 0.015625 11.761719 0.402344 9.890625 1.179688 C 8.015625 1.957031 6.363281 3.058594 4.925781 4.496094 C 3.492188 5.929688 2.386719 7.582031 1.613281 9.457031 C 0.835938 11.332031 0.449219 13.28125 0.449219 15.308594 C 0.449219 17.339844 0.835938 19.289062 1.613281 21.164062 C 2.386719 23.039062 3.492188 24.691406 4.925781 26.125 C 6.363281 27.558594 8.015625 28.664062 9.890625 29.441406 C 11.761719 30.21875 13.714844 30.605469 15.742188 30.605469 C 17.769531 30.605469 19.722656 30.21875 21.597656 29.441406 C 23.46875 28.664062 25.125 27.558594 26.558594 26.125 C 27.992188 24.691406 29.097656 23.039062 29.875 21.164062 C 30.648438 19.289062 31.039062 17.339844 31.039062 15.308594 C 31.039062 13.28125 30.648438 11.332031 29.875 9.457031 C 29.097656 7.582031 27.992188 5.929688 26.558594 4.496094 C 25.125 3.058594 23.46875 1.957031 21.597656 1.179688 C 19.722656 0.402344 17.769531 0.015625 15.742188 0.015625 Z M 15.742188 0.015625 " clip-rule="nonzero"/></clipPath><linearGradient x1="0" gradientTransform="matrix(0.0283245, 0, 0, 0.0283245, 0.447578, 0.0148423)" y1="0" x2="1079.99996" gradientUnits="userSpaceOnUse" y2="0" id="136ca2e3b1"><stop stop-opacity="1" stop-color="rgb(48.599243%, 16.499329%, 90.99884%)" offset="0"/><stop stop-opacity="1" stop-color="rgb(48.605347%, 16.445923%, 90.652466%)" offset="0.00390625"/><stop stop-opacity="1" stop-color="rgb(48.61145%, 16.394043%, 90.307617%)" offset="0.0078125"/><stop stop-opacity="1" stop-color="rgb(48.617554%, 16.342163%, 89.961243%)" offset="0.0117188"/><stop stop-opacity="1" stop-color="rgb(48.623657%, 16.290283%, 89.614868%)" offset="0.015625"/><stop stop-opacity="1" stop-color="rgb(48.629761%, 16.236877%, 89.268494%)" offset="0.0195312"/><stop stop-opacity="1" stop-color="rgb(48.63739%, 16.184998%, 88.922119%)" offset="0.0234375"/><stop stop-opacity="1" stop-color="rgb(48.643494%, 16.133118%, 88.575745%)" offset="0.0273438"/><stop stop-opacity="1" stop-color="rgb(48.649597%, 16.081238%, 88.230896%)" offset="0.03125"/><stop stop-opacity="1" stop-color="rgb(48.655701%, 16.027832%, 87.884521%)" offset="0.0351562"/><stop stop-opacity="1" stop-color="rgb(48.661804%, 15.975952%, 87.538147%)" offset="0.0390625"/><stop stop-opacity="1" stop-color="rgb(48.667908%, 15.922546%, 87.191772%)" offset="0.0429688"/><stop stop-opacity="1" stop-color="rgb(48.674011%, 15.870667%, 86.845398%)" offset="0.046875"/><stop stop-opacity="1" stop-color="rgb(48.680115%, 15.818787%, 86.499023%)" offset="0.0507812"/><stop stop-opacity="1" stop-color="rgb(48.686218%, 15.766907%, 86.154175%)" offset="0.0546875"/><stop stop-opacity="1" stop-color="rgb(48.692322%, 15.713501%, 85.8078%)" offset="0.0585938"/><stop stop-opacity="1" stop-color="rgb(48.699951%, 15.661621%, 85.461426%)" offset="0.0625"/><stop stop-opacity="1" stop-color="rgb(48.706055%, 15.608215%, 85.115051%)" offset="0.0664062"/><stop stop-opacity="1" stop-color="rgb(48.712158%, 15.556335%, 84.770203%)" offset="0.0703125"/><stop stop-opacity="1" stop-color="rgb(48.718262%, 15.504456%, 84.423828%)" offset="0.0742188"/><stop stop-opacity="1" stop-color="rgb(48.724365%, 15.452576%, 84.077454%)" offset="0.078125"/><stop stop-opacity="1" stop-color="rgb(48.730469%, 15.39917%, 83.731079%)" offset="0.0820312"/><stop stop-opacity="1" stop-color="rgb(48.736572%, 15.34729%, 83.384705%)" offset="0.0859375"/><stop stop-opacity="1" stop-color="rgb(48.742676%, 15.29541%, 83.03833%)" offset="0.0898438"/><stop stop-opacity="1" stop-color="rgb(48.748779%, 15.24353%, 82.693481%)" offset="0.09375"/><stop stop-opacity="1" stop-color="rgb(48.754883%, 15.190125%, 82.347107%)" offset="0.0976562"/><stop stop-opacity="1" stop-color="rgb(48.760986%, 15.138245%, 82.000732%)" offset="0.101562"/><stop stop-opacity="1" stop-color="rgb(48.76709%, 15.084839%, 81.654358%)" offset="0.105469"/><stop stop-opacity="1" stop-color="rgb(48.774719%, 15.032959%, 81.307983%)" offset="0.109375"/><stop stop-opacity="1" stop-color="rgb(48.780823%, 14.981079%, 80.961609%)" offset="0.113281"/><stop stop-opacity="1" stop-color="rgb(48.786926%, 14.929199%, 80.61676%)" offset="0.117188"/><stop stop-opacity="1" stop-color="rgb(48.79303%, 14.875793%, 80.270386%)" offset="0.121094"/><stop stop-opacity="1" stop-color="rgb(48.799133%, 14.823914%, 79.924011%)" offset="0.125"/><stop stop-opacity="1" stop-color="rgb(48.805237%, 14.772034%, 79.577637%)" offset="0.128906"/><stop stop-opacity="1" stop-color="rgb(48.81134%, 14.720154%, 79.232788%)" offset="0.132812"/><stop stop-opacity="1" stop-color="rgb(48.817444%, 14.666748%, 78.886414%)" offset="0.136719"/><stop stop-opacity="1" stop-color="rgb(48.823547%, 14.614868%, 78.540039%)" offset="0.140625"/><stop stop-opacity="1" stop-color="rgb(48.829651%, 14.561462%, 78.193665%)" offset="0.144531"/><stop stop-opacity="1" stop-color="rgb(48.83728%, 14.509583%, 77.84729%)" offset="0.148438"/><stop stop-opacity="1" stop-color="rgb(48.843384%, 14.457703%, 77.500916%)" offset="0.152344"/><stop stop-opacity="1" stop-color="rgb(48.849487%, 14.405823%, 77.156067%)" offset="0.15625"/><stop stop-opacity="1" stop-color="rgb(48.855591%, 14.352417%, 76.809692%)" offset="0.160156"/><stop stop-opacity="1" stop-color="rgb(48.861694%, 14.300537%, 76.463318%)" offset="0.164062"/><stop stop-opacity="1" stop-color="rgb(48.867798%, 14.248657%, 76.116943%)" offset="0.167969"/><stop stop-opacity="1" stop-color="rgb(48.873901%, 14.196777%, 75.770569%)" offset="0.171875"/><stop stop-opacity="1" stop-color="rgb(48.880005%, 14.143372%, 75.424194%)" offset="0.175781"/><stop stop-opacity="1" stop-color="rgb(48.886108%, 14.091492%, 75.079346%)" offset="0.179688"/><stop stop-opacity="1" stop-color="rgb(48.892212%, 14.038086%, 74.732971%)" offset="0.183594"/><stop stop-opacity="1" stop-color="rgb(48.899841%, 13.986206%, 74.386597%)" offset="0.1875"/><stop stop-opacity="1" stop-color="rgb(48.905945%, 13.934326%, 74.040222%)" offset="0.191406"/><stop stop-opacity="1" stop-color="rgb(48.912048%, 13.882446%, 73.693848%)" offset="0.195312"/><stop stop-opacity="1" stop-color="rgb(48.918152%, 13.829041%, 73.347473%)" offset="0.199219"/><stop stop-opacity="1" stop-color="rgb(48.924255%, 13.777161%, 73.002625%)" offset="0.203125"/><stop stop-opacity="1" stop-color="rgb(48.930359%, 13.725281%, 72.65625%)" offset="0.207031"/><stop stop-opacity="1" stop-color="rgb(48.936462%, 13.673401%, 72.309875%)" offset="0.210938"/><stop stop-opacity="1" stop-color="rgb(48.942566%, 13.619995%, 71.963501%)" offset="0.214844"/><stop stop-opacity="1" stop-color="rgb(48.948669%, 13.568115%, 71.618652%)" offset="0.21875"/><stop stop-opacity="1" stop-color="rgb(48.954773%, 13.514709%, 71.272278%)" offset="0.222656"/><stop stop-opacity="1" stop-color="rgb(48.962402%, 13.46283%, 70.925903%)" offset="0.226562"/><stop stop-opacity="1" stop-color="rgb(48.968506%, 13.41095%, 70.579529%)" offset="0.230469"/><stop stop-opacity="1" stop-color="rgb(48.974609%, 13.35907%, 70.233154%)" offset="0.234375"/><stop stop-opacity="1" stop-color="rgb(48.980713%, 13.305664%, 69.88678%)" offset="0.238281"/><stop stop-opacity="1" stop-color="rgb(48.986816%, 13.253784%, 69.541931%)" offset="0.242188"/><stop stop-opacity="1" stop-color="rgb(48.99292%, 13.200378%, 69.195557%)" offset="0.246094"/><stop stop-opacity="1" stop-color="rgb(48.999023%, 13.148499%, 68.849182%)" offset="0.25"/><stop stop-opacity="1" stop-color="rgb(49.005127%, 13.096619%, 68.502808%)" offset="0.253906"/><stop stop-opacity="1" stop-color="rgb(49.01123%, 13.044739%, 68.156433%)" offset="0.257812"/><stop stop-opacity="1" stop-color="rgb(49.017334%, 12.991333%, 67.810059%)" offset="0.261719"/><stop stop-opacity="1" stop-color="rgb(49.024963%, 12.939453%, 67.46521%)" offset="0.265625"/><stop stop-opacity="1" stop-color="rgb(49.031067%, 12.887573%, 67.118835%)" offset="0.269531"/><stop stop-opacity="1" stop-color="rgb(49.03717%, 12.835693%, 66.772461%)" offset="0.273438"/><stop stop-opacity="1" stop-color="rgb(49.043274%, 12.782288%, 66.426086%)" offset="0.277344"/><stop stop-opacity="1" stop-color="rgb(49.049377%, 12.730408%, 66.081238%)" offset="0.28125"/><stop stop-opacity="1" stop-color="rgb(49.055481%, 12.677002%, 65.734863%)" offset="0.285156"/><stop stop-opacity="1" stop-color="rgb(49.061584%, 12.625122%, 65.388489%)" offset="0.289062"/><stop stop-opacity="1" stop-color="rgb(49.067688%, 12.573242%, 65.042114%)" offset="0.292969"/><stop stop-opacity="1" stop-color="rgb(49.073792%, 12.521362%, 64.69574%)" offset="0.296875"/><stop stop-opacity="1" stop-color="rgb(49.079895%, 12.467957%, 64.349365%)" offset="0.300781"/><stop stop-opacity="1" stop-color="rgb(49.085999%, 12.416077%, 64.004517%)" offset="0.304687"/><stop stop-opacity="1" stop-color="rgb(49.092102%, 12.364197%, 63.658142%)" offset="0.308594"/><stop stop-opacity="1" stop-color="rgb(49.099731%, 12.312317%, 63.311768%)" offset="0.3125"/><stop stop-opacity="1" stop-color="rgb(49.105835%, 12.258911%, 62.965393%)" offset="0.316406"/><stop stop-opacity="1" stop-color="rgb(49.111938%, 12.207031%, 62.619019%)" offset="0.320312"/><stop stop-opacity="1" stop-color="rgb(49.118042%, 12.153625%, 62.272644%)" offset="0.324219"/><stop stop-opacity="1" stop-color="rgb(49.124146%, 12.101746%, 61.927795%)" offset="0.328125"/><stop stop-opacity="1" stop-color="rgb(49.130249%, 12.049866%, 61.581421%)" offset="0.332031"/><stop stop-opacity="1" stop-color="rgb(49.136353%, 11.997986%, 61.235046%)" offset="0.335937"/><stop stop-opacity="1" stop-color="rgb(49.142456%, 11.94458%, 60.888672%)" offset="0.339844"/><stop stop-opacity="1" stop-color="rgb(49.14856%, 11.8927%, 60.542297%)" offset="0.34375"/><stop stop-opacity="1" stop-color="rgb(49.154663%, 11.84082%, 60.195923%)" offset="0.347656"/><stop stop-opacity="1" stop-color="rgb(49.162292%, 11.78894%, 59.851074%)" offset="0.351562"/><stop stop-opacity="1" stop-color="rgb(49.168396%, 11.735535%, 59.5047%)" offset="0.355469"/><stop stop-opacity="1" stop-color="rgb(49.1745%, 11.683655%, 59.158325%)" offset="0.359375"/><stop stop-opacity="1" stop-color="rgb(49.180603%, 11.630249%, 58.811951%)" offset="0.363281"/><stop stop-opacity="1" stop-color="rgb(49.186707%, 11.578369%, 58.467102%)" offset="0.367187"/><stop stop-opacity="1" stop-color="rgb(49.19281%, 11.526489%, 58.120728%)" offset="0.371094"/><stop stop-opacity="1" stop-color="rgb(49.198914%, 11.474609%, 57.774353%)" offset="0.375"/><stop stop-opacity="1" stop-color="rgb(49.205017%, 11.421204%, 57.427979%)" offset="0.378906"/><stop stop-opacity="1" stop-color="rgb(49.211121%, 11.369324%, 57.081604%)" offset="0.382812"/><stop stop-opacity="1" stop-color="rgb(49.217224%, 11.317444%, 56.735229%)" offset="0.386719"/><stop stop-opacity="1" stop-color="rgb(49.224854%, 11.265564%, 56.390381%)" offset="0.390625"/><stop stop-opacity="1" stop-color="rgb(49.230957%, 11.212158%, 56.044006%)" offset="0.394531"/><stop stop-opacity="1" stop-color="rgb(49.237061%, 11.160278%, 55.697632%)" offset="0.398438"/><stop stop-opacity="1" stop-color="rgb(49.243164%, 11.106873%, 55.351257%)" offset="0.402344"/><stop stop-opacity="1" stop-color="rgb(49.249268%, 11.054993%, 55.004883%)" offset="0.40625"/><stop stop-opacity="1" stop-color="rgb(49.255371%, 11.003113%, 54.658508%)" offset="0.410156"/><stop stop-opacity="1" stop-color="rgb(49.261475%, 10.951233%, 54.31366%)" offset="0.414062"/><stop stop-opacity="1" stop-color="rgb(49.267578%, 10.897827%, 53.967285%)" offset="0.417969"/><stop stop-opacity="1" stop-color="rgb(49.273682%, 10.845947%, 53.620911%)" offset="0.421875"/><stop stop-opacity="1" stop-color="rgb(49.279785%, 10.794067%, 53.274536%)" offset="0.425781"/><stop stop-opacity="1" stop-color="rgb(49.287415%, 10.742188%, 52.929688%)" offset="0.429688"/><stop stop-opacity="1" stop-color="rgb(49.293518%, 10.688782%, 52.583313%)" offset="0.433594"/><stop stop-opacity="1" stop-color="rgb(49.299622%, 10.636902%, 52.236938%)" offset="0.4375"/><stop stop-opacity="1" stop-color="rgb(49.305725%, 10.583496%, 51.890564%)" offset="0.441406"/><stop stop-opacity="1" stop-color="rgb(49.311829%, 10.531616%, 51.544189%)" offset="0.445312"/><stop stop-opacity="1" stop-color="rgb(49.317932%, 10.479736%, 51.197815%)" offset="0.449219"/><stop stop-opacity="1" stop-color="rgb(49.324036%, 10.427856%, 50.852966%)" offset="0.453125"/><stop stop-opacity="1" stop-color="rgb(49.330139%, 10.374451%, 50.506592%)" offset="0.457031"/><stop stop-opacity="1" stop-color="rgb(49.336243%, 10.322571%, 50.160217%)" offset="0.460938"/><stop stop-opacity="1" stop-color="rgb(49.342346%, 10.269165%, 49.813843%)" offset="0.464844"/><stop stop-opacity="1" stop-color="rgb(49.349976%, 10.217285%, 49.467468%)" offset="0.46875"/><stop stop-opacity="1" stop-color="rgb(49.356079%, 10.165405%, 49.121094%)" offset="0.472656"/><stop stop-opacity="1" stop-color="rgb(49.362183%, 10.113525%, 48.776245%)" offset="0.476562"/><stop stop-opacity="1" stop-color="rgb(49.368286%, 10.06012%, 48.429871%)" offset="0.480469"/><stop stop-opacity="1" stop-color="rgb(49.37439%, 10.00824%, 48.083496%)" offset="0.484375"/><stop stop-opacity="1" stop-color="rgb(49.380493%, 9.95636%, 47.737122%)" offset="0.488281"/><stop stop-opacity="1" stop-color="rgb(49.386597%, 9.90448%, 47.390747%)" offset="0.492188"/><stop stop-opacity="1" stop-color="rgb(49.3927%, 9.851074%, 47.044373%)" offset="0.496094"/><stop stop-opacity="1" stop-color="rgb(49.398804%, 9.799194%, 46.699524%)" offset="0.5"/><stop stop-opacity="1" stop-color="rgb(49.404907%, 9.745789%, 46.353149%)" offset="0.503906"/><stop stop-opacity="1" stop-color="rgb(49.411011%, 9.693909%, 46.006775%)" offset="0.507812"/><stop stop-opacity="1" stop-color="rgb(49.417114%, 9.642029%, 45.6604%)" offset="0.511719"/><stop stop-opacity="1" stop-color="rgb(49.424744%, 9.590149%, 45.315552%)" offset="0.515625"/><stop stop-opacity="1" stop-color="rgb(49.430847%, 9.536743%, 44.969177%)" offset="0.519531"/><stop stop-opacity="1" stop-color="rgb(49.436951%, 9.484863%, 44.622803%)" offset="0.523437"/><stop stop-opacity="1" stop-color="rgb(49.443054%, 9.432983%, 44.276428%)" offset="0.527344"/><stop stop-opacity="1" stop-color="rgb(49.449158%, 9.381104%, 43.930054%)" offset="0.53125"/><stop stop-opacity="1" stop-color="rgb(49.455261%, 9.327698%, 43.583679%)" offset="0.535156"/><stop stop-opacity="1" stop-color="rgb(49.461365%, 9.275818%, 43.238831%)" offset="0.539063"/><stop stop-opacity="1" stop-color="rgb(49.467468%, 9.222412%, 42.892456%)" offset="0.542969"/><stop stop-opacity="1" stop-color="rgb(49.473572%, 9.170532%, 42.546082%)" offset="0.546875"/><stop stop-opacity="1" stop-color="rgb(49.479675%, 9.118652%, 42.199707%)" offset="0.550781"/><stop stop-opacity="1" stop-color="rgb(49.487305%, 9.066772%, 41.853333%)" offset="0.554688"/><stop stop-opacity="1" stop-color="rgb(49.493408%, 9.013367%, 41.506958%)" offset="0.558594"/><stop stop-opacity="1" stop-color="rgb(49.499512%, 8.961487%, 41.162109%)" offset="0.5625"/><stop stop-opacity="1" stop-color="rgb(49.505615%, 8.909607%, 40.815735%)" offset="0.566406"/><stop stop-opacity="1" stop-color="rgb(49.511719%, 8.857727%, 40.46936%)" offset="0.570312"/><stop stop-opacity="1" stop-color="rgb(49.517822%, 8.804321%, 40.122986%)" offset="0.574219"/><stop stop-opacity="1" stop-color="rgb(49.523926%, 8.752441%, 39.776611%)" offset="0.578125"/><stop stop-opacity="1" stop-color="rgb(49.530029%, 8.699036%, 39.430237%)" offset="0.582031"/><stop stop-opacity="1" stop-color="rgb(49.536133%, 8.647156%, 39.085388%)" offset="0.585938"/><stop stop-opacity="1" stop-color="rgb(49.542236%, 8.595276%, 38.739014%)" offset="0.589844"/><stop stop-opacity="1" stop-color="rgb(49.549866%, 8.543396%, 38.392639%)" offset="0.59375"/><stop stop-opacity="1" stop-color="rgb(49.555969%, 8.48999%, 38.046265%)" offset="0.597656"/><stop stop-opacity="1" stop-color="rgb(49.562073%, 8.43811%, 37.701416%)" offset="0.601562"/><stop stop-opacity="1" stop-color="rgb(49.568176%, 8.38623%, 37.355042%)" offset="0.605469"/><stop stop-opacity="1" stop-color="rgb(49.57428%, 8.334351%, 37.008667%)" offset="0.609375"/><stop stop-opacity="1" stop-color="rgb(49.580383%, 8.280945%, 36.662292%)" offset="0.613281"/><stop stop-opacity="1" stop-color="rgb(49.586487%, 8.229065%, 36.315918%)" offset="0.617187"/><stop stop-opacity="1" stop-color="rgb(49.59259%, 8.175659%, 35.969543%)" offset="0.621094"/><stop stop-opacity="1" stop-color="rgb(49.598694%, 8.123779%, 35.624695%)" offset="0.625"/><stop stop-opacity="1" stop-color="rgb(49.604797%, 8.071899%, 35.27832%)" offset="0.628906"/><stop stop-opacity="1" stop-color="rgb(49.612427%, 8.02002%, 34.931946%)" offset="0.632812"/><stop stop-opacity="1" stop-color="rgb(49.61853%, 7.966614%, 34.585571%)" offset="0.636719"/><stop stop-opacity="1" stop-color="rgb(49.624634%, 7.914734%, 34.239197%)" offset="0.640625"/><stop stop-opacity="1" stop-color="rgb(49.630737%, 7.861328%, 33.892822%)" offset="0.644531"/><stop stop-opacity="1" stop-color="rgb(49.636841%, 7.809448%, 33.547974%)" offset="0.648438"/><stop stop-opacity="1" stop-color="rgb(49.642944%, 7.757568%, 33.201599%)" offset="0.652344"/><stop stop-opacity="1" stop-color="rgb(49.649048%, 7.705688%, 32.855225%)" offset="0.65625"/><stop stop-opacity="1" stop-color="rgb(49.655151%, 7.652283%, 32.50885%)" offset="0.660156"/><stop stop-opacity="1" stop-color="rgb(49.661255%, 7.600403%, 32.164001%)" offset="0.664062"/><stop stop-opacity="1" stop-color="rgb(49.667358%, 7.548523%, 31.817627%)" offset="0.667969"/><stop stop-opacity="1" stop-color="rgb(49.674988%, 7.496643%, 31.471252%)" offset="0.671875"/><stop stop-opacity="1" stop-color="rgb(49.681091%, 7.443237%, 31.124878%)" offset="0.675781"/><stop stop-opacity="1" stop-color="rgb(49.687195%, 7.391357%, 30.778503%)" offset="0.679688"/><stop stop-opacity="1" stop-color="rgb(49.693298%, 7.337952%, 30.432129%)" offset="0.683594"/><stop stop-opacity="1" stop-color="rgb(49.699402%, 7.286072%, 30.08728%)" offset="0.6875"/><stop stop-opacity="1" stop-color="rgb(49.705505%, 7.234192%, 29.740906%)" offset="0.691406"/><stop stop-opacity="1" stop-color="rgb(49.711609%, 7.182312%, 29.394531%)" offset="0.695312"/><stop stop-opacity="1" stop-color="rgb(49.717712%, 7.128906%, 29.048157%)" offset="0.699219"/><stop stop-opacity="1" stop-color="rgb(49.723816%, 7.077026%, 28.701782%)" offset="0.703125"/><stop stop-opacity="1" stop-color="rgb(49.729919%, 7.025146%, 28.355408%)" offset="0.707031"/><stop stop-opacity="1" stop-color="rgb(49.736023%, 6.973267%, 28.010559%)" offset="0.710938"/><stop stop-opacity="1" stop-color="rgb(49.742126%, 6.919861%, 27.664185%)" offset="0.714844"/><stop stop-opacity="1" stop-color="rgb(49.749756%, 6.867981%, 27.31781%)" offset="0.71875"/><stop stop-opacity="1" stop-color="rgb(49.755859%, 6.814575%, 26.971436%)" offset="0.722656"/><stop stop-opacity="1" stop-color="rgb(49.761963%, 6.762695%, 26.625061%)" offset="0.726562"/><stop stop-opacity="1" stop-color="rgb(49.768066%, 6.710815%, 26.278687%)" offset="0.730469"/><stop stop-opacity="1" stop-color="rgb(49.77417%, 6.658936%, 25.933838%)" offset="0.734375"/><stop stop-opacity="1" stop-color="rgb(49.780273%, 6.60553%, 25.587463%)" offset="0.738281"/><stop stop-opacity="1" stop-color="rgb(49.786377%, 6.55365%, 25.241089%)" offset="0.742187"/><stop stop-opacity="1" stop-color="rgb(49.79248%, 6.50177%, 24.894714%)" offset="0.746094"/><stop stop-opacity="1" stop-color="rgb(49.798584%, 6.44989%, 24.549866%)" offset="0.75"/><stop stop-opacity="1" stop-color="rgb(49.804688%, 6.396484%, 24.203491%)" offset="0.753906"/><stop stop-opacity="1" stop-color="rgb(49.812317%, 6.344604%, 23.857117%)" offset="0.757812"/><stop stop-opacity="1" stop-color="rgb(49.81842%, 6.291199%, 23.510742%)" offset="0.761719"/><stop stop-opacity="1" stop-color="rgb(49.824524%, 6.239319%, 23.164368%)" offset="0.765625"/><stop stop-opacity="1" stop-color="rgb(49.830627%, 6.187439%, 22.817993%)" offset="0.769531"/><stop stop-opacity="1" stop-color="rgb(49.836731%, 6.135559%, 22.473145%)" offset="0.773438"/><stop stop-opacity="1" stop-color="rgb(49.842834%, 6.082153%, 22.12677%)" offset="0.777344"/><stop stop-opacity="1" stop-color="rgb(49.848938%, 6.030273%, 21.780396%)" offset="0.78125"/><stop stop-opacity="1" stop-color="rgb(49.855042%, 5.978394%, 21.434021%)" offset="0.785156"/><stop stop-opacity="1" stop-color="rgb(49.861145%, 5.926514%, 21.087646%)" offset="0.789062"/><stop stop-opacity="1" stop-color="rgb(49.867249%, 5.873108%, 20.741272%)" offset="0.792969"/><stop stop-opacity="1" stop-color="rgb(49.874878%, 5.821228%, 20.396423%)" offset="0.796875"/><stop stop-opacity="1" stop-color="rgb(49.880981%, 5.767822%, 20.050049%)" offset="0.800781"/><stop stop-opacity="1" stop-color="rgb(49.887085%, 5.715942%, 19.703674%)" offset="0.804688"/><stop stop-opacity="1" stop-color="rgb(49.893188%, 5.664062%, 19.3573%)" offset="0.808594"/><stop stop-opacity="1" stop-color="rgb(49.899292%, 5.612183%, 19.012451%)" offset="0.8125"/><stop stop-opacity="1" stop-color="rgb(49.905396%, 5.558777%, 18.666077%)" offset="0.816406"/><stop stop-opacity="1" stop-color="rgb(49.911499%, 5.506897%, 18.319702%)" offset="0.820312"/><stop stop-opacity="1" stop-color="rgb(49.917603%, 5.453491%, 17.973328%)" offset="0.824219"/><stop stop-opacity="1" stop-color="rgb(49.923706%, 5.401611%, 17.626953%)" offset="0.828125"/><stop stop-opacity="1" stop-color="rgb(49.92981%, 5.349731%, 17.280579%)" offset="0.832031"/><stop stop-opacity="1" stop-color="rgb(49.937439%, 5.297852%, 16.93573%)" offset="0.835938"/><stop stop-opacity="1" stop-color="rgb(49.943542%, 5.244446%, 16.589355%)" offset="0.839844"/><stop stop-opacity="1" stop-color="rgb(49.949646%, 5.192566%, 16.242981%)" offset="0.84375"/><stop stop-opacity="1" stop-color="rgb(49.95575%, 5.140686%, 15.896606%)" offset="0.847656"/><stop stop-opacity="1" stop-color="rgb(49.961853%, 5.088806%, 15.550232%)" offset="0.851562"/><stop stop-opacity="1" stop-color="rgb(49.967957%, 5.0354%, 15.203857%)" offset="0.855469"/><stop stop-opacity="1" stop-color="rgb(49.97406%, 4.983521%, 14.859009%)" offset="0.859375"/><stop stop-opacity="1" stop-color="rgb(49.980164%, 4.930115%, 14.512634%)" offset="0.863281"/><stop stop-opacity="1" stop-color="rgb(49.986267%, 4.878235%, 14.16626%)" offset="0.867187"/><stop stop-opacity="1" stop-color="rgb(49.992371%, 4.826355%, 13.819885%)" offset="0.871094"/><stop stop-opacity="1" stop-color="rgb(49.998474%, 4.774475%, 13.473511%)" offset="0.875"/><stop stop-opacity="1" stop-color="rgb(50.004578%, 4.721069%, 13.127136%)" offset="0.878906"/><stop stop-opacity="1" stop-color="rgb(50.012207%, 4.669189%, 12.782288%)" offset="0.882813"/><stop stop-opacity="1" stop-color="rgb(50.018311%, 4.61731%, 12.435913%)" offset="0.886719"/><stop stop-opacity="1" stop-color="rgb(50.024414%, 4.56543%, 12.089539%)" offset="0.890625"/><stop stop-opacity="1" stop-color="rgb(50.030518%, 4.512024%, 11.743164%)" offset="0.894531"/><stop stop-opacity="1" stop-color="rgb(50.036621%, 4.460144%, 11.398315%)" offset="0.898438"/><stop stop-opacity="1" stop-color="rgb(50.042725%, 4.406738%, 11.051941%)" offset="0.902344"/><stop stop-opacity="1" stop-color="rgb(50.048828%, 4.354858%, 10.705566%)" offset="0.90625"/><stop stop-opacity="1" stop-color="rgb(50.054932%, 4.302979%, 10.359192%)" offset="0.910156"/><stop stop-opacity="1" stop-color="rgb(50.061035%, 4.251099%, 10.012817%)" offset="0.914062"/><stop stop-opacity="1" stop-color="rgb(50.067139%, 4.197693%, 9.666443%)" offset="0.917969"/><stop stop-opacity="1" stop-color="rgb(50.074768%, 4.145813%, 9.321594%)" offset="0.921875"/><stop stop-opacity="1" stop-color="rgb(50.080872%, 4.093933%, 8.97522%)" offset="0.925781"/><stop stop-opacity="1" stop-color="rgb(50.086975%, 4.042053%, 8.628845%)" offset="0.929688"/><stop stop-opacity="1" stop-color="rgb(50.093079%, 3.988647%, 8.282471%)" offset="0.933594"/><stop stop-opacity="1" stop-color="rgb(50.099182%, 3.936768%, 7.936096%)" offset="0.9375"/><stop stop-opacity="1" stop-color="rgb(50.105286%, 3.883362%, 7.589722%)" offset="0.941406"/><stop stop-opacity="1" stop-color="rgb(50.111389%, 3.831482%, 7.244873%)" offset="0.945312"/><stop stop-opacity="1" stop-color="rgb(50.117493%, 3.779602%, 6.898499%)" offset="0.949219"/><stop stop-opacity="1" stop-color="rgb(50.123596%, 3.727722%, 6.552124%)" offset="0.953125"/><stop stop-opacity="1" stop-color="rgb(50.1297%, 3.674316%, 6.20575%)" offset="0.957031"/><stop stop-opacity="1" stop-color="rgb(50.137329%, 3.622437%, 5.860901%)" offset="0.960938"/><stop stop-opacity="1" stop-color="rgb(50.143433%, 3.570557%, 5.514526%)" offset="0.964844"/><stop stop-opacity="1" stop-color="rgb(50.149536%, 3.518677%, 5.168152%)" offset="0.96875"/><stop stop-opacity="1" stop-color="rgb(50.15564%, 3.465271%, 4.821777%)" offset="0.972656"/><stop stop-opacity="1" stop-color="rgb(50.161743%, 3.413391%, 4.475403%)" offset="0.976562"/><stop stop-opacity="1" stop-color="rgb(50.167847%, 3.359985%, 4.129028%)" offset="0.980469"/><stop stop-opacity="1" stop-color="rgb(50.17395%, 3.308105%, 3.78418%)" offset="0.984375"/><stop stop-opacity="1" stop-color="rgb(50.180054%, 3.256226%, 3.437805%)" offset="0.988281"/><stop stop-opacity="1" stop-color="rgb(50.186157%, 3.204346%, 3.091431%)" offset="0.992187"/><stop stop-opacity="1" stop-color="rgb(50.192261%, 3.15094%, 2.745056%)" offset="0.996094"/><stop stop-opacity="1" stop-color="rgb(50.19989%, 3.09906%, 2.398682%)" offset="1"/></linearGradient><clipPath id="6d67d49b92"><path d="M 6.496094 6.050781 L 25.148438 6.050781 L 25.148438 24.703125 L 6.496094 24.703125 Z M 6.496094 6.050781 " clip-rule="nonzero"/></clipPath></defs><g clip-path="url(#cce928b4c0)"><g clip-path="url(#6d112c1e87)"><path fill="url(#136ca2e3b1)" d="M 0.449219 0.015625 L 0.449219 30.503906 L 31.039062 30.503906 L 31.039062 0.015625 Z M 0.449219 0.015625 " fill-rule="nonzero"/></g></g><g fill="#ffffff" fill-opacity="1"><g transform="translate(38.560393, 20.990477)"><g><path d="M 0.78125 -1.59375 C 0.519531 -1.914062 0.390625 -2.207031 0.390625 -2.46875 C 0.390625 -2.726562 0.609375 -3.078125 1.046875 -3.515625 C 1.304688 -3.753906 1.578125 -3.875 1.859375 -3.875 C 2.148438 -3.875 2.550781 -3.617188 3.0625 -3.109375 C 3.207031 -2.929688 3.410156 -2.765625 3.671875 -2.609375 C 3.941406 -2.453125 4.191406 -2.375 4.421875 -2.375 C 5.378906 -2.375 5.859375 -2.765625 5.859375 -3.546875 C 5.859375 -3.773438 5.722656 -3.96875 5.453125 -4.125 C 5.191406 -4.289062 4.863281 -4.410156 4.46875 -4.484375 C 4.082031 -4.554688 3.664062 -4.671875 3.21875 -4.828125 C 2.769531 -4.984375 2.347656 -5.171875 1.953125 -5.390625 C 1.566406 -5.609375 1.238281 -5.953125 0.96875 -6.421875 C 0.707031 -6.890625 0.578125 -7.453125 0.578125 -8.109375 C 0.578125 -9.003906 0.914062 -9.789062 1.59375 -10.46875 C 2.269531 -11.144531 3.1875 -11.484375 4.34375 -11.484375 C 4.957031 -11.484375 5.519531 -11.398438 6.03125 -11.234375 C 6.539062 -11.078125 6.894531 -10.914062 7.09375 -10.75 L 7.46875 -10.453125 C 7.789062 -10.160156 7.953125 -9.910156 7.953125 -9.703125 C 7.953125 -9.492188 7.828125 -9.210938 7.578125 -8.859375 C 7.234375 -8.347656 6.875 -8.09375 6.5 -8.09375 C 6.28125 -8.09375 6.015625 -8.191406 5.703125 -8.390625 C 5.671875 -8.410156 5.609375 -8.460938 5.515625 -8.546875 C 5.429688 -8.628906 5.351562 -8.695312 5.28125 -8.75 C 5.0625 -8.882812 4.785156 -8.953125 4.453125 -8.953125 C 4.117188 -8.953125 3.84375 -8.867188 3.625 -8.703125 C 3.40625 -8.546875 3.296875 -8.328125 3.296875 -8.046875 C 3.296875 -7.765625 3.425781 -7.535156 3.6875 -7.359375 C 3.945312 -7.191406 4.269531 -7.078125 4.65625 -7.015625 C 5.050781 -6.953125 5.476562 -6.851562 5.9375 -6.71875 C 6.40625 -6.59375 6.832031 -6.4375 7.21875 -6.25 C 7.613281 -6.070312 7.941406 -5.753906 8.203125 -5.296875 C 8.460938 -4.835938 8.59375 -4.273438 8.59375 -3.609375 C 8.59375 -2.941406 8.457031 -2.351562 8.1875 -1.84375 C 7.925781 -1.332031 7.582031 -0.9375 7.15625 -0.65625 C 6.320312 -0.113281 5.429688 0.15625 4.484375 0.15625 C 4.003906 0.15625 3.546875 0.0976562 3.109375 -0.015625 C 2.679688 -0.140625 2.332031 -0.289062 2.0625 -0.46875 C 1.519531 -0.789062 1.140625 -1.109375 0.921875 -1.421875 Z M 0.78125 -1.59375 "/></g></g></g><g fill="#ffffff" fill-opacity="1"><g transform="translate(47.539107, 20.990477)"><g><path d="M 0.390625 -4.046875 C 0.390625 -5.285156 0.816406 -6.300781 1.671875 -7.09375 C 2.535156 -7.894531 3.519531 -8.296875 4.625 -8.296875 C 5.738281 -8.296875 6.722656 -7.898438 7.578125 -7.109375 C 8.429688 -6.316406 8.859375 -5.300781 8.859375 -4.0625 C 8.859375 -3.207031 8.632812 -2.445312 8.1875 -1.78125 C 7.75 -1.125 7.210938 -0.640625 6.578125 -0.328125 C 5.953125 -0.015625 5.300781 0.140625 4.625 0.140625 C 3.945312 0.140625 3.285156 -0.0234375 2.640625 -0.359375 C 2.003906 -0.691406 1.46875 -1.179688 1.03125 -1.828125 C 0.601562 -2.484375 0.390625 -3.222656 0.390625 -4.046875 Z M 3.59375 -2.953125 C 3.925781 -2.703125 4.257812 -2.578125 4.59375 -2.578125 C 4.9375 -2.578125 5.273438 -2.703125 5.609375 -2.953125 C 5.953125 -3.210938 6.125 -3.59375 6.125 -4.09375 C 6.125 -4.601562 5.960938 -4.976562 5.640625 -5.21875 C 5.328125 -5.46875 4.984375 -5.59375 4.609375 -5.59375 C 4.242188 -5.59375 3.898438 -5.460938 3.578125 -5.203125 C 3.265625 -4.953125 3.109375 -4.578125 3.109375 -4.078125 C 3.109375 -3.578125 3.269531 -3.203125 3.59375 -2.953125 Z M 3.59375 -2.953125 "/></g></g></g><g fill="#ffffff" fill-opacity="1"><g transform="translate(56.779636, 20.990477)"><g><path d="M 6.125 -8.03125 C 6.320312 -7.96875 6.484375 -7.859375 6.609375 -7.703125 C 6.742188 -7.554688 6.8125 -7.316406 6.8125 -6.984375 C 6.8125 -6.660156 6.710938 -6.300781 6.515625 -5.90625 C 6.316406 -5.519531 6.035156 -5.328125 5.671875 -5.328125 C 5.484375 -5.328125 5.304688 -5.367188 5.140625 -5.453125 C 4.972656 -5.535156 4.75 -5.578125 4.46875 -5.578125 C 4.1875 -5.578125 3.925781 -5.476562 3.6875 -5.28125 C 3.445312 -5.082031 3.328125 -4.847656 3.328125 -4.578125 L 3.328125 -1.34375 C 3.328125 -1.101562 3.316406 -0.921875 3.296875 -0.796875 C 3.285156 -0.679688 3.238281 -0.550781 3.15625 -0.40625 C 3 -0.132812 2.597656 0 1.953125 0 C 1.460938 0 1.109375 -0.0859375 0.890625 -0.265625 C 0.722656 -0.410156 0.628906 -0.628906 0.609375 -0.921875 C 0.609375 -1.023438 0.609375 -1.175781 0.609375 -1.375 L 0.609375 -6.78125 C 0.609375 -7.019531 0.613281 -7.195312 0.625 -7.3125 C 0.644531 -7.425781 0.691406 -7.554688 0.765625 -7.703125 C 0.910156 -7.984375 1.3125 -8.125 1.96875 -8.125 C 2.582031 -8.125 2.96875 -8.003906 3.125 -7.765625 C 3.238281 -7.597656 3.296875 -7.425781 3.296875 -7.25 C 3.347656 -7.320312 3.421875 -7.410156 3.515625 -7.515625 C 3.617188 -7.617188 3.828125 -7.757812 4.140625 -7.9375 C 4.460938 -8.113281 4.742188 -8.203125 4.984375 -8.203125 C 5.222656 -8.203125 5.425781 -8.1875 5.59375 -8.15625 C 5.757812 -8.132812 5.9375 -8.09375 6.125 -8.03125 Z M 6.125 -8.03125 "/></g></g></g><g fill="#ffffff" fill-opacity="1"><g transform="translate(63.81784, 20.990477)"><g><path d="M 0.78125 -1.59375 C 0.519531 -1.914062 0.390625 -2.207031 0.390625 -2.46875 C 0.390625 -2.726562 0.609375 -3.078125 1.046875 -3.515625 C 1.304688 -3.753906 1.578125 -3.875 1.859375 -3.875 C 2.148438 -3.875 2.550781 -3.617188 3.0625 -3.109375 C 3.207031 -2.929688 3.410156 -2.765625 3.671875 -2.609375 C 3.941406 -2.453125 4.191406 -2.375 4.421875 -2.375 C 5.378906 -2.375 5.859375 -2.765625 5.859375 -3.546875 C 5.859375 -3.773438 5.722656 -3.96875 5.453125 -4.125 C 5.191406 -4.289062 4.863281 -4.410156 4.46875 -4.484375 C 4.082031 -4.554688 3.664062 -4.671875 3.21875 -4.828125 C 2.769531 -4.984375 2.347656 -5.171875 1.953125 -5.390625 C 1.566406 -5.609375 1.238281 -5.953125 0.96875 -6.421875 C 0.707031 -6.890625 0.578125 -7.453125 0.578125 -8.109375 C 0.578125 -9.003906 0.914062 -9.789062 1.59375 -10.46875 C 2.269531 -11.144531 3.1875 -11.484375 4.34375 -11.484375 C 4.957031 -11.484375 5.519531 -11.398438 6.03125 -11.234375 C 6.539062 -11.078125 6.894531 -10.914062 7.09375 -10.75 L 7.46875 -10.453125 C 7.789062 -10.160156 7.953125 -9.910156 7.953125 -9.703125 C 7.953125 -9.492188 7.828125 -9.210938 7.578125 -8.859375 C 7.234375 -8.347656 6.875 -8.09375 6.5 -8.09375 C 6.28125 -8.09375 6.015625 -8.191406 5.703125 -8.390625 C 5.671875 -8.410156 5.609375 -8.460938 5.515625 -8.546875 C 5.429688 -8.628906 5.351562 -8.695312 5.28125 -8.75 C 5.0625 -8.882812 4.785156 -8.953125 4.453125 -8.953125 C 4.117188 -8.953125 3.84375 -8.867188 3.625 -8.703125 C 3.40625 -8.546875 3.296875 -8.328125 3.296875 -8.046875 C 3.296875 -7.765625 3.425781 -7.535156 3.6875 -7.359375 C 3.945312 -7.191406 4.269531 -7.078125 4.65625 -7.015625 C 5.050781 -6.953125 5.476562 -6.851562 5.9375 -6.71875 C 6.40625 -6.59375 6.832031 -6.4375 7.21875 -6.25 C 7.613281 -6.070312 7.941406 -5.753906 8.203125 -5.296875 C 8.460938 -4.835938 8.59375 -4.273438 8.59375 -3.609375 C 8.59375 -2.941406 8.457031 -2.351562 8.1875 -1.84375 C 7.925781 -1.332031 7.582031 -0.9375 7.15625 -0.65625 C 6.320312 -0.113281 5.429688 0.15625 4.484375 0.15625 C 4.003906 0.15625 3.546875 0.0976562 3.109375 -0.015625 C 2.679688 -0.140625 2.332031 -0.289062 2.0625 -0.46875 C 1.519531 -0.789062 1.140625 -1.109375 0.921875 -1.421875 Z M 0.78125 -1.59375 "/></g></g></g><g fill="#ffffff" fill-opacity="1"><g transform="translate(72.796554, 20.990477)"><g><path d="M 8 -10.875 C 8.101562 -11.039062 8.25 -11.15625 8.4375 -11.21875 C 8.632812 -11.28125 8.878906 -11.3125 9.171875 -11.3125 C 9.460938 -11.3125 9.695312 -11.285156 9.875 -11.234375 C 10.050781 -11.179688 10.1875 -11.117188 10.28125 -11.046875 C 10.375 -10.972656 10.4375 -10.863281 10.46875 -10.71875 C 10.53125 -10.539062 10.5625 -10.273438 10.5625 -9.921875 L 10.5625 -5.265625 C 10.5625 -3.910156 10.144531 -2.679688 9.3125 -1.578125 C 8.894531 -1.046875 8.363281 -0.617188 7.71875 -0.296875 C 7.070312 0.0234375 6.351562 0.1875 5.5625 0.1875 C 4.78125 0.1875 4.066406 0.0234375 3.421875 -0.296875 C 2.785156 -0.628906 2.265625 -1.066406 1.859375 -1.609375 C 1.023438 -2.691406 0.609375 -3.921875 0.609375 -5.296875 L 0.609375 -9.9375 C 0.609375 -10.1875 0.613281 -10.367188 0.625 -10.484375 C 0.644531 -10.597656 0.695312 -10.734375 0.78125 -10.890625 C 0.863281 -11.046875 1.003906 -11.15625 1.203125 -11.21875 C 1.398438 -11.28125 1.660156 -11.3125 1.984375 -11.3125 C 2.316406 -11.3125 2.578125 -11.28125 2.765625 -11.21875 C 2.960938 -11.15625 3.097656 -11.046875 3.171875 -10.890625 C 3.296875 -10.648438 3.359375 -10.328125 3.359375 -9.921875 L 3.359375 -5.296875 C 3.359375 -4.671875 3.515625 -4.078125 3.828125 -3.515625 C 3.972656 -3.222656 4.195312 -2.988281 4.5 -2.8125 C 4.8125 -2.644531 5.179688 -2.5625 5.609375 -2.5625 C 6.359375 -2.5625 6.914062 -2.835938 7.28125 -3.390625 C 7.65625 -3.941406 7.84375 -4.582031 7.84375 -5.3125 L 7.84375 -10.03125 C 7.84375 -10.425781 7.894531 -10.707031 8 -10.875 Z M 8 -10.875 "/></g></g></g><g fill="#ffffff" fill-opacity="1"><g transform="translate(83.977596, 20.990477)"><g/></g></g><g fill="#ffffff" fill-opacity="1"><g transform="translate(87.874018, 20.990477)"><g><path d="M 6.375 -11.296875 C 6.78125 -11.296875 7.078125 -11.257812 7.265625 -11.1875 C 7.453125 -11.125 7.585938 -11.015625 7.671875 -10.859375 C 7.785156 -10.617188 7.84375 -10.300781 7.84375 -9.90625 L 7.84375 -3.9375 C 7.84375 -2.863281 7.453125 -1.910156 6.671875 -1.078125 C 5.890625 -0.253906 4.894531 0.15625 3.6875 0.15625 C 3.007812 0.15625 2.40625 0.00390625 1.875 -0.296875 C 1.40625 -0.546875 1.078125 -0.773438 0.890625 -0.984375 L 0.765625 -1.109375 C 0.410156 -1.484375 0.234375 -1.804688 0.234375 -2.078125 C 0.234375 -2.359375 0.410156 -2.679688 0.765625 -3.046875 C 1.128906 -3.421875 1.445312 -3.609375 1.71875 -3.609375 C 2 -3.609375 2.304688 -3.4375 2.640625 -3.09375 C 2.984375 -2.757812 3.351562 -2.59375 3.75 -2.59375 C 4.144531 -2.59375 4.46875 -2.722656 4.71875 -2.984375 C 4.976562 -3.253906 5.109375 -3.609375 5.109375 -4.046875 L 5.109375 -9.8125 C 5.109375 -10.425781 5.210938 -10.820312 5.421875 -11 C 5.660156 -11.195312 5.976562 -11.296875 6.375 -11.296875 Z M 6.375 -11.296875 "/></g></g></g><g fill="#ffffff" fill-opacity="1"><g transform="translate(96.329102, 20.990477)"><g><path d="M 0.390625 -4.046875 C 0.390625 -5.285156 0.816406 -6.300781 1.671875 -7.09375 C 2.535156 -7.894531 3.519531 -8.296875 4.625 -8.296875 C 5.738281 -8.296875 6.722656 -7.898438 7.578125 -7.109375 C 8.429688 -6.316406 8.859375 -5.300781 8.859375 -4.0625 C 8.859375 -3.207031 8.632812 -2.445312 8.1875 -1.78125 C 7.75 -1.125 7.210938 -0.640625 6.578125 -0.328125 C 5.953125 -0.015625 5.300781 0.140625 4.625 0.140625 C 3.945312 0.140625 3.285156 -0.0234375 2.640625 -0.359375 C 2.003906 -0.691406 1.46875 -1.179688 1.03125 -1.828125 C 0.601562 -2.484375 0.390625 -3.222656 0.390625 -4.046875 Z M 3.59375 -2.953125 C 3.925781 -2.703125 4.257812 -2.578125 4.59375 -2.578125 C 4.9375 -2.578125 5.273438 -2.703125 5.609375 -2.953125 C 5.953125 -3.210938 6.125 -3.59375 6.125 -4.09375 C 6.125 -4.601562 5.960938 -4.976562 5.640625 -5.21875 C 5.328125 -5.46875 4.984375 -5.59375 4.609375 -5.59375 C 4.242188 -5.59375 3.898438 -5.460938 3.578125 -5.203125 C 3.265625 -4.953125 3.109375 -4.578125 3.109375 -4.078125 C 3.109375 -3.578125 3.269531 -3.203125 3.59375 -2.953125 Z M 3.59375 -2.953125 "/></g></g></g><g fill="#ffffff" fill-opacity="1"><g transform="translate(105.569631, 20.990477)"><g><path d="M 5.0625 -8.109375 C 5.976562 -8.109375 6.816406 -7.703125 7.578125 -6.890625 C 8.347656 -6.078125 8.734375 -5.132812 8.734375 -4.0625 C 8.734375 -2.988281 8.351562 -2.046875 7.59375 -1.234375 C 6.832031 -0.429688 6.015625 -0.03125 5.140625 -0.03125 C 4.273438 -0.03125 3.65625 -0.273438 3.28125 -0.765625 C 3.195312 -0.265625 2.753906 -0.015625 1.953125 -0.015625 C 1.304688 -0.015625 0.910156 -0.15625 0.765625 -0.4375 C 0.691406 -0.582031 0.644531 -0.710938 0.625 -0.828125 C 0.613281 -0.953125 0.609375 -1.132812 0.609375 -1.375 L 0.609375 -10.5625 C 0.609375 -10.800781 0.613281 -10.976562 0.625 -11.09375 C 0.644531 -11.21875 0.691406 -11.351562 0.765625 -11.5 C 0.910156 -11.769531 1.3125 -11.90625 1.96875 -11.90625 C 2.613281 -11.90625 3.003906 -11.769531 3.140625 -11.5 C 3.222656 -11.34375 3.269531 -11.203125 3.28125 -11.078125 C 3.300781 -10.960938 3.3125 -10.785156 3.3125 -10.546875 L 3.3125 -7.34375 C 3.71875 -7.851562 4.300781 -8.109375 5.0625 -8.109375 Z M 3.71875 -3.125 C 3.96875 -2.851562 4.28125 -2.71875 4.65625 -2.71875 C 5.039062 -2.71875 5.367188 -2.851562 5.640625 -3.125 C 5.910156 -3.40625 6.046875 -3.710938 6.046875 -4.046875 C 6.046875 -4.390625 5.921875 -4.703125 5.671875 -4.984375 C 5.421875 -5.265625 5.085938 -5.40625 4.671875 -5.40625 C 4.265625 -5.40625 3.941406 -5.257812 3.703125 -4.96875 C 3.460938 -4.6875 3.34375 -4.378906 3.34375 -4.046875 C 3.34375 -3.710938 3.46875 -3.40625 3.71875 -3.125 Z M 3.71875 -3.125 "/></g></g></g><g fill="#ffffff" fill-opacity="1"><g transform="translate(114.686955, 20.990477)"><g/></g></g><g fill="#ffffff" fill-opacity="1"><g transform="translate(118.58338, 20.990477)"><g><path d="M 8.9375 -9.015625 C 9.207031 -8.472656 9.34375 -7.863281 9.34375 -7.1875 C 9.34375 -6.519531 9.207031 -5.914062 8.9375 -5.375 C 8.675781 -4.84375 8.335938 -4.414062 7.921875 -4.09375 C 7.066406 -3.4375 6.179688 -3.109375 5.265625 -3.109375 L 3.34375 -3.109375 L 3.34375 -1.375 C 3.34375 -1.132812 3.332031 -0.953125 3.3125 -0.828125 C 3.300781 -0.710938 3.253906 -0.582031 3.171875 -0.4375 C 3.023438 -0.15625 2.625 -0.015625 1.96875 -0.015625 C 1.25 -0.015625 0.828125 -0.203125 0.703125 -0.578125 C 0.640625 -0.753906 0.609375 -1.023438 0.609375 -1.390625 L 0.609375 -9.9375 C 0.609375 -10.175781 0.613281 -10.351562 0.625 -10.46875 C 0.644531 -10.582031 0.695312 -10.71875 0.78125 -10.875 C 0.925781 -11.15625 1.328125 -11.296875 1.984375 -11.296875 L 5.28125 -11.296875 C 6.1875 -11.296875 7.066406 -10.96875 7.921875 -10.3125 C 8.335938 -9.988281 8.675781 -9.554688 8.9375 -9.015625 Z M 5.28125 -5.84375 C 5.59375 -5.84375 5.894531 -5.953125 6.1875 -6.171875 C 6.488281 -6.398438 6.640625 -6.738281 6.640625 -7.1875 C 6.640625 -7.644531 6.488281 -7.988281 6.1875 -8.21875 C 5.894531 -8.445312 5.585938 -8.5625 5.265625 -8.5625 L 3.34375 -8.5625 L 3.34375 -5.84375 Z M 5.28125 -5.84375 "/></g></g></g><g fill="#ffffff" fill-opacity="1"><g transform="translate(128.316741, 20.990477)"><g><path d="M 0.390625 -4.046875 C 0.390625 -5.285156 0.816406 -6.300781 1.671875 -7.09375 C 2.535156 -7.894531 3.519531 -8.296875 4.625 -8.296875 C 5.738281 -8.296875 6.722656 -7.898438 7.578125 -7.109375 C 8.429688 -6.316406 8.859375 -5.300781 8.859375 -4.0625 C 8.859375 -3.207031 8.632812 -2.445312 8.1875 -1.78125 C 7.75 -1.125 7.210938 -0.640625 6.578125 -0.328125 C 5.953125 -0.015625 5.300781 0.140625 4.625 0.140625 C 3.945312 0.140625 3.285156 -0.0234375 2.640625 -0.359375 C 2.003906 -0.691406 1.46875 -1.179688 1.03125 -1.828125 C 0.601562 -2.484375 0.390625 -3.222656 0.390625 -4.046875 Z M 3.59375 -2.953125 C 3.925781 -2.703125 4.257812 -2.578125 4.59375 -2.578125 C 4.9375 -2.578125 5.273438 -2.703125 5.609375 -2.953125 C 5.953125 -3.210938 6.125 -3.59375 6.125 -4.09375 C 6.125 -4.601562 5.960938 -4.976562 5.640625 -5.21875 C 5.328125 -5.46875 4.984375 -5.59375 4.609375 -5.59375 C 4.242188 -5.59375 3.898438 -5.460938 3.578125 -5.203125 C 3.265625 -4.953125 3.109375 -4.578125 3.109375 -4.078125 C 3.109375 -3.578125 3.269531 -3.203125 3.59375 -2.953125 Z M 3.59375 -2.953125 "/></g></g></g><g fill="#ffffff" fill-opacity="1"><g transform="translate(137.55727, 20.990477)"><g><path d="M 6.125 -8.03125 C 6.320312 -7.96875 6.484375 -7.859375 6.609375 -7.703125 C 6.742188 -7.554688 6.8125 -7.316406 6.8125 -6.984375 C 6.8125 -6.660156 6.710938 -6.300781 6.515625 -5.90625 C 6.316406 -5.519531 6.035156 -5.328125 5.671875 -5.328125 C 5.484375 -5.328125 5.304688 -5.367188 5.140625 -5.453125 C 4.972656 -5.535156 4.75 -5.578125 4.46875 -5.578125 C 4.1875 -5.578125 3.925781 -5.476562 3.6875 -5.28125 C 3.445312 -5.082031 3.328125 -4.847656 3.328125 -4.578125 L 3.328125 -1.34375 C 3.328125 -1.101562 3.316406 -0.921875 3.296875 -0.796875 C 3.285156 -0.679688 3.238281 -0.550781 3.15625 -0.40625 C 3 -0.132812 2.597656 0 1.953125 0 C 1.460938 0 1.109375 -0.0859375 0.890625 -0.265625 C 0.722656 -0.410156 0.628906 -0.628906 0.609375 -0.921875 C 0.609375 -1.023438 0.609375 -1.175781 0.609375 -1.375 L 0.609375 -6.78125 C 0.609375 -7.019531 0.613281 -7.195312 0.625 -7.3125 C 0.644531 -7.425781 0.691406 -7.554688 0.765625 -7.703125 C 0.910156 -7.984375 1.3125 -8.125 1.96875 -8.125 C 2.582031 -8.125 2.96875 -8.003906 3.125 -7.765625 C 3.238281 -7.597656 3.296875 -7.425781 3.296875 -7.25 C 3.347656 -7.320312 3.421875 -7.410156 3.515625 -7.515625 C 3.617188 -7.617188 3.828125 -7.757812 4.140625 -7.9375 C 4.460938 -8.113281 4.742188 -8.203125 4.984375 -8.203125 C 5.222656 -8.203125 5.425781 -8.1875 5.59375 -8.15625 C 5.757812 -8.132812 5.9375 -8.09375 6.125 -8.03125 Z M 6.125 -8.03125 "/></g></g></g><g fill="#ffffff" fill-opacity="1"><g transform="translate(144.595474, 20.990477)"><g><path d="M 5.328125 -5.390625 L 4.328125 -5.453125 L 4.328125 -3.328125 C 4.328125 -3.046875 4.367188 -2.84375 4.453125 -2.71875 C 4.546875 -2.601562 4.710938 -2.546875 4.953125 -2.546875 C 5.191406 -2.546875 5.375 -2.535156 5.5 -2.515625 C 5.632812 -2.503906 5.773438 -2.457031 5.921875 -2.375 C 6.148438 -2.238281 6.265625 -1.894531 6.265625 -1.34375 C 6.265625 -0.695312 6.125 -0.300781 5.84375 -0.15625 C 5.6875 -0.0820312 5.546875 -0.0351562 5.421875 -0.015625 C 5.304688 -0.00390625 5.140625 0 4.921875 0 C 3.847656 0 3.035156 -0.238281 2.484375 -0.71875 C 1.929688 -1.207031 1.65625 -2.023438 1.65625 -3.171875 L 1.65625 -5.453125 C 1.457031 -5.421875 1.242188 -5.40625 1.015625 -5.40625 C 0.785156 -5.40625 0.597656 -5.492188 0.453125 -5.671875 C 0.304688 -5.847656 0.234375 -6.144531 0.234375 -6.5625 C 0.234375 -6.976562 0.257812 -7.28125 0.3125 -7.46875 C 0.363281 -7.664062 0.4375 -7.804688 0.53125 -7.890625 C 0.6875 -8.023438 0.890625 -8.09375 1.140625 -8.09375 L 1.65625 -8.03125 L 1.65625 -9.609375 C 1.65625 -9.847656 1.660156 -10.023438 1.671875 -10.140625 C 1.679688 -10.253906 1.726562 -10.375 1.8125 -10.5 C 1.945312 -10.757812 2.34375 -10.890625 3 -10.890625 C 3.695312 -10.890625 4.113281 -10.703125 4.25 -10.328125 C 4.300781 -10.160156 4.328125 -9.894531 4.328125 -9.53125 L 4.328125 -8.03125 C 4.773438 -8.070312 5.113281 -8.09375 5.34375 -8.09375 C 5.582031 -8.09375 5.757812 -8.082031 5.875 -8.0625 C 5.988281 -8.050781 6.125 -8.003906 6.28125 -7.921875 C 6.550781 -7.785156 6.6875 -7.390625 6.6875 -6.734375 C 6.6875 -6.085938 6.546875 -5.691406 6.265625 -5.546875 C 6.117188 -5.472656 5.984375 -5.425781 5.859375 -5.40625 C 5.742188 -5.394531 5.566406 -5.390625 5.328125 -5.390625 Z M 5.328125 -5.390625 "/></g></g></g><g fill="#ffffff" fill-opacity="1"><g transform="translate(151.510473, 20.990477)"><g><path d="M 5.890625 -7.25 C 5.953125 -7.832031 6.359375 -8.125 7.109375 -8.125 C 7.503906 -8.125 7.796875 -8.09375 7.984375 -8.03125 C 8.179688 -7.96875 8.316406 -7.859375 8.390625 -7.703125 C 8.472656 -7.546875 8.519531 -7.410156 8.53125 -7.296875 C 8.550781 -7.179688 8.5625 -7.003906 8.5625 -6.765625 L 8.5625 -1.375 C 8.5625 -1.132812 8.550781 -0.953125 8.53125 -0.828125 C 8.519531 -0.710938 8.476562 -0.582031 8.40625 -0.4375 C 8.269531 -0.164062 7.921875 -0.03125 7.359375 -0.03125 C 6.796875 -0.03125 6.421875 -0.0976562 6.234375 -0.234375 C 6.046875 -0.378906 5.9375 -0.582031 5.90625 -0.84375 C 5.519531 -0.300781 4.882812 -0.03125 4 -0.03125 C 3.113281 -0.03125 2.289062 -0.4375 1.53125 -1.25 C 0.769531 -2.0625 0.390625 -3.003906 0.390625 -4.078125 C 0.390625 -5.148438 0.769531 -6.085938 1.53125 -6.890625 C 2.300781 -7.703125 3.140625 -8.109375 4.046875 -8.109375 C 4.398438 -8.109375 4.71875 -8.046875 5 -7.921875 C 5.289062 -7.796875 5.492188 -7.675781 5.609375 -7.5625 C 5.722656 -7.457031 5.816406 -7.351562 5.890625 -7.25 Z M 3.078125 -4.046875 C 3.078125 -3.710938 3.207031 -3.410156 3.46875 -3.140625 C 3.738281 -2.867188 4.0625 -2.734375 4.4375 -2.734375 C 4.820312 -2.734375 5.140625 -2.867188 5.390625 -3.140625 C 5.648438 -3.421875 5.78125 -3.726562 5.78125 -4.0625 C 5.78125 -4.394531 5.65625 -4.703125 5.40625 -4.984375 C 5.164062 -5.273438 4.84375 -5.421875 4.4375 -5.421875 C 4.039062 -5.421875 3.710938 -5.273438 3.453125 -4.984375 C 3.203125 -4.703125 3.078125 -4.390625 3.078125 -4.046875 Z M 3.078125 -4.046875 "/></g></g></g><g fill="#ffffff" fill-opacity="1"><g transform="translate(160.689399, 20.990477)"><g><path d="M 0.609375 -10.578125 C 0.609375 -10.816406 0.613281 -10.992188 0.625 -11.109375 C 0.644531 -11.234375 0.691406 -11.375 0.765625 -11.53125 C 0.910156 -11.800781 1.3125 -11.9375 1.96875 -11.9375 C 2.59375 -11.9375 2.984375 -11.800781 3.140625 -11.53125 C 3.222656 -11.375 3.269531 -11.234375 3.28125 -11.109375 C 3.300781 -10.984375 3.3125 -10.800781 3.3125 -10.5625 L 3.3125 -3.4375 C 3.3125 -3.0625 3.34375 -2.828125 3.40625 -2.734375 C 3.46875 -2.640625 3.601562 -2.59375 3.8125 -2.59375 C 4.019531 -2.59375 4.160156 -2.582031 4.234375 -2.5625 C 4.304688 -2.550781 4.394531 -2.507812 4.5 -2.4375 C 4.707031 -2.300781 4.8125 -1.9375 4.8125 -1.34375 C 4.8125 -0.695312 4.707031 -0.300781 4.5 -0.15625 C 4.226562 0.03125 3.59375 0.0625 2.59375 -0.0625 C 1.800781 -0.164062 1.285156 -0.425781 1.046875 -0.84375 C 0.753906 -1.351562 0.609375 -2.15625 0.609375 -3.25 Z M 0.609375 -10.578125 "/></g></g></g><g clip-path="url(#6d67d49b92)"><path fill="#ffffff" d="M 19.503906 6.761719 C 20.632812 7.226562 21.628906 7.898438 22.464844 8.734375 C 23.300781 9.570312 23.972656 10.566406 24.4375 11.695312 C 24.898438 12.816406 25.148438 14.058594 25.148438 15.375 C 25.148438 16.695312 24.898438 17.933594 24.4375 19.054688 C 23.972656 20.183594 23.300781 21.179688 22.464844 22.015625 C 21.628906 22.855469 20.632812 23.523438 19.503906 23.992188 C 18.382812 24.449219 17.140625 24.703125 15.824219 24.703125 C 14.503906 24.703125 13.265625 24.449219 12.144531 23.992188 C 11.015625 23.523438 10.019531 22.855469 9.183594 22.015625 C 8.34375 21.179688 7.671875 20.183594 7.207031 19.054688 C 6.75 17.933594 6.496094 16.695312 6.496094 15.375 C 6.496094 14.058594 6.75 12.816406 7.207031 11.695312 C 7.671875 10.566406 8.34375 9.570312 9.183594 8.734375 C 10.019531 7.898438 11.015625 7.226562 12.144531 6.761719 C 13.265625 6.300781 14.503906 6.050781 15.824219 6.050781 C 17.140625 6.050781 18.382812 6.300781 19.503906 6.761719 Z M 19.28125 23.429688 C 20.324219 23.003906 21.265625 22.371094 22.046875 21.597656 C 22.820312 20.816406 23.453125 19.875 23.878906 18.835938 C 24.3125 17.777344 24.550781 16.617188 24.550781 15.375 C 24.550781 14.136719 24.3125 12.976562 23.878906 11.917969 C 23.453125 10.875 22.820312 9.933594 22.046875 9.152344 C 21.265625 8.378906 20.324219 7.746094 19.28125 7.320312 C 18.222656 6.886719 17.0625 6.648438 15.824219 6.648438 C 14.582031 6.648438 13.421875 6.886719 12.363281 7.320312 C 11.320312 7.746094 10.382812 8.378906 9.601562 9.152344 C 8.828125 9.933594 8.195312 10.875 7.769531 11.917969 C 7.332031 12.976562 7.097656 14.136719 7.097656 15.375 C 7.097656 16.617188 7.332031 17.777344 7.769531 18.835938 C 8.195312 19.875 8.828125 20.816406 9.601562 21.597656 C 10.382812 22.371094 11.320312 23.003906 12.363281 23.429688 C 13.421875 23.863281 14.582031 24.101562 15.824219 24.101562 C 17.0625 24.101562 18.222656 23.863281 19.28125 23.429688 Z M 19.28125 23.429688 " fill-opacity="1" fill-rule="evenodd"/></g><path fill="#ffffff" d="M 14.257812 11.601562 C 14.242188 11.601562 14.226562 11.609375 14.210938 11.617188 C 14.171875 11.632812 14.140625 11.65625 14.109375 11.679688 C 14.085938 11.710938 14.0625 11.742188 14.046875 11.78125 C 14.039062 11.796875 14.03125 11.8125 14.03125 11.828125 C 14.023438 11.84375 14.023438 11.851562 14.023438 11.871094 L 14.023438 12.175781 L 17.578125 12.175781 L 17.578125 11.871094 C 17.578125 11.851562 17.578125 11.84375 17.566406 11.828125 C 17.566406 11.8125 17.558594 11.796875 17.550781 11.78125 C 17.535156 11.75 17.511719 11.710938 17.480469 11.6875 C 17.449219 11.65625 17.417969 11.632812 17.378906 11.617188 C 17.363281 11.609375 17.347656 11.601562 17.332031 11.601562 C 17.316406 11.59375 17.308594 11.59375 17.292969 11.59375 L 14.300781 11.59375 C 14.28125 11.59375 14.273438 11.59375 14.257812 11.601562 Z M 13.421875 11.871094 C 13.421875 11.804688 13.429688 11.75 13.445312 11.695312 C 13.453125 11.640625 13.476562 11.585938 13.5 11.53125 C 13.539062 11.425781 13.613281 11.339844 13.691406 11.261719 C 13.769531 11.183594 13.855469 11.109375 13.960938 11.070312 C 14.015625 11.046875 14.070312 11.023438 14.125 11.015625 C 14.179688 11 14.234375 10.992188 14.300781 10.992188 L 17.292969 10.992188 C 17.355469 10.992188 17.410156 11 17.464844 11.015625 C 17.519531 11.023438 17.578125 11.046875 17.632812 11.070312 C 17.734375 11.109375 17.820312 11.183594 17.898438 11.261719 C 17.988281 11.332031 18.050781 11.425781 18.097656 11.53125 C 18.121094 11.578125 18.144531 11.632812 18.152344 11.6875 C 18.167969 11.75 18.175781 11.804688 18.175781 11.871094 L 18.175781 12.175781 L 20.355469 12.175781 C 20.8125 12.175781 21.28125 12.636719 21.28125 13.09375 L 21.28125 13.921875 L 16.488281 15.492188 C 16.453125 15.476562 16.421875 15.46875 16.398438 15.460938 C 16.367188 15.453125 16.328125 15.453125 16.296875 15.453125 L 15.300781 15.453125 C 15.269531 15.453125 15.230469 15.453125 15.199219 15.460938 C 15.175781 15.46875 15.144531 15.476562 15.121094 15.484375 L 10.328125 13.921875 L 10.328125 13.09375 C 10.328125 12.636719 10.785156 12.175781 11.242188 12.175781 L 13.421875 12.175781 Z M 15.292969 15.855469 L 16.304688 15.855469 C 16.3125 15.855469 16.320312 15.855469 16.328125 15.855469 C 16.335938 15.863281 16.351562 15.871094 16.359375 15.890625 C 16.375 15.898438 16.382812 15.914062 16.390625 15.921875 C 16.390625 15.929688 16.390625 15.929688 16.390625 15.9375 L 16.398438 15.945312 L 16.398438 16.285156 L 16.390625 16.292969 C 16.390625 16.300781 16.390625 16.308594 16.390625 16.308594 C 16.382812 16.324219 16.375 16.339844 16.359375 16.347656 C 16.351562 16.363281 16.335938 16.371094 16.320312 16.378906 C 16.320312 16.378906 16.3125 16.378906 16.304688 16.378906 L 16.296875 16.386719 L 15.300781 16.386719 L 15.292969 16.378906 C 15.285156 16.378906 15.277344 16.378906 15.277344 16.378906 C 15.261719 16.371094 15.246094 16.363281 15.238281 16.347656 C 15.222656 16.339844 15.214844 16.324219 15.207031 16.308594 C 15.207031 16.308594 15.207031 16.300781 15.207031 16.292969 L 15.207031 15.9375 C 15.207031 15.929688 15.207031 15.929688 15.207031 15.921875 C 15.214844 15.914062 15.222656 15.898438 15.238281 15.890625 C 15.246094 15.871094 15.261719 15.863281 15.269531 15.855469 C 15.277344 15.855469 15.285156 15.855469 15.292969 15.855469 Z M 16.785156 15.839844 C 16.785156 15.832031 16.777344 15.824219 16.777344 15.816406 L 21.28125 14.339844 L 21.28125 18.496094 C 21.28125 18.953125 20.8125 19.417969 20.355469 19.417969 L 11.242188 19.417969 C 10.785156 19.417969 10.328125 18.953125 10.328125 18.496094 L 10.328125 14.339844 L 14.820312 15.816406 C 14.820312 15.824219 14.8125 15.832031 14.8125 15.839844 C 14.804688 15.871094 14.804688 15.914062 14.804688 15.945312 L 14.804688 16.285156 C 14.804688 16.316406 14.804688 16.355469 14.8125 16.386719 C 14.820312 16.417969 14.828125 16.449219 14.84375 16.480469 C 14.867188 16.535156 14.90625 16.582031 14.953125 16.632812 C 15 16.679688 15.050781 16.71875 15.105469 16.742188 C 15.136719 16.757812 15.167969 16.765625 15.199219 16.773438 C 15.230469 16.78125 15.269531 16.789062 15.300781 16.789062 L 16.296875 16.789062 C 16.328125 16.789062 16.367188 16.78125 16.398438 16.773438 C 16.429688 16.765625 16.460938 16.757812 16.496094 16.742188 C 16.550781 16.71875 16.597656 16.679688 16.644531 16.632812 C 16.691406 16.582031 16.730469 16.535156 16.753906 16.480469 C 16.769531 16.449219 16.777344 16.417969 16.785156 16.386719 C 16.792969 16.355469 16.800781 16.316406 16.800781 16.285156 L 16.800781 15.945312 C 16.800781 15.914062 16.792969 15.871094 16.785156 15.839844 Z M 16.785156 15.839844 " fill-opacity="1" fill-rule="evenodd"/></svg>