<svg xmlns="http://www.w3.org/2000/svg" xmlns:xlink="http://www.w3.org/1999/xlink" width="230" zoomAndPan="magnify" viewBox="0 0 172.5 30.750001" height="41" preserveAspectRatio="xMidYMid meet" version="1.0"><defs><g/><clipPath id="4f22c24950"><path d="M 1.375 0.980469 L 30.128906 0.980469 L 30.128906 29.65625 L 1.375 29.65625 Z M 1.375 0.980469 " clip-rule="nonzero"/></clipPath><clipPath id="590f06ebfa"><path d="M 8.277344 7.871094 L 23.207031 7.871094 L 23.207031 22.738281 L 8.277344 22.738281 Z M 8.277344 7.871094 " clip-rule="nonzero"/></clipPath></defs><g clip-path="url(#4f22c24950)"><path fill="#3d4b8d" d="M 27.164062 15.5 C 27.167969 15.363281 27.273438 15.199219 27.398438 15.136719 L 29.902344 13.882812 C 30.027344 13.820312 30.109375 13.660156 30.085938 13.523438 L 29.511719 10.859375 C 29.472656 10.726562 29.332031 10.609375 29.191406 10.601562 L 26.34375 10.417969 C 26.207031 10.410156 26.042969 10.300781 25.980469 10.175781 L 25.59375 9.464844 C 25.523438 9.34375 25.523438 9.152344 25.59375 9.03125 L 27.03125 6.605469 C 27.101562 6.488281 27.085938 6.304688 26.996094 6.199219 L 25.058594 4.222656 C 24.953125 4.128906 24.773438 4.109375 24.652344 4.175781 L 22.171875 5.550781 C 22.050781 5.621094 21.859375 5.617188 21.738281 5.542969 L 21.070312 5.164062 C 20.949219 5.097656 20.84375 4.933594 20.839844 4.796875 L 20.738281 1.953125 C 20.730469 1.8125 20.621094 1.667969 20.488281 1.628906 L 17.804688 0.988281 C 17.667969 0.960938 17.503906 1.042969 17.4375 1.164062 L 16.105469 3.644531 C 16.039062 3.765625 15.929688 3.867188 15.859375 3.863281 L 15.796875 3.863281 C 15.410156 3.863281 14.898438 3.902344 14.898438 3.902344 C 14.761719 3.914062 14.585938 3.828125 14.507812 3.714844 L 12.875 1.367188 C 12.796875 1.253906 12.625 1.191406 12.492188 1.230469 L 9.925781 2.09375 C 9.800781 2.144531 9.703125 2.300781 9.714844 2.4375 L 9.933594 5.226562 C 9.945312 5.367188 9.859375 5.539062 9.742188 5.613281 L 8.925781 6.179688 C 8.816406 6.261719 8.621094 6.285156 8.492188 6.234375 L 5.851562 5.140625 C 5.726562 5.085938 5.546875 5.128906 5.453125 5.230469 L 3.808594 7.269531 C 3.726562 7.382812 3.730469 7.5625 3.8125 7.675781 L 5.496094 9.890625 C 5.578125 10.003906 5.601562 10.195312 5.542969 10.320312 L 5.085938 11.417969 C 5.035156 11.546875 4.886719 11.671875 4.75 11.695312 L 1.949219 12.203125 C 1.8125 12.226562 1.683594 12.359375 1.664062 12.496094 C 1.664062 12.496094 1.386719 14.21875 1.386719 15.246094 L 1.386719 15.25 C 1.386719 15.257812 1.496094 15.300781 1.625 15.347656 L 4.238281 16.304688 C 4.367188 16.351562 4.488281 16.503906 4.507812 16.636719 L 4.753906 17.976562 C 4.785156 18.109375 4.726562 18.296875 4.625 18.390625 L 2.554688 20.320312 C 2.453125 20.414062 2.417969 20.59375 2.476562 20.71875 L 3.605469 22.910156 C 3.675781 23.027344 3.839844 23.101562 3.976562 23.070312 L 6.703125 22.457031 C 6.835938 22.429688 7.023438 22.488281 7.113281 22.589844 L 8.117188 23.636719 C 8.21875 23.734375 8.273438 23.917969 8.238281 24.054688 L 7.542969 26.777344 C 7.511719 26.910156 7.578125 27.078125 7.695312 27.152344 L 9.824219 28.351562 C 9.945312 28.414062 10.125 28.382812 10.222656 28.285156 L 12.199219 26.285156 C 12.296875 26.183594 12.484375 26.132812 12.617188 26.171875 L 14.019531 26.480469 C 14.15625 26.507812 14.304688 26.632812 14.347656 26.765625 L 15.226562 29.410156 C 15.273438 29.542969 15.421875 29.652344 15.558594 29.65625 C 15.558594 29.65625 15.632812 29.660156 15.796875 29.660156 C 16.640625 29.660156 18.03125 29.476562 18.03125 29.476562 C 18.167969 29.460938 18.300781 29.335938 18.332031 29.199219 L 18.914062 26.425781 C 18.941406 26.292969 19.070312 26.144531 19.203125 26.101562 L 20.4375 25.632812 C 20.566406 25.578125 20.757812 25.605469 20.863281 25.691406 L 23.03125 27.4375 C 23.136719 27.523438 23.320312 27.53125 23.433594 27.453125 L 25.46875 25.910156 C 25.574219 25.820312 25.621094 25.644531 25.570312 25.515625 L 24.554688 22.851562 C 24.507812 22.722656 24.535156 22.527344 24.621094 22.417969 L 25.292969 21.503906 C 25.371094 21.390625 25.546875 21.308594 25.683594 21.320312 L 28.457031 21.621094 C 28.59375 21.632812 28.75 21.542969 28.804688 21.417969 L 29.714844 18.933594 C 29.753906 18.800781 29.695312 18.625 29.585938 18.542969 L 27.285156 16.84375 C 27.171875 16.761719 27.09375 16.582031 27.105469 16.445312 Z M 15.757812 23.699219 C 11.121094 23.699219 7.363281 19.9375 7.363281 15.300781 C 7.363281 10.660156 11.121094 6.902344 15.757812 6.902344 C 20.394531 6.902344 24.152344 10.660156 24.152344 15.300781 C 24.152344 19.9375 20.394531 23.699219 15.757812 23.699219 Z M 15.757812 23.699219 " fill-opacity="1" fill-rule="nonzero"/></g><g clip-path="url(#590f06ebfa)"><path fill="#8c52ff" d="M 15.738281 7.871094 C 15.617188 7.871094 15.496094 7.875 15.375 7.878906 C 15.253906 7.886719 15.132812 7.894531 15.011719 7.90625 C 14.890625 7.917969 14.773438 7.933594 14.652344 7.949219 C 14.53125 7.96875 14.414062 7.988281 14.292969 8.011719 C 14.175781 8.035156 14.058594 8.0625 13.941406 8.09375 C 13.820312 8.121094 13.707031 8.15625 13.589844 8.191406 C 13.472656 8.226562 13.359375 8.261719 13.246094 8.304688 C 13.128906 8.34375 13.015625 8.386719 12.90625 8.433594 C 12.792969 8.480469 12.683594 8.53125 12.574219 8.582031 C 12.464844 8.632812 12.355469 8.6875 12.25 8.746094 C 12.140625 8.804688 12.035156 8.863281 11.933594 8.925781 C 11.828125 8.988281 11.726562 9.050781 11.625 9.121094 C 11.523438 9.1875 11.425781 9.257812 11.328125 9.328125 C 11.230469 9.402344 11.136719 9.476562 11.042969 9.554688 C 10.949219 9.628906 10.855469 9.710938 10.765625 9.792969 C 10.675781 9.871094 10.589844 9.957031 10.503906 10.042969 C 10.417969 10.128906 10.335938 10.214844 10.253906 10.304688 C 10.171875 10.394531 10.09375 10.488281 10.015625 10.582031 C 9.941406 10.675781 9.863281 10.769531 9.792969 10.867188 C 9.71875 10.964844 9.652344 11.066406 9.582031 11.164062 C 9.515625 11.265625 9.453125 11.367188 9.390625 11.472656 C 9.328125 11.578125 9.265625 11.683594 9.210938 11.789062 C 9.152344 11.898438 9.097656 12.003906 9.046875 12.113281 C 8.996094 12.226562 8.945312 12.335938 8.898438 12.449219 C 8.851562 12.558594 8.808594 12.671875 8.769531 12.789062 C 8.726562 12.902344 8.691406 13.015625 8.65625 13.132812 C 8.621094 13.25 8.585938 13.367188 8.558594 13.484375 C 8.527344 13.601562 8.503906 13.71875 8.480469 13.839844 C 8.453125 13.957031 8.433594 14.078125 8.417969 14.199219 C 8.398438 14.316406 8.382812 14.4375 8.371094 14.558594 C 8.359375 14.679688 8.351562 14.800781 8.34375 14.921875 C 8.339844 15.042969 8.335938 15.164062 8.335938 15.285156 C 8.335938 15.40625 8.339844 15.527344 8.34375 15.648438 C 8.351562 15.769531 8.359375 15.890625 8.371094 16.011719 C 8.382812 16.132812 8.398438 16.253906 8.417969 16.375 C 8.433594 16.492188 8.453125 16.613281 8.480469 16.730469 C 8.503906 16.851562 8.527344 16.96875 8.558594 17.085938 C 8.585938 17.203125 8.621094 17.320312 8.65625 17.4375 C 8.691406 17.554688 8.726562 17.667969 8.769531 17.785156 C 8.808594 17.898438 8.851562 18.011719 8.898438 18.121094 C 8.945312 18.234375 8.996094 18.347656 9.046875 18.457031 C 9.097656 18.566406 9.152344 18.675781 9.210938 18.78125 C 9.265625 18.886719 9.328125 18.992188 9.390625 19.097656 C 9.453125 19.203125 9.515625 19.304688 9.582031 19.40625 C 9.652344 19.507812 9.71875 19.605469 9.792969 19.703125 C 9.863281 19.800781 9.941406 19.894531 10.015625 19.988281 C 10.09375 20.082031 10.171875 20.175781 10.253906 20.265625 C 10.335938 20.355469 10.417969 20.441406 10.503906 20.527344 C 10.589844 20.613281 10.675781 20.699219 10.765625 20.78125 C 10.855469 20.859375 10.949219 20.941406 11.042969 21.015625 C 11.136719 21.09375 11.230469 21.167969 11.328125 21.242188 C 11.425781 21.3125 11.523438 21.382812 11.625 21.449219 C 11.726562 21.519531 11.828125 21.582031 11.933594 21.644531 C 12.035156 21.707031 12.140625 21.769531 12.25 21.824219 C 12.355469 21.882812 12.464844 21.9375 12.574219 21.988281 C 12.683594 22.039062 12.792969 22.089844 12.90625 22.136719 C 13.015625 22.183594 13.128906 22.226562 13.246094 22.265625 C 13.359375 22.308594 13.472656 22.34375 13.589844 22.382812 C 13.707031 22.417969 13.820312 22.449219 13.941406 22.476562 C 14.058594 22.507812 14.175781 22.535156 14.292969 22.558594 C 14.414062 22.582031 14.53125 22.601562 14.652344 22.621094 C 14.773438 22.636719 14.890625 22.652344 15.011719 22.664062 C 15.132812 22.675781 15.253906 22.683594 15.375 22.691406 C 15.496094 22.699219 15.617188 22.699219 15.738281 22.699219 C 15.859375 22.699219 15.980469 22.699219 16.101562 22.691406 C 16.222656 22.683594 16.34375 22.675781 16.464844 22.664062 C 16.585938 22.652344 16.703125 22.636719 16.824219 22.621094 C 16.945312 22.601562 17.0625 22.582031 17.183594 22.558594 C 17.300781 22.535156 17.417969 22.507812 17.535156 22.476562 C 17.652344 22.449219 17.769531 22.417969 17.886719 22.382812 C 18.003906 22.34375 18.117188 22.308594 18.230469 22.265625 C 18.347656 22.226562 18.457031 22.183594 18.570312 22.136719 C 18.683594 22.089844 18.792969 22.039062 18.902344 21.988281 C 19.011719 21.9375 19.121094 21.882812 19.226562 21.824219 C 19.332031 21.769531 19.441406 21.707031 19.542969 21.644531 C 19.648438 21.582031 19.75 21.519531 19.851562 21.449219 C 19.949219 21.382812 20.050781 21.3125 20.148438 21.242188 C 20.246094 21.167969 20.339844 21.09375 20.433594 21.015625 C 20.527344 20.941406 20.617188 20.859375 20.707031 20.78125 C 20.796875 20.699219 20.886719 20.613281 20.972656 20.527344 C 21.058594 20.441406 21.140625 20.355469 21.222656 20.265625 C 21.304688 20.175781 21.382812 20.082031 21.460938 19.988281 C 21.535156 19.894531 21.609375 19.800781 21.683594 19.703125 C 21.753906 19.605469 21.824219 19.507812 21.890625 19.40625 C 21.960938 19.304688 22.023438 19.203125 22.085938 19.097656 C 22.148438 18.992188 22.207031 18.886719 22.265625 18.78125 C 22.324219 18.675781 22.378906 18.566406 22.429688 18.457031 C 22.480469 18.347656 22.53125 18.234375 22.578125 18.121094 C 22.621094 18.011719 22.667969 17.898438 22.707031 17.785156 C 22.746094 17.667969 22.785156 17.554688 22.820312 17.4375 C 22.855469 17.320312 22.886719 17.203125 22.917969 17.085938 C 22.949219 16.96875 22.972656 16.851562 22.996094 16.730469 C 23.019531 16.613281 23.042969 16.492188 23.058594 16.375 C 23.078125 16.253906 23.09375 16.132812 23.105469 16.011719 C 23.117188 15.890625 23.125 15.769531 23.132812 15.648438 C 23.136719 15.527344 23.140625 15.40625 23.140625 15.285156 C 23.140625 15.164062 23.136719 15.042969 23.132812 14.921875 C 23.125 14.800781 23.117188 14.679688 23.105469 14.558594 C 23.09375 14.4375 23.078125 14.316406 23.058594 14.199219 C 23.042969 14.078125 23.019531 13.957031 22.996094 13.839844 C 22.972656 13.71875 22.949219 13.601562 22.917969 13.484375 C 22.886719 13.367188 22.855469 13.25 22.820312 13.132812 C 22.785156 13.015625 22.746094 12.902344 22.707031 12.789062 C 22.667969 12.671875 22.621094 12.558594 22.578125 12.449219 C 22.53125 12.335938 22.480469 12.226562 22.429688 12.113281 C 22.378906 12.003906 22.324219 11.898438 22.265625 11.789062 C 22.207031 11.683594 22.148438 11.578125 22.085938 11.472656 C 22.023438 11.367188 21.960938 11.265625 21.890625 11.164062 C 21.824219 11.066406 21.753906 10.964844 21.683594 10.867188 C 21.609375 10.769531 21.535156 10.675781 21.460938 10.582031 C 21.382812 10.488281 21.304688 10.394531 21.222656 10.304688 C 21.140625 10.214844 21.058594 10.128906 20.972656 10.042969 C 20.886719 9.957031 20.796875 9.871094 20.707031 9.792969 C 20.617188 9.710938 20.527344 9.628906 20.433594 9.554688 C 20.339844 9.476562 20.246094 9.402344 20.148438 9.328125 C 20.050781 9.257812 19.949219 9.1875 19.851562 9.121094 C 19.75 9.050781 19.648438 8.988281 19.542969 8.925781 C 19.441406 8.863281 19.332031 8.804688 19.226562 8.746094 C 19.121094 8.6875 19.011719 8.632812 18.902344 8.582031 C 18.792969 8.53125 18.683594 8.480469 18.570312 8.433594 C 18.457031 8.386719 18.347656 8.34375 18.230469 8.304688 C 18.117188 8.261719 18.003906 8.226562 17.886719 8.191406 C 17.769531 8.15625 17.652344 8.121094 17.535156 8.09375 C 17.417969 8.0625 17.300781 8.035156 17.183594 8.011719 C 17.0625 7.988281 16.945312 7.96875 16.824219 7.949219 C 16.703125 7.933594 16.585938 7.917969 16.464844 7.90625 C 16.34375 7.894531 16.222656 7.886719 16.101562 7.878906 C 15.980469 7.875 15.859375 7.871094 15.738281 7.871094 Z M 15.738281 7.871094 " fill-opacity="1" fill-rule="nonzero"/></g><path fill="#ffffff" d="M 12.039062 13.070312 L 20.550781 13.070312 L 20.550781 13.808594 L 12.039062 13.808594 Z M 12.039062 14.550781 L 20.550781 14.550781 L 20.550781 15.292969 L 12.039062 15.292969 Z M 12.039062 14.550781 " fill-opacity="1" fill-rule="nonzero"/><path fill="#ffffff" d="M 13.148438 11.207031 L 14.628906 11.207031 L 14.628906 19.734375 L 13.148438 19.734375 Z M 13.148438 11.207031 " fill-opacity="1" fill-rule="nonzero"/><path fill="#ffffff" d="M 16.207031 17.339844 L 13.886719 17.339844 L 13.886719 16.042969 L 16.207031 16.042969 C 16.882812 16.042969 17.496094 15.714844 17.804688 15.183594 C 17.992188 14.863281 18.078125 14.503906 18.054688 14.144531 C 18.035156 13.878906 17.953125 13.625 17.820312 13.386719 C 17.511719 12.851562 16.898438 12.519531 16.21875 12.519531 L 13.886719 12.519531 L 13.886719 11.222656 L 16.21875 11.222656 C 17.359375 11.222656 18.40625 11.804688 18.941406 12.738281 C 19.175781 13.148438 19.3125 13.585938 19.34375 14.046875 C 19.390625 14.671875 19.246094 15.289062 18.925781 15.839844 C 18.382812 16.765625 17.34375 17.339844 16.207031 17.339844 Z M 16.207031 17.339844 " fill-opacity="1" fill-rule="nonzero"/><g fill="#3d4b8d" fill-opacity="1"><g transform="translate(33.723992, 22.656816)"><g><path d="M 9.15625 -15.988281 C 9.15625 -16.191406 9.074219 -16.3125 8.828125 -16.3125 L 1.324219 -16.3125 C 1.140625 -16.3125 1.019531 -16.191406 1.019531 -15.988281 L 1.019531 -0.328125 C 1.019531 -0.121094 1.140625 0 1.324219 0 L 8.828125 0 C 9.074219 0 9.15625 -0.121094 9.15625 -0.328125 L 9.15625 -2.367188 C 9.15625 -2.589844 9.074219 -2.691406 8.828125 -2.691406 L 3.730469 -2.691406 L 3.730469 -6.8125 L 7.625 -6.8125 C 7.832031 -6.8125 7.953125 -6.933594 7.953125 -7.15625 L 7.953125 -9.175781 C 7.953125 -9.398438 7.832031 -9.523438 7.625 -9.523438 L 3.730469 -9.523438 L 3.730469 -13.601562 L 8.828125 -13.601562 C 9.074219 -13.601562 9.15625 -13.742188 9.15625 -13.949219 Z M 9.15625 -15.988281 "/></g></g></g><g fill="#3d4b8d" fill-opacity="1"><g transform="translate(43.898422, 22.656816)"><g><path d="M 1.019531 -6.402344 C 1.019531 -6.136719 1.164062 -5.996094 1.425781 -5.996094 L 4.648438 -5.996094 C 4.914062 -5.996094 5.058594 -6.136719 5.058594 -6.402344 L 5.058594 -8.277344 C 5.058594 -8.542969 4.914062 -8.6875 4.648438 -8.6875 L 1.425781 -8.6875 C 1.164062 -8.6875 1.019531 -8.542969 1.019531 -8.277344 Z M 1.019531 -6.402344 "/></g></g></g><g fill="#3d4b8d" fill-opacity="1"><g transform="translate(49.974541, 22.656816)"><g><path d="M 1.019531 -0.328125 C 1.019531 -0.121094 1.140625 0 1.347656 0 L 3.34375 0.0195312 C 3.570312 0.0195312 3.671875 -0.101562 3.671875 -0.304688 L 3.671875 -4.382812 L 6.238281 -4.40625 C 8.15625 -4.425781 9.175781 -5.445312 9.175781 -7.339844 L 9.175781 -11.335938 C 9.175781 -13.253906 8.15625 -14.273438 6.238281 -14.273438 L 1.347656 -14.273438 C 1.140625 -14.273438 1.019531 -14.152344 1.019531 -13.949219 Z M 3.671875 -7.015625 L 3.671875 -11.621094 L 5.710938 -11.644531 C 6.261719 -11.644531 6.523438 -11.359375 6.523438 -10.828125 L 6.523438 -7.851562 C 6.523438 -7.339844 6.261719 -7.035156 5.710938 -7.035156 Z M 3.671875 -7.015625 "/></g></g></g><g fill="#3d4b8d" fill-opacity="1"><g transform="translate(60.169361, 22.656816)"><g><path d="M 10.644531 0 C 10.890625 0 10.992188 -0.121094 10.929688 -0.347656 L 7.542969 -13.988281 C 7.503906 -14.191406 7.382812 -14.273438 7.199219 -14.273438 L 4.363281 -14.273438 C 4.179688 -14.273438 4.058594 -14.191406 4.015625 -13.988281 L 0.632812 -0.347656 C 0.570312 -0.121094 0.671875 0 0.898438 0 L 2.894531 0 C 3.078125 0 3.179688 -0.101562 3.222656 -0.285156 L 3.855469 -2.855469 L 7.6875 -2.855469 L 8.339844 -0.285156 C 8.378906 -0.101562 8.484375 0 8.667969 0 Z M 7.054688 -5.21875 L 4.484375 -5.21875 L 5.769531 -10.765625 Z M 7.054688 -5.21875 "/></g></g></g><g fill="#3d4b8d" fill-opacity="1"><g transform="translate(71.730289, 22.656816)"><g><path d="M 8.117188 -14.273438 C 7.871094 -14.273438 7.726562 -14.152344 7.648438 -13.949219 L 5.363281 -8.707031 L 3.078125 -13.949219 C 2.996094 -14.152344 2.855469 -14.273438 2.609375 -14.273438 L 0.570312 -14.273438 C 0.265625 -14.273438 0.121094 -14.070312 0.246094 -13.804688 L 3.976562 -5.34375 L 3.976562 -0.40625 C 3.976562 -0.144531 4.117188 0 4.382812 0 L 6.339844 0 C 6.605469 0 6.75 -0.144531 6.75 -0.40625 L 6.75 -5.34375 L 10.480469 -13.804688 C 10.601562 -14.070312 10.460938 -14.273438 10.15625 -14.273438 Z M 8.117188 -14.273438 "/></g></g></g><g fill="#3d4b8d" fill-opacity="1"><g transform="translate(82.455249, 22.656816)"><g><path d="M 9.175781 -11.335938 C 9.175781 -13.253906 8.15625 -14.273438 6.238281 -14.273438 L 1.347656 -14.273438 C 1.140625 -14.273438 1.019531 -14.152344 1.019531 -13.949219 L 1.019531 -0.328125 C 1.019531 -0.121094 1.140625 0 1.347656 0 L 3.34375 0 C 3.546875 0 3.671875 -0.121094 3.671875 -0.328125 L 3.671875 -4.300781 L 5.484375 -4.300781 L 6.464844 -0.285156 C 6.503906 -0.101562 6.605469 0 6.8125 0 L 8.808594 0 C 9.035156 0 9.15625 -0.121094 9.09375 -0.367188 L 8.035156 -4.75 C 8.789062 -5.21875 9.175781 -6.054688 9.175781 -7.238281 Z M 3.671875 -6.933594 L 3.671875 -11.644531 L 5.710938 -11.644531 C 6.238281 -11.644531 6.523438 -11.359375 6.523438 -10.828125 L 6.523438 -7.75 C 6.523438 -7.21875 6.238281 -6.933594 5.710938 -6.933594 Z M 3.671875 -6.933594 "/></g></g></g><g fill="#3d4b8d" fill-opacity="1"><g transform="translate(92.650069, 22.656816)"><g><path d="M 1.019531 -2.9375 C 1.019531 -1.019531 2.039062 0 3.957031 0 L 6.238281 0 C 8.15625 0 9.175781 -1.019531 9.175781 -2.9375 L 9.175781 -11.335938 C 9.175781 -13.253906 8.15625 -14.273438 6.238281 -14.273438 L 3.957031 -14.273438 C 2.039062 -14.273438 1.019531 -13.253906 1.019531 -11.335938 Z M 4.484375 -2.628906 C 3.957031 -2.628906 3.671875 -2.894531 3.671875 -3.445312 L 3.671875 -10.828125 C 3.671875 -11.359375 3.957031 -11.644531 4.484375 -11.644531 L 5.792969 -11.644531 C 6.320312 -11.644531 6.605469 -11.359375 6.605469 -10.828125 L 6.605469 -3.445312 C 6.605469 -2.894531 6.320312 -2.628906 5.792969 -2.628906 Z M 4.484375 -2.628906 "/></g></g></g><g fill="#3d4b8d" fill-opacity="1"><g transform="translate(102.844889, 22.656816)"><g><path d="M 3.792969 -2.691406 L 7.832031 -2.691406 C 8.054688 -2.691406 8.15625 -2.570312 8.15625 -2.367188 L 8.15625 -0.328125 C 8.15625 -0.101562 8.054688 0 7.832031 0 L 1.347656 0 C 1.140625 0 1.019531 -0.101562 1.019531 -0.328125 L 1.019531 -13.949219 C 1.019531 -14.152344 1.140625 -14.273438 1.347656 -14.273438 L 3.464844 -14.273438 C 3.691406 -14.273438 3.792969 -14.152344 3.792969 -13.949219 Z M 3.792969 -2.691406 "/></g></g></g><g fill="#3d4b8d" fill-opacity="1"><g transform="translate(112.020232, 22.656816)"><g><path d="M 3.792969 -2.691406 L 7.832031 -2.691406 C 8.054688 -2.691406 8.15625 -2.570312 8.15625 -2.367188 L 8.15625 -0.328125 C 8.15625 -0.101562 8.054688 0 7.832031 0 L 1.347656 0 C 1.140625 0 1.019531 -0.101562 1.019531 -0.328125 L 1.019531 -13.949219 C 1.019531 -14.152344 1.140625 -14.273438 1.347656 -14.273438 L 3.464844 -14.273438 C 3.691406 -14.273438 3.792969 -14.152344 3.792969 -13.949219 Z M 3.792969 -2.691406 "/></g></g></g></svg>